<?xml version="1.0" encoding="UTF-8"?>
<svg xmlns="http://www.w3.org/2000/svg" xmlns:xlink="http://www.w3.org/1999/xlink" width="566.929pt" height="708.661pt" viewBox="0 0 566.929 708.661">
<path fill-rule="nonzero" fill="rgb(0%, 0%, 0%)" fill-opacity="1" d="M 133.601562 331.425781 L 133.503906 331.394531 L 133.40625 331.421875 C 131.632812 331.925781 129.285156 332.882812 126.957031 334.632812 C 128.898438 335.671875 130.972656 337.167969 132.855469 339.363281 C 134.503906 341.289062 135.585938 343.277344 136.316406 345.101562 C 139.296875 342.417969 142.476562 341.074219 144.785156 340.417969 C 144.210938 339.363281 143.5 338.285156 142.59375 337.226562 C 139.605469 333.734375 136.054688 332.144531 133.601562 331.425781 "/>
<path fill-rule="nonzero" fill="rgb(0%, 0%, 0%)" fill-opacity="1" d="M 160.5625 381.964844 L 158.703125 381.964844 L 158.703125 356.886719 L 158.695312 356.855469 C 158.277344 354.570312 157.210938 351.179688 154.492188 348.007812 C 152.398438 345.5625 150.035156 344.0625 147.964844 343.128906 C 148.269531 344.082031 148.488281 344.972656 148.628906 345.738281 L 148.664062 346.019531 L 148.664062 371.183594 L 146.804688 371.183594 L 146.804688 346.105469 L 146.800781 346.074219 C 146.605469 345 146.253906 343.683594 145.667969 342.261719 C 145.613281 342.242188 145.554688 342.222656 145.5 342.203125 L 145.402344 342.175781 L 145.304688 342.203125 C 143.046875 342.84375 139.871094 344.203125 136.984375 347.015625 C 137.203125 347.765625 137.363281 348.460938 137.476562 349.082031 L 137.511719 349.367188 L 137.511719 374.53125 L 135.652344 374.53125 L 135.652344 349.449219 L 135.648438 349.417969 C 135.605469 349.179688 135.546875 348.921875 135.488281 348.65625 C 133.078125 351.621094 132 354.707031 131.535156 356.84375 L 131.527344 356.878906 L 131.527344 381.964844 L 129.667969 381.964844 L 129.667969 356.679688 L 129.71875 356.449219 C 130.265625 353.9375 131.5625 350.21875 134.640625 346.765625 C 134.71875 346.679688 134.796875 346.609375 134.875 346.523438 C 134.222656 344.675781 133.164062 342.582031 131.441406 340.570312 C 129.515625 338.320312 127.359375 336.867188 125.410156 335.921875 C 124.976562 336.324219 124.550781 336.75 124.132812 337.21875 C 121.324219 340.375 120.140625 343.769531 119.640625 346.0625 L 119.632812 346.097656 L 119.632812 371.183594 L 117.773438 371.183594 L 117.773438 345.898438 L 117.824219 345.667969 C 118.371094 343.15625 119.667969 339.4375 122.746094 335.984375 C 123.011719 335.683594 123.289062 335.417969 123.566406 335.140625 C 123.175781 335 122.800781 334.871094 122.449219 334.769531 L 122.351562 334.742188 L 122.257812 334.769531 C 119.746094 335.480469 116.101562 337.0625 112.980469 340.566406 C 110.171875 343.71875 108.984375 347.113281 108.488281 349.40625 L 108.480469 349.441406 L 108.480469 374.53125 L 106.621094 374.53125 L 106.621094 349.246094 L 106.671875 349.011719 C 107.21875 346.5 108.515625 342.785156 111.59375 339.328125 C 115.011719 335.492188 119.003906 333.757812 121.75 332.980469 L 122.363281 332.804688 L 122.972656 332.984375 C 123.617188 333.175781 124.335938 333.425781 125.09375 333.738281 C 127.878906 331.4375 130.765625 330.242188 132.902344 329.636719 L 133.515625 329.460938 L 134.125 329.640625 C 136.820312 330.429688 140.71875 332.179688 144.003906 336.015625 C 145.355469 337.59375 146.320312 339.210938 147.03125 340.746094 C 149.632812 341.65625 153.003906 343.414062 155.902344 346.796875 C 158.890625 350.289062 160.066406 354.011719 160.523438 356.519531 L 160.5625 356.800781 Z M 160.5625 317.761719 L 105.707031 317.761719 C 99.671875 317.761719 94.734375 322.699219 94.734375 328.734375 L 94.734375 383.589844 C 94.734375 389.621094 99.671875 394.558594 105.707031 394.558594 L 160.5625 394.558594 C 166.59375 394.558594 171.53125 389.621094 171.53125 383.589844 L 171.53125 328.734375 C 171.53125 322.699219 166.59375 317.761719 160.5625 317.761719 "/>
<path fill-rule="nonzero" fill="rgb(0%, 0%, 0%)" fill-opacity="1" d="M 223.183594 370.914062 L 216.726562 370.914062 L 216.726562 339.28125 L 223.183594 339.28125 Z M 217.292969 356.289062 L 202 356.289062 L 202 351.796875 L 217.292969 351.796875 Z M 202.414062 370.914062 L 195.957031 370.914062 L 195.957031 339.28125 L 202.414062 339.28125 Z M 202.414062 370.914062 "/>
<path fill-rule="nonzero" fill="rgb(0%, 0%, 0%)" fill-opacity="1" d="M 231.761719 352.253906 L 252.117188 352.253906 L 252.117188 356.472656 L 231.761719 356.472656 Z M 238.167969 339.1875 L 243.667969 339.1875 C 245.546875 339.1875 247.398438 339.21875 249.222656 339.28125 C 251.046875 339.339844 252.769531 339.433594 254.390625 339.554688 L 254.082031 343.820312 L 240.132812 343.820312 C 239.164062 343.820312 238.449219 344.03125 237.984375 344.460938 C 237.519531 344.890625 237.289062 345.5625 237.289062 346.476562 L 237.289062 363.714844 C 237.289062 364.632812 237.519531 365.304688 237.984375 365.734375 C 238.449219 366.160156 239.164062 366.375 240.132812 366.375 L 254.082031 366.375 L 254.390625 370.640625 C 252.769531 370.761719 251.046875 370.84375 249.222656 370.890625 C 247.398438 370.9375 245.546875 370.964844 243.667969 370.980469 C 241.792969 370.996094 239.957031 371.003906 238.167969 371.003906 C 235.964844 371.003906 234.195312 370.460938 232.871094 369.378906 C 231.546875 368.292969 230.863281 366.832031 230.832031 365 L 230.832031 345.195312 C 230.863281 343.359375 231.546875 341.902344 232.871094 340.816406 C 234.195312 339.730469 235.964844 339.1875 238.167969 339.1875 "/>
<path fill-rule="nonzero" fill="rgb(0%, 0%, 0%)" fill-opacity="1" d="M 267.046875 370.914062 L 260.589844 370.914062 L 260.589844 339.28125 L 267.046875 339.28125 Z M 267.046875 370.914062 "/>
<path fill-rule="nonzero" fill="rgb(0%, 0%, 0%)" fill-opacity="1" d="M 310.289062 339.28125 C 311.910156 339.28125 312.738281 340.015625 312.769531 341.480469 L 314.164062 370.914062 L 308.019531 370.914062 L 306.777344 343.820312 L 305.796875 343.820312 L 299.132812 365.046875 C 298.820312 366.296875 297.941406 366.925781 296.496094 366.925781 L 291.949219 366.925781 C 290.46875 366.925781 289.554688 366.296875 289.210938 365.046875 L 282.546875 343.820312 L 281.566406 343.820312 L 280.429688 370.914062 L 274.28125 370.914062 L 275.675781 341.480469 C 275.742188 340.015625 276.570312 339.28125 278.15625 339.28125 L 284.613281 339.28125 C 285.988281 339.28125 286.851562 339.90625 287.195312 341.160156 L 292.671875 358.488281 C 292.914062 359.222656 293.113281 359.957031 293.269531 360.691406 C 293.421875 361.421875 293.605469 362.15625 293.808594 362.890625 L 294.585938 362.890625 C 294.789062 362.15625 294.980469 361.421875 295.152344 360.691406 C 295.324219 359.957031 295.515625 359.207031 295.722656 358.441406 L 301.199219 341.160156 C 301.507812 339.90625 302.386719 339.28125 303.832031 339.28125 Z M 310.289062 339.28125 "/>
<path fill-rule="nonzero" fill="rgb(0%, 0%, 0%)" fill-opacity="1" d="M 327.910156 370.914062 L 321.449219 370.914062 L 321.449219 339.28125 L 327.910156 339.28125 Z M 334.882812 338.867188 C 337.570312 338.867188 339.851562 339.136719 341.730469 339.667969 C 343.605469 340.207031 345.121094 341.089844 346.277344 342.328125 C 347.429688 343.566406 348.265625 345.234375 348.78125 347.324219 C 349.296875 349.417969 349.554688 352.007812 349.554688 355.097656 C 349.554688 358.183594 349.296875 360.773438 348.78125 362.867188 C 348.265625 364.960938 347.429688 366.625 346.277344 367.863281 C 345.121094 369.101562 343.605469 369.988281 341.730469 370.523438 C 339.851562 371.058594 337.570312 371.328125 334.882812 371.328125 C 332.300781 371.328125 329.90625 371.289062 327.703125 371.210938 C 325.496094 371.136719 323.414062 371.035156 321.449219 370.914062 L 324.136719 366.511719 C 325.511719 366.574219 327.097656 366.625 328.890625 366.671875 C 330.679688 366.71875 332.679688 366.742188 334.882812 366.742188 C 336.878906 366.742188 338.457031 366.398438 339.609375 365.710938 C 340.765625 365.023438 341.582031 363.828125 342.066406 362.136719 C 342.546875 360.4375 342.789062 358.09375 342.789062 355.097656 C 342.789062 352.101562 342.546875 349.753906 342.066406 348.058594 C 341.582031 346.363281 340.765625 345.164062 339.609375 344.460938 C 338.457031 343.757812 336.878906 343.40625 334.882812 343.40625 C 332.746094 343.40625 330.84375 343.421875 329.175781 343.453125 C 327.503906 343.484375 325.875 343.496094 324.292969 343.496094 L 321.449219 339.28125 C 323.414062 339.160156 325.488281 339.058594 327.675781 338.980469 C 329.863281 338.90625 332.265625 338.867188 334.882812 338.867188 "/>
<path fill-rule="nonzero" fill="rgb(0%, 0%, 0%)" fill-opacity="1" d="M 377.765625 361.882812 L 359.425781 361.882812 L 359.425781 357.390625 L 377.765625 357.390625 Z M 371.773438 339.28125 C 372.324219 339.28125 372.804688 339.417969 373.21875 339.691406 C 373.632812 339.96875 373.925781 340.335938 374.097656 340.792969 L 384.894531 370.914062 L 378.28125 370.914062 L 370.117188 346.523438 C 369.980469 346.035156 369.84375 345.546875 369.707031 345.058594 C 369.566406 344.566406 369.449219 344.09375 369.34375 343.636719 L 367.898438 343.636719 C 367.792969 344.09375 367.671875 344.566406 367.535156 345.058594 C 367.398438 345.546875 367.242188 346.035156 367.070312 346.523438 L 358.960938 370.914062 L 352.347656 370.914062 L 363.144531 340.792969 C 363.28125 340.335938 363.566406 339.96875 363.996094 339.691406 C 364.425781 339.417969 364.917969 339.28125 365.46875 339.28125 Z M 371.773438 339.28125 "/>
<path fill-rule="nonzero" fill="rgb(0%, 0%, 0%)" fill-opacity="1" d="M 395.433594 339.28125 L 395.433594 363.578125 C 395.433594 364.464844 395.703125 365.128906 396.238281 365.574219 C 396.769531 366.015625 397.535156 366.238281 398.535156 366.238281 L 411.140625 366.238281 L 411.453125 370.59375 C 409.109375 370.777344 406.671875 370.890625 404.140625 370.9375 C 401.609375 370.980469 399.105469 371.003906 396.625 371.003906 C 394.007812 371.003906 392.085938 370.410156 390.863281 369.21875 C 389.640625 368.027344 389.03125 366.511719 389.03125 364.679688 L 389.03125 339.28125 Z M 395.433594 339.28125 "/>
<path fill-rule="nonzero" fill="rgb(0%, 0%, 0%)" fill-opacity="1" d="M 422.609375 339.28125 L 422.609375 363.578125 C 422.609375 364.464844 422.875 365.128906 423.410156 365.574219 C 423.945312 366.015625 424.710938 366.238281 425.710938 366.238281 L 438.316406 366.238281 L 438.625 370.59375 C 436.285156 370.777344 433.847656 370.890625 431.316406 370.9375 C 428.785156 370.980469 426.277344 371.003906 423.796875 371.003906 C 421.179688 371.003906 419.257812 370.410156 418.039062 369.21875 C 416.816406 368.027344 416.203125 366.511719 416.203125 364.679688 L 416.203125 339.28125 Z M 422.609375 339.28125 "/>
<path fill-rule="nonzero" fill="rgb(0%, 0%, 0%)" fill-opacity="1" d="M 449.835938 370.914062 L 443.484375 370.914062 L 443.484375 339.28125 L 449.835938 339.28125 Z M 456.605469 338.867188 C 459.566406 338.867188 461.96875 339.144531 463.8125 339.691406 C 465.65625 340.242188 466.996094 341.183594 467.84375 342.511719 C 468.6875 343.84375 469.109375 345.714844 469.109375 348.128906 C 469.109375 349.71875 468.894531 351.070312 468.464844 352.183594 C 468.03125 353.300781 467.324219 354.1875 466.34375 354.84375 C 465.363281 355.503906 464.046875 355.921875 462.390625 356.105469 L 462.390625 356.335938 C 462.976562 356.457031 463.589844 356.695312 464.226562 357.046875 C 464.863281 357.398438 465.449219 357.894531 465.984375 358.535156 C 466.515625 359.175781 466.921875 360.003906 467.195312 361.011719 L 470.453125 370.914062 L 463.632812 370.914062 L 460.6875 361.148438 C 460.308594 360.046875 459.792969 359.277344 459.136719 358.832031 C 458.484375 358.390625 457.585938 358.167969 456.449219 358.167969 C 454.210938 358.167969 452.300781 358.160156 450.714844 358.144531 C 449.132812 358.128906 447.8125 358.109375 446.761719 358.078125 C 445.710938 358.046875 444.789062 358.03125 444 358.03125 L 444.15625 353.675781 L 456.449219 353.675781 C 458 353.644531 459.222656 353.484375 460.117188 353.195312 C 461.015625 352.902344 461.652344 352.382812 462.03125 351.636719 C 462.410156 350.886719 462.597656 349.824219 462.597656 348.449219 C 462.597656 347.105469 462.410156 346.066406 462.03125 345.332031 C 461.652344 344.597656 461.015625 344.085938 460.117188 343.796875 C 459.222656 343.503906 458 343.359375 456.449219 343.359375 C 453.417969 343.359375 450.820312 343.375 448.648438 343.40625 C 446.480469 343.4375 444.996094 343.46875 444.207031 343.496094 L 443.484375 339.28125 C 444.859375 339.160156 446.160156 339.066406 447.382812 339.003906 C 448.605469 338.945312 449.941406 338.90625 451.386719 338.890625 C 452.832031 338.875 454.574219 338.867188 456.605469 338.867188 "/>
</svg>
