<?xml version="1.0" encoding="UTF-8"?>
<svg xmlns="http://www.w3.org/2000/svg" xmlns:xlink="http://www.w3.org/1999/xlink" width="566.929pt" height="708.661pt" viewBox="0 0 566.929 708.661">
<path fill-rule="nonzero" fill="rgb(28.199768%, 40.79895%, 39.199829%)" fill-opacity="1" d="M 325.695312 338.519531 L 322.351562 338.519531 L 322.351562 293.410156 L 322.339844 293.355469 C 321.589844 289.242188 319.667969 283.148438 314.773438 277.4375 C 309.394531 271.15625 303.007812 268.296875 298.597656 267 L 298.425781 266.949219 L 298.25 267 C 293.738281 268.277344 287.179688 271.125 281.566406 277.425781 C 276.511719 283.101562 274.382812 289.207031 273.484375 293.328125 L 273.46875 293.394531 L 273.46875 338.519531 L 270.125 338.519531 L 270.125 293.039062 L 270.214844 292.621094 C 271.199219 288.105469 273.535156 281.417969 279.070312 275.203125 C 285.21875 268.300781 292.398438 265.183594 297.339844 263.78125 L 298.441406 263.46875 L 299.542969 263.792969 C 304.382812 265.214844 311.398438 268.359375 317.3125 275.261719 C 322.691406 281.539062 324.804688 288.238281 325.628906 292.75 L 325.695312 293.257812 Z M 325.695312 338.519531 "/>
<path fill-rule="nonzero" fill="rgb(28.199768%, 40.79895%, 39.199829%)" fill-opacity="1" d="M 347.09375 357.914062 L 343.75 357.914062 L 343.75 312.800781 L 343.738281 312.746094 C 342.988281 308.636719 341.066406 302.542969 336.171875 296.828125 C 330.792969 290.550781 324.40625 287.6875 320 286.394531 L 319.824219 286.34375 L 319.648438 286.390625 C 315.136719 287.671875 308.578125 290.519531 302.964844 296.820312 C 297.910156 302.492188 295.78125 308.601562 294.882812 312.722656 L 294.867188 312.789062 L 294.867188 357.914062 L 291.523438 357.914062 L 291.523438 312.429688 L 291.613281 312.015625 C 292.597656 307.496094 294.933594 300.8125 300.46875 294.597656 C 306.617188 287.691406 313.796875 284.574219 318.738281 283.175781 L 319.839844 282.863281 L 320.941406 283.1875 C 325.785156 284.605469 332.800781 287.75 338.714844 294.65625 C 344.089844 300.933594 346.203125 307.628906 347.027344 312.144531 L 347.09375 312.648438 Z M 347.09375 357.914062 "/>
<path fill-rule="nonzero" fill="rgb(28.199768%, 40.79895%, 39.199829%)" fill-opacity="1" d="M 305.632812 344.539062 L 302.289062 344.539062 L 302.289062 299.425781 L 302.277344 299.371094 C 301.527344 295.261719 299.605469 289.167969 294.714844 283.457031 C 289.332031 277.175781 282.949219 274.3125 278.539062 273.019531 L 278.363281 272.96875 L 278.1875 273.019531 C 273.675781 274.296875 267.117188 277.144531 261.503906 283.445312 C 256.449219 289.121094 254.320312 295.226562 253.421875 299.347656 L 253.40625 299.414062 L 253.40625 344.539062 L 250.066406 344.539062 L 250.066406 299.054688 L 250.15625 298.640625 C 251.136719 294.121094 253.472656 287.4375 259.007812 281.222656 C 265.15625 274.320312 272.335938 271.199219 277.277344 269.800781 L 278.378906 269.488281 L 279.480469 269.8125 C 284.324219 271.234375 291.339844 274.375 297.253906 281.28125 C 302.632812 287.558594 304.742188 294.253906 305.566406 298.769531 L 305.632812 299.273438 Z M 305.632812 344.539062 "/>
<path fill-rule="nonzero" fill="rgb(28.199768%, 40.79895%, 39.199829%)" fill-opacity="1" d="M 178.515625 407.402344 L 171.457031 407.402344 L 171.457031 372.820312 L 178.515625 372.820312 Z M 172.078125 391.414062 L 155.355469 391.414062 L 155.355469 386.503906 L 172.078125 386.503906 Z M 155.808594 407.402344 L 148.746094 407.402344 L 148.746094 372.820312 L 155.808594 372.820312 Z M 155.808594 407.402344 "/>
<path fill-rule="nonzero" fill="rgb(28.199768%, 40.79895%, 39.199829%)" fill-opacity="1" d="M 187.890625 387.003906 L 210.148438 387.003906 L 210.148438 391.613281 L 187.890625 391.613281 Z M 194.898438 372.71875 L 200.910156 372.71875 C 202.964844 372.71875 204.988281 372.75 206.984375 372.820312 C 208.980469 372.886719 210.863281 372.984375 212.632812 373.121094 L 212.292969 377.78125 L 197.042969 377.78125 C 195.988281 377.78125 195.207031 378.015625 194.699219 378.480469 C 194.191406 378.949219 193.9375 379.683594 193.9375 380.6875 L 193.9375 399.535156 C 193.9375 400.535156 194.191406 401.273438 194.699219 401.738281 C 195.207031 402.207031 195.988281 402.441406 197.042969 402.441406 L 212.292969 402.441406 L 212.632812 407.101562 C 210.863281 407.234375 208.980469 407.328125 206.984375 407.378906 C 204.988281 407.429688 202.964844 407.460938 200.910156 407.476562 C 198.859375 407.496094 196.855469 407.503906 194.898438 407.503906 C 192.488281 407.503906 190.554688 406.910156 189.109375 405.722656 C 187.65625 404.539062 186.914062 402.941406 186.875 400.9375 L 186.875 379.285156 C 186.914062 377.28125 187.65625 375.683594 189.109375 374.496094 C 190.554688 373.3125 192.488281 372.71875 194.898438 372.71875 "/>
<path fill-rule="nonzero" fill="rgb(28.199768%, 40.79895%, 39.199829%)" fill-opacity="1" d="M 226.472656 407.402344 L 219.414062 407.402344 L 219.414062 372.820312 L 226.472656 372.820312 Z M 226.472656 407.402344 "/>
<path fill-rule="nonzero" fill="rgb(28.199768%, 40.79895%, 39.199829%)" fill-opacity="1" d="M 273.75 372.820312 C 275.519531 372.820312 276.421875 373.621094 276.460938 375.222656 L 277.988281 407.402344 L 271.265625 407.402344 L 269.910156 377.78125 L 268.835938 377.78125 L 261.550781 400.988281 C 261.210938 402.359375 260.25 403.042969 258.667969 403.042969 L 253.695312 403.042969 C 252.078125 403.042969 251.078125 402.359375 250.703125 400.988281 L 243.417969 377.78125 L 242.34375 377.78125 L 241.101562 407.402344 L 234.378906 407.402344 L 235.90625 375.222656 C 235.980469 373.621094 236.882812 372.820312 238.617188 372.820312 L 245.675781 372.820312 C 247.183594 372.820312 248.125 373.503906 248.5 374.875 L 254.488281 393.820312 C 254.75 394.621094 254.96875 395.425781 255.136719 396.226562 C 255.308594 397.027344 255.503906 397.828125 255.730469 398.632812 L 256.578125 398.632812 C 256.804688 397.828125 257.011719 397.027344 257.199219 396.226562 C 257.386719 395.425781 257.59375 394.605469 257.820312 393.769531 L 263.808594 374.875 C 264.148438 373.503906 265.109375 372.820312 266.691406 372.820312 Z M 273.75 372.820312 "/>
<path fill-rule="nonzero" fill="rgb(28.199768%, 40.79895%, 39.199829%)" fill-opacity="1" d="M 293.011719 407.402344 L 285.949219 407.402344 L 285.949219 372.820312 L 293.011719 372.820312 Z M 300.636719 372.367188 C 303.574219 372.367188 306.066406 372.660156 308.121094 373.246094 C 310.171875 373.828125 311.828125 374.796875 313.089844 376.152344 C 314.351562 377.503906 315.265625 379.328125 315.832031 381.617188 C 316.394531 383.90625 316.679688 386.734375 316.679688 390.109375 C 316.679688 393.488281 316.394531 396.320312 315.832031 398.605469 C 315.265625 400.894531 314.351562 402.714844 313.089844 404.070312 C 311.828125 405.421875 310.171875 406.394531 308.121094 406.976562 C 306.066406 407.5625 303.574219 407.855469 300.636719 407.855469 C 297.8125 407.855469 295.195312 407.8125 292.785156 407.730469 C 290.375 407.644531 288.097656 407.535156 285.949219 407.402344 L 288.886719 402.589844 C 290.394531 402.660156 292.125 402.714844 294.082031 402.765625 C 296.042969 402.816406 298.226562 402.839844 300.636719 402.839844 C 302.820312 402.839844 304.542969 402.464844 305.804688 401.714844 C 307.066406 400.964844 307.960938 399.660156 308.488281 397.804688 C 309.015625 395.949219 309.277344 393.386719 309.277344 390.109375 C 309.277344 386.835938 309.015625 384.269531 308.488281 382.417969 C 307.960938 380.5625 307.066406 379.25 305.804688 378.480469 C 304.542969 377.714844 302.820312 377.328125 300.636719 377.328125 C 298.300781 377.328125 296.21875 377.347656 294.394531 377.378906 C 292.566406 377.414062 290.789062 377.429688 289.058594 377.429688 L 285.949219 372.820312 C 288.097656 372.6875 290.363281 372.578125 292.757812 372.492188 C 295.148438 372.410156 297.773438 372.367188 300.636719 372.367188 "/>
<path fill-rule="nonzero" fill="rgb(28.199768%, 40.79895%, 39.199829%)" fill-opacity="1" d="M 347.519531 397.527344 L 327.464844 397.527344 L 327.464844 392.617188 L 347.519531 392.617188 Z M 340.96875 372.820312 C 341.570312 372.820312 342.09375 372.96875 342.546875 373.269531 C 343 373.570312 343.320312 373.972656 343.507812 374.472656 L 355.3125 407.402344 L 348.085938 407.402344 L 339.160156 380.738281 C 339.007812 380.203125 338.855469 379.667969 338.707031 379.132812 C 338.554688 378.601562 338.425781 378.082031 338.3125 377.582031 L 336.730469 377.582031 C 336.617188 378.082031 336.484375 378.601562 336.335938 379.132812 C 336.183594 379.667969 336.015625 380.203125 335.828125 380.738281 L 326.957031 407.402344 L 319.726562 407.402344 L 331.535156 374.472656 C 331.683594 373.972656 331.996094 373.570312 332.464844 373.269531 C 332.9375 372.96875 333.472656 372.820312 334.074219 372.820312 Z M 340.96875 372.820312 "/>
<path fill-rule="nonzero" fill="rgb(28.199768%, 40.79895%, 39.199829%)" fill-opacity="1" d="M 366.835938 372.820312 L 366.835938 399.382812 C 366.835938 400.355469 367.128906 401.078125 367.710938 401.5625 C 368.296875 402.050781 369.132812 402.289062 370.226562 402.289062 L 384.007812 402.289062 L 384.347656 407.050781 C 381.785156 407.253906 379.121094 407.378906 376.355469 407.429688 C 373.585938 407.476562 370.847656 407.503906 368.136719 407.503906 C 365.273438 407.503906 363.171875 406.851562 361.839844 405.546875 C 360.5 404.246094 359.832031 402.589844 359.832031 400.585938 L 359.832031 372.820312 Z M 366.835938 372.820312 "/>
<path fill-rule="nonzero" fill="rgb(28.199768%, 40.79895%, 39.199829%)" fill-opacity="1" d="M 396.546875 372.820312 L 396.546875 399.382812 C 396.546875 400.355469 396.839844 401.078125 397.425781 401.5625 C 398.007812 402.050781 398.84375 402.289062 399.9375 402.289062 L 413.71875 402.289062 L 414.058594 407.050781 C 411.496094 407.253906 408.832031 407.378906 406.066406 407.429688 C 403.296875 407.476562 400.558594 407.503906 397.847656 407.503906 C 394.984375 407.503906 392.886719 406.851562 391.550781 405.546875 C 390.210938 404.246094 389.542969 402.589844 389.542969 400.585938 L 389.542969 372.820312 Z M 396.546875 372.820312 "/>
<path fill-rule="nonzero" fill="rgb(28.199768%, 40.79895%, 39.199829%)" fill-opacity="1" d="M 426.316406 407.402344 L 419.367188 407.402344 L 419.367188 372.820312 L 426.316406 372.820312 Z M 433.714844 372.367188 C 436.953125 372.367188 439.578125 372.667969 441.59375 373.269531 C 443.609375 373.871094 445.078125 374.898438 446 376.351562 C 446.921875 377.804688 447.382812 379.851562 447.382812 382.492188 C 447.382812 384.230469 447.148438 385.707031 446.679688 386.929688 C 446.207031 388.148438 445.433594 389.117188 444.363281 389.835938 C 443.289062 390.554688 441.847656 391.011719 440.042969 391.214844 L 440.042969 391.464844 C 440.679688 391.597656 441.347656 391.859375 442.046875 392.242188 C 442.742188 392.625 443.382812 393.167969 443.964844 393.871094 C 444.550781 394.570312 444.992188 395.472656 445.292969 396.578125 L 448.851562 407.402344 L 441.398438 407.402344 L 438.175781 396.726562 C 437.761719 395.523438 437.199219 394.679688 436.480469 394.195312 C 435.765625 393.710938 434.789062 393.46875 433.546875 393.46875 C 431.097656 393.46875 429.007812 393.460938 427.277344 393.445312 C 425.542969 393.425781 424.101562 393.402344 422.953125 393.367188 C 421.804688 393.335938 420.796875 393.320312 419.933594 393.320312 L 420.101562 388.558594 L 433.546875 388.558594 C 435.238281 388.523438 436.578125 388.347656 437.554688 388.03125 C 438.535156 387.714844 439.230469 387.144531 439.644531 386.328125 C 440.058594 385.507812 440.265625 384.347656 440.265625 382.84375 C 440.265625 381.375 440.058594 380.234375 439.644531 379.433594 C 439.230469 378.632812 438.535156 378.074219 437.554688 377.757812 C 436.578125 377.4375 435.238281 377.28125 433.546875 377.28125 C 430.230469 377.28125 427.386719 377.296875 425.015625 377.328125 C 422.644531 377.363281 421.023438 377.394531 420.15625 377.429688 L 419.367188 372.820312 C 420.871094 372.6875 422.296875 372.585938 423.632812 372.519531 C 424.96875 372.449219 426.429688 372.410156 428.007812 372.394531 C 429.589844 372.375 431.492188 372.367188 433.714844 372.367188 "/>
</svg>
