<?xml version="1.0" encoding="UTF-8"?>
<svg xmlns="http://www.w3.org/2000/svg" xmlns:xlink="http://www.w3.org/1999/xlink" width="566.929pt" height="708.661pt" viewBox="0 0 566.929 708.661">
<path fill-rule="nonzero" fill="rgb(100%, 100%, 100%)" fill-opacity="1" d="M 379.628906 448.839844 L 182.585938 448.839844 L 182.585938 257.953125 L 379.628906 257.953125 Z M 379.628906 448.839844 "/>
<path fill-rule="nonzero" fill="rgb(28.199768%, 40.79895%, 39.199829%)" fill-opacity="1" d="M 285.300781 281.300781 L 285.003906 281.214844 L 284.699219 281.296875 C 279.230469 282.847656 272.003906 285.796875 264.835938 291.1875 C 270.8125 294.390625 277.203125 298.992188 282.992188 305.753906 C 288.074219 311.683594 291.410156 317.8125 293.65625 323.433594 C 302.847656 315.171875 312.640625 311.027344 319.75 309.007812 C 317.972656 305.753906 315.789062 302.429688 313 299.171875 C 303.785156 288.414062 292.851562 283.515625 285.300781 281.300781 "/>
<path fill-rule="nonzero" fill="rgb(28.199768%, 40.79895%, 39.199829%)" fill-opacity="1" d="M 368.339844 436.976562 L 362.613281 436.976562 L 362.613281 359.726562 L 362.597656 359.632812 C 361.308594 352.597656 358.019531 342.160156 349.640625 332.378906 C 343.191406 324.851562 335.921875 320.234375 329.539062 317.355469 C 330.476562 320.289062 331.152344 323.03125 331.585938 325.390625 L 331.695312 326.257812 L 331.695312 403.769531 L 325.972656 403.769531 L 325.972656 326.519531 L 325.953125 326.425781 C 325.351562 323.125 324.277344 319.058594 322.46875 314.679688 C 322.300781 314.628906 322.109375 314.558594 321.945312 314.507812 L 321.644531 314.421875 L 321.34375 314.503906 C 314.390625 316.476562 304.613281 320.660156 295.722656 329.328125 C 296.394531 331.636719 296.882812 333.785156 297.234375 335.699219 L 297.34375 336.5625 L 297.34375 414.074219 L 291.617188 414.074219 L 291.617188 336.824219 L 291.601562 336.730469 C 291.464844 335.992188 291.292969 335.195312 291.113281 334.386719 C 283.683594 343.507812 280.367188 353.019531 278.933594 359.59375 L 278.910156 359.703125 L 278.910156 436.976562 L 273.1875 436.976562 L 273.1875 359.09375 L 273.339844 358.382812 C 275.023438 350.644531 279.019531 339.195312 288.5 328.554688 C 288.734375 328.289062 288.980469 328.070312 289.21875 327.816406 C 287.210938 322.125 283.953125 315.671875 278.644531 309.476562 C 272.707031 302.546875 266.066406 298.066406 260.0625 295.152344 C 258.734375 296.390625 257.417969 297.710938 256.132812 299.15625 C 247.476562 308.871094 243.828125 319.324219 242.292969 326.386719 L 242.269531 326.496094 L 242.269531 403.769531 L 236.542969 403.769531 L 236.542969 325.886719 L 236.699219 325.175781 C 238.382812 317.4375 242.378906 305.988281 251.855469 295.347656 C 252.683594 294.417969 253.539062 293.597656 254.382812 292.746094 C 253.183594 292.3125 252.023438 291.921875 250.949219 291.605469 L 250.648438 291.519531 L 250.347656 291.605469 C 242.621094 293.792969 231.390625 298.671875 221.78125 309.460938 C 213.125 319.175781 209.476562 329.632812 207.9375 336.691406 L 207.917969 336.804688 L 207.917969 414.074219 L 202.191406 414.074219 L 202.191406 336.191406 L 202.34375 335.480469 C 204.027344 327.742188 208.023438 316.292969 217.503906 305.652344 C 228.03125 293.832031 240.328125 288.492188 248.789062 286.097656 L 250.675781 285.558594 L 252.5625 286.113281 C 254.546875 286.695312 256.753906 287.460938 259.085938 288.429688 C 267.667969 281.34375 276.5625 277.652344 283.140625 275.789062 L 285.027344 275.253906 L 286.914062 275.808594 C 295.207031 278.242188 307.21875 283.625 317.347656 295.445312 C 321.503906 300.300781 324.476562 305.285156 326.664062 310.019531 C 334.683594 312.824219 345.066406 318.234375 353.988281 328.652344 C 363.199219 339.40625 366.816406 350.875 368.226562 358.597656 L 368.339844 359.464844 Z M 368.339844 239.222656 L 199.375 239.222656 C 180.789062 239.222656 165.582031 254.429688 165.582031 273.015625 L 165.582031 441.980469 C 165.582031 460.570312 180.789062 475.773438 199.375 475.773438 L 368.339844 475.773438 C 386.925781 475.773438 402.132812 460.570312 402.132812 441.980469 L 402.132812 273.015625 C 402.132812 254.429688 386.925781 239.222656 368.339844 239.222656 "/>
</svg>
