<?xml version="1.0" encoding="UTF-8"?>
<svg xmlns="http://www.w3.org/2000/svg" xmlns:xlink="http://www.w3.org/1999/xlink" width="566.929pt" height="708.661pt" viewBox="0 0 566.929 708.661">
<defs>
<clipPath id="clip-0">
<path clip-rule="nonzero" d="M 0.101562 0 L 566.757812 0 L 566.757812 708.320312 L 0.101562 708.320312 Z M 0.101562 0 "/>
</clipPath>
</defs>
<g clip-path="url(#clip-0)">
<path fill-rule="nonzero" fill="rgb(100%, 100%, 100%)" fill-opacity="1" d="M 0.101562 708.320312 L 566.757812 708.320312 L 566.757812 0 L 0.101562 0 Z M 0.101562 708.320312 "/>
</g>
<path fill-rule="nonzero" fill="rgb(28.199768%, 40.79895%, 39.199829%)" fill-opacity="1" d="M 311.066406 370.496094 L 307.71875 370.496094 L 307.71875 325.382812 L 307.710938 325.328125 C 306.957031 321.21875 305.035156 315.125 300.136719 309.410156 C 294.753906 303.132812 288.363281 300.269531 283.949219 298.976562 L 283.777344 298.925781 L 283.601562 298.976562 C 279.085938 300.253906 272.519531 303.101562 266.90625 309.402344 C 261.847656 315.078125 259.714844 321.183594 258.816406 325.304688 L 258.800781 325.371094 L 258.800781 370.496094 L 255.457031 370.496094 L 255.457031 325.011719 L 255.546875 324.597656 C 256.53125 320.078125 258.867188 313.394531 264.40625 307.179688 C 270.558594 300.273438 277.742188 297.15625 282.6875 295.757812 L 283.792969 295.445312 L 284.894531 295.769531 C 289.742188 297.191406 296.761719 300.332031 302.679688 307.238281 C 308.0625 313.515625 310.175781 320.210938 311 324.726562 L 311.066406 325.230469 Z M 311.066406 370.496094 "/>
<path fill-rule="nonzero" fill="rgb(28.199768%, 40.79895%, 39.199829%)" fill-opacity="1" d="M 332.480469 389.890625 L 329.132812 389.890625 L 329.132812 344.777344 L 329.125 344.722656 C 328.371094 340.613281 326.449219 334.515625 321.554688 328.804688 C 316.167969 322.523438 309.777344 319.664062 305.367188 318.371094 L 305.191406 318.316406 L 305.015625 318.367188 C 300.5 319.648438 293.9375 322.492188 288.320312 328.796875 C 283.261719 334.46875 281.128906 340.574219 280.230469 344.699219 L 280.214844 344.761719 L 280.214844 389.890625 L 276.871094 389.890625 L 276.871094 344.40625 L 276.960938 343.992188 C 277.945312 339.472656 280.28125 332.785156 285.820312 326.570312 C 291.972656 319.667969 299.160156 316.550781 304.101562 315.152344 L 305.207031 314.839844 L 306.308594 315.160156 C 311.15625 316.582031 318.175781 319.726562 324.09375 326.628906 C 329.476562 332.910156 331.589844 339.605469 332.414062 344.117188 L 332.480469 344.625 Z M 332.480469 389.890625 "/>
<path fill-rule="nonzero" fill="rgb(28.199768%, 40.79895%, 39.199829%)" fill-opacity="1" d="M 290.988281 376.515625 L 287.644531 376.515625 L 287.644531 331.402344 L 287.632812 331.347656 C 286.882812 327.238281 284.957031 321.140625 280.0625 315.429688 C 274.675781 309.148438 268.289062 306.289062 263.875 304.996094 L 263.699219 304.941406 L 263.523438 304.992188 C 259.007812 306.273438 252.445312 309.121094 246.828125 315.421875 C 241.769531 321.09375 239.636719 327.199219 238.738281 331.324219 L 238.726562 331.390625 L 238.726562 376.515625 L 235.378906 376.515625 L 235.378906 331.03125 L 235.46875 330.617188 C 236.453125 326.097656 238.789062 319.414062 244.328125 313.199219 C 250.484375 306.292969 257.667969 303.175781 262.613281 301.777344 L 263.714844 301.464844 L 264.816406 301.785156 C 269.664062 303.207031 276.683594 306.351562 282.601562 313.253906 C 287.984375 319.535156 290.097656 326.230469 290.925781 330.742188 L 290.988281 331.25 Z M 290.988281 376.515625 "/>
<path fill-rule="nonzero" fill="rgb(28.199768%, 40.79895%, 39.199829%)" fill-opacity="1" d="M 175.71875 292.296875 L 180.308594 294.199219 L 173.832031 309.832031 L 169.242188 307.929688 Z M 165.433594 280.980469 L 197.742188 294.371094 L 195.007812 300.972656 L 162.695312 287.582031 Z M 156.632812 302.210938 L 188.941406 315.601562 L 186.207031 322.199219 L 153.898438 308.8125 Z M 156.632812 302.210938 "/>
<path fill-rule="nonzero" fill="rgb(28.199768%, 40.79895%, 39.199829%)" fill-opacity="1" d="M 186.449219 275.257812 L 201.359375 258.378906 L 204.855469 261.46875 L 189.945312 278.347656 Z M 180.316406 260.382812 C 181.628906 258.898438 182.972656 257.378906 184.347656 255.820312 C 185.722656 254.265625 187.101562 252.75 188.492188 251.28125 C 189.878906 249.8125 191.214844 248.453125 192.503906 247.199219 L 195.808594 250.578125 L 185.589844 262.144531 C 184.882812 262.945312 184.539062 263.695312 184.550781 264.390625 C 184.566406 265.089844 184.953125 265.777344 185.714844 266.449219 L 199.996094 279.066406 C 200.757812 279.734375 201.484375 280.035156 202.179688 279.960938 C 202.875 279.890625 203.574219 279.453125 204.28125 278.652344 L 214.5 267.085938 L 218.257812 269.949219 C 217.175781 271.382812 215.984375 272.871094 214.683594 274.417969 C 213.382812 275.96875 212.050781 277.523438 210.691406 279.089844 C 209.328125 280.660156 207.992188 282.1875 206.679688 283.671875 C 205.066406 285.5 203.320312 286.566406 201.453125 286.871094 C 199.582031 287.179688 197.875 286.671875 196.328125 285.359375 L 179.917969 270.863281 C 178.421875 269.492188 177.714844 267.859375 177.785156 265.964844 C 177.859375 264.074219 178.703125 262.210938 180.316406 260.382812 "/>
<path fill-rule="nonzero" fill="rgb(28.199768%, 40.79895%, 39.199829%)" fill-opacity="1" d="M 208.332031 235.082031 L 228.761719 263.46875 L 222.960938 267.640625 L 202.535156 239.257812 Z M 208.332031 235.082031 "/>
<path fill-rule="nonzero" fill="rgb(28.199768%, 40.79895%, 39.199829%)" fill-opacity="1" d="M 259.59375 212.914062 C 261.296875 212.363281 262.417969 212.855469 262.949219 214.386719 L 274.382812 244.894531 L 267.90625 246.976562 L 257.429688 218.878906 L 256.394531 219.210938 L 256.5625 243.8125 C 256.660156 245.234375 255.945312 246.191406 254.421875 246.683594 L 249.632812 248.222656 C 248.074219 248.722656 246.902344 248.375 246.113281 247.171875 L 231.90625 227.089844 L 230.875 227.421875 L 238.847656 256.324219 L 232.375 258.40625 L 223.878906 226.957031 C 223.453125 225.390625 224.078125 224.335938 225.746094 223.800781 L 232.546875 221.613281 C 234 221.144531 235.117188 221.511719 235.90625 222.714844 L 247.539062 239.097656 C 248.042969 239.789062 248.5 240.496094 248.910156 241.210938 C 249.324219 241.933594 249.761719 242.644531 250.226562 243.347656 L 251.042969 243.082031 C 251.011719 242.242188 250.960938 241.40625 250.898438 240.574219 C 250.828125 239.746094 250.777344 238.890625 250.734375 238.015625 L 250.652344 217.972656 C 250.554688 216.546875 251.265625 215.589844 252.789062 215.101562 Z M 259.59375 212.914062 "/>
<path fill-rule="nonzero" fill="rgb(28.199768%, 40.79895%, 39.199829%)" fill-opacity="1" d="M 290.230469 211.832031 L 286.609375 246.617188 L 279.5 245.878906 L 283.125 211.09375 Z M 297.953125 212.179688 C 300.910156 212.488281 303.390625 213.042969 305.394531 213.847656 C 307.398438 214.648438 308.964844 215.796875 310.09375 217.292969 C 311.222656 218.785156 311.949219 220.710938 312.28125 223.074219 C 312.609375 225.433594 312.59375 228.3125 312.242188 231.707031 C 311.890625 235.101562 311.308594 237.921875 310.5 240.164062 C 309.691406 242.40625 308.582031 244.140625 307.167969 245.371094 C 305.757812 246.601562 303.988281 247.402344 301.863281 247.773438 C 299.734375 248.148438 297.191406 248.179688 294.238281 247.871094 C 291.394531 247.578125 288.761719 247.257812 286.347656 246.921875 C 283.929688 246.585938 281.648438 246.238281 279.5 245.878906 L 282.960938 241.347656 C 284.46875 241.574219 286.207031 241.8125 288.171875 242.066406 C 290.140625 242.324219 292.335938 242.578125 294.761719 242.832031 C 296.960938 243.058594 298.734375 242.863281 300.082031 242.238281 C 301.429688 241.613281 302.464844 240.398438 303.191406 238.589844 C 303.917969 236.777344 304.453125 234.226562 304.792969 230.929688 C 305.136719 227.636719 305.140625 225.03125 304.804688 223.109375 C 304.464844 221.1875 303.703125 219.777344 302.515625 218.871094 C 301.324219 217.96875 299.632812 217.398438 297.433594 217.171875 C 295.082031 216.925781 292.988281 216.726562 291.144531 216.566406 C 289.300781 216.410156 287.511719 216.238281 285.765625 216.058594 L 283.125 211.09375 C 285.296875 211.183594 287.59375 211.3125 290.007812 211.480469 C 292.425781 211.648438 295.074219 211.878906 297.953125 212.179688 "/>
<path fill-rule="nonzero" fill="rgb(28.199768%, 40.79895%, 39.199829%)" fill-opacity="1" d="M 342.761719 247.699219 L 340.597656 252.171875 L 322.332031 243.335938 L 324.492188 238.863281 Z M 345.507812 226.789062 C 346.058594 227.054688 346.472656 227.421875 346.75 227.898438 C 347.03125 228.371094 347.144531 228.875 347.097656 229.414062 L 343.351562 264.59375 L 336.765625 261.410156 L 340.375 233.203125 C 340.472656 232.648438 340.570312 232.09375 340.667969 231.542969 C 340.769531 230.988281 340.875 230.460938 340.992188 229.953125 L 339.554688 229.257812 C 339.230469 229.664062 338.878906 230.078125 338.507812 230.496094 C 338.136719 230.917969 337.746094 231.328125 337.339844 231.734375 L 317.519531 252.097656 L 310.933594 248.914062 L 336.1875 224.136719 C 336.542969 223.75 337.003906 223.519531 337.566406 223.453125 C 338.125 223.386719 338.683594 223.488281 339.234375 223.753906 Z M 345.507812 226.789062 "/>
<path fill-rule="nonzero" fill="rgb(28.199768%, 40.79895%, 39.199829%)" fill-opacity="1" d="M 373.691406 246.238281 L 355.214844 265.734375 C 354.539062 266.445312 354.246094 267.183594 354.339844 267.945312 C 354.429688 268.707031 354.878906 269.46875 355.679688 270.230469 L 365.804688 279.824219 L 362.742188 283.554688 C 360.71875 281.917969 358.675781 280.15625 356.605469 278.265625 C 354.539062 276.375 352.511719 274.488281 350.519531 272.601562 C 348.417969 270.605469 347.328125 268.667969 347.253906 266.78125 C 347.175781 264.894531 347.835938 263.214844 349.230469 261.742188 L 368.546875 241.363281 Z M 373.691406 246.238281 "/>
<path fill-rule="nonzero" fill="rgb(28.199768%, 40.79895%, 39.199829%)" fill-opacity="1" d="M 397.722656 274.714844 L 374.613281 288.414062 C 373.769531 288.914062 373.289062 289.542969 373.167969 290.300781 C 373.046875 291.058594 373.269531 291.914062 373.835938 292.863281 L 380.945312 304.863281 L 376.980469 307.613281 C 375.480469 305.484375 374 303.230469 372.527344 300.847656 C 371.054688 298.464844 369.621094 296.09375 368.222656 293.734375 C 366.746094 291.242188 366.226562 289.078125 366.671875 287.242188 C 367.117188 285.40625 368.210938 283.972656 369.953125 282.9375 L 394.109375 268.621094 Z M 397.722656 274.714844 "/>
<path fill-rule="nonzero" fill="rgb(28.199768%, 40.79895%, 39.199829%)" fill-opacity="1" d="M 415.511719 316.757812 C 416.246094 319.953125 416.546875 322.613281 416.410156 324.734375 C 416.277344 326.855469 415.597656 328.539062 414.371094 329.777344 C 413.148438 331.019531 411.238281 331.9375 408.636719 332.535156 C 406.921875 332.929688 405.414062 333.03125 404.105469 332.84375 C 402.792969 332.65625 401.664062 332.117188 400.714844 331.21875 C 399.761719 330.324219 398.984375 329.007812 398.375 327.269531 L 398.128906 327.328125 C 398.140625 327.988281 398.039062 328.707031 397.816406 329.480469 C 397.597656 330.253906 397.207031 331.007812 396.648438 331.746094 C 396.089844 332.480469 395.300781 333.121094 394.28125 333.667969 L 384.417969 339.632812 L 382.726562 332.277344 L 392.519531 326.683594 C 393.609375 326 394.3125 325.253906 394.628906 324.4375 C 394.945312 323.621094 394.960938 322.601562 394.679688 321.375 C 394.125 318.960938 393.65625 316.898438 393.28125 315.1875 C 392.90625 313.472656 392.601562 312.046875 392.375 310.90625 C 392.144531 309.765625 391.933594 308.769531 391.738281 307.914062 L 396.46875 307.003906 L 399.519531 320.261719 C 399.9375 321.925781 400.414062 323.203125 400.949219 324.097656 C 401.484375 324.992188 402.199219 325.550781 403.101562 325.773438 C 404 325.996094 405.195312 325.9375 406.675781 325.597656 C 408.125 325.261719 409.199219 324.800781 409.894531 324.210938 C 410.589844 323.621094 410.984375 322.804688 411.074219 321.769531 C 411.164062 320.730469 411.019531 319.375 410.632812 317.707031 C 409.882812 314.4375 409.21875 311.636719 408.648438 309.304688 C 408.078125 306.972656 407.675781 305.382812 407.449219 304.535156 L 411.8125 302.710938 C 412.285156 304.167969 412.707031 305.546875 413.078125 306.847656 C 413.445312 308.152344 413.820312 309.582031 414.195312 311.136719 C 414.570312 312.695312 415.007812 314.566406 415.511719 316.757812 M 413.390625 309.5625 L 379.304688 317.402344 L 377.730469 310.550781 L 411.8125 302.710938 Z M 413.390625 309.5625 "/>
<path fill-rule="nonzero" fill="rgb(28.199768%, 40.79895%, 39.199829%)" fill-opacity="1" d="M 394.121094 396.03125 L 389.460938 394.316406 L 395.308594 378.4375 L 399.96875 380.15625 Z M 412.796875 385.367188 L 379.980469 373.277344 L 382.449219 366.574219 L 415.265625 378.660156 Z M 404.855469 406.929688 L 372.035156 394.84375 L 374.503906 388.136719 L 407.324219 400.222656 Z M 404.855469 406.929688 "/>
<path fill-rule="nonzero" fill="rgb(28.199768%, 40.79895%, 39.199829%)" fill-opacity="1" d="M 384.078125 413.484375 L 369.847656 430.941406 L 366.234375 427.996094 L 380.464844 410.539062 Z M 390.796875 428.105469 C 389.546875 429.640625 388.261719 431.214844 386.949219 432.824219 C 385.636719 434.433594 384.316406 436 382.988281 437.523438 C 381.660156 439.046875 380.375 440.457031 379.140625 441.761719 L 375.703125 438.515625 L 385.457031 426.554688 C 386.132812 425.730469 386.445312 424.964844 386.40625 424.269531 C 386.363281 423.570312 385.949219 422.902344 385.164062 422.261719 L 370.394531 410.21875 C 369.609375 409.578125 368.871094 409.308594 368.175781 409.40625 C 367.484375 409.507812 366.804688 409.96875 366.128906 410.796875 L 356.375 422.757812 L 352.503906 420.046875 C 353.53125 418.574219 354.664062 417.039062 355.902344 415.441406 C 357.140625 413.84375 358.40625 412.234375 359.707031 410.613281 C 361.007812 408.992188 362.28125 407.414062 363.53125 405.878906 C 365.074219 403.988281 366.773438 402.851562 368.628906 402.476562 C 370.488281 402.09375 372.214844 402.53125 373.808594 403.785156 L 390.78125 417.621094 C 392.328125 418.929688 393.101562 420.53125 393.105469 422.429688 C 393.105469 424.324219 392.339844 426.214844 390.796875 428.105469 "/>
<path fill-rule="nonzero" fill="rgb(28.199768%, 40.79895%, 39.199829%)" fill-opacity="1" d="M 363.808594 454.492188 L 342.269531 426.9375 L 347.898438 422.535156 L 369.4375 450.09375 Z M 363.808594 454.492188 "/>
<path fill-rule="nonzero" fill="rgb(28.199768%, 40.79895%, 39.199829%)" fill-opacity="1" d="M 313.46875 478.691406 C 311.785156 479.308594 310.648438 478.859375 310.054688 477.351562 L 297.410156 447.328125 L 303.796875 444.988281 L 315.390625 472.640625 L 316.410156 472.269531 L 315.261719 447.695312 C 315.105469 446.277344 315.78125 445.292969 317.285156 444.742188 L 322.007812 443.011719 C 323.546875 442.449219 324.734375 442.75 325.566406 443.921875 L 340.5625 463.417969 L 341.585938 463.046875 L 332.460938 434.484375 L 338.847656 432.144531 L 348.59375 463.230469 C 349.078125 464.78125 348.5 465.855469 346.851562 466.460938 L 340.144531 468.917969 C 338.714844 469.441406 337.578125 469.117188 336.746094 467.949219 L 324.464844 452.042969 C 323.9375 451.375 323.449219 450.6875 323.011719 449.984375 C 322.570312 449.28125 322.105469 448.589844 321.609375 447.90625 L 320.804688 448.203125 C 320.867188 449.042969 320.953125 449.875 321.050781 450.703125 C 321.152344 451.53125 321.238281 452.378906 321.316406 453.25 L 322.199219 473.277344 C 322.355469 474.699219 321.679688 475.683594 320.175781 476.234375 Z M 313.46875 478.691406 "/>
<path fill-rule="nonzero" fill="rgb(28.199768%, 40.79895%, 39.199829%)" fill-opacity="1" d="M 282.859375 480.976562 L 285.113281 446.078125 L 292.246094 446.535156 L 289.992188 481.4375 Z M 275.128906 480.933594 C 272.164062 480.746094 269.664062 480.285156 267.628906 479.5625 C 265.59375 478.835938 263.984375 477.753906 262.796875 476.304688 C 261.613281 474.855469 260.808594 472.960938 260.386719 470.613281 C 259.964844 468.265625 259.863281 465.390625 260.085938 461.984375 C 260.304688 458.578125 260.773438 455.738281 261.492188 453.464844 C 262.214844 451.191406 263.253906 449.414062 264.617188 448.132812 C 265.980469 446.847656 267.714844 445.976562 269.824219 445.519531 C 271.9375 445.066406 274.476562 444.933594 277.441406 445.125 C 280.292969 445.308594 282.933594 445.519531 285.363281 445.761719 C 287.792969 446.003906 290.085938 446.261719 292.246094 446.535156 L 288.964844 451.203125 C 287.449219 451.035156 285.703125 450.863281 283.726562 450.683594 C 281.753906 450.507812 279.550781 450.339844 277.117188 450.183594 C 274.910156 450.039062 273.144531 450.308594 271.820312 450.984375 C 270.5 451.660156 269.511719 452.917969 268.855469 454.753906 C 268.203125 456.589844 267.769531 459.160156 267.558594 462.464844 C 267.34375 465.769531 267.445312 468.375 267.855469 470.28125 C 268.265625 472.1875 269.085938 473.570312 270.308594 474.425781 C 271.53125 475.285156 273.25 475.785156 275.453125 475.929688 C 277.8125 476.082031 279.914062 476.199219 281.757812 476.285156 C 283.605469 476.371094 285.40625 476.46875 287.152344 476.582031 L 289.992188 481.4375 C 287.8125 481.433594 285.515625 481.394531 283.09375 481.324219 C 280.675781 481.25 278.019531 481.121094 275.128906 480.933594 "/>
<path fill-rule="nonzero" fill="rgb(28.199768%, 40.79895%, 39.199829%)" fill-opacity="1" d="M 228.957031 447.21875 L 230.941406 442.664062 L 249.546875 450.773438 L 247.5625 455.324219 Z M 227.039062 468.222656 C 226.480469 467.980469 226.054688 467.628906 225.753906 467.164062 C 225.457031 466.703125 225.324219 466.203125 225.351562 465.664062 L 227.699219 430.363281 L 234.40625 433.285156 L 231.917969 461.613281 C 231.839844 462.167969 231.765625 462.726562 231.6875 463.28125 C 231.613281 463.835938 231.523438 464.371094 231.425781 464.882812 L 232.894531 465.523438 C 233.203125 465.101562 233.535156 464.675781 233.890625 464.238281 C 234.246094 463.804688 234.617188 463.378906 235.007812 462.957031 L 254.003906 441.824219 L 260.714844 444.746094 L 236.460938 470.503906 C 236.117188 470.90625 235.667969 471.152344 235.109375 471.242188 C 234.550781 471.328125 233.992188 471.253906 233.433594 471.007812 Z M 227.039062 468.222656 "/>
<path fill-rule="nonzero" fill="rgb(28.199768%, 40.79895%, 39.199829%)" fill-opacity="1" d="M 198.128906 449.917969 L 215.824219 429.703125 C 216.46875 428.964844 216.730469 428.21875 216.609375 427.460938 C 216.484375 426.703125 216.011719 425.960938 215.179688 425.230469 L 204.683594 416.042969 L 207.597656 412.195312 C 209.679688 413.75 211.792969 415.429688 213.933594 417.238281 C 216.074219 419.042969 218.175781 420.851562 220.242188 422.660156 C 222.421875 424.566406 223.585938 426.460938 223.734375 428.34375 C 223.886719 430.226562 223.292969 431.933594 221.957031 433.457031 L 203.460938 454.585938 Z M 198.128906 449.917969 "/>
<path fill-rule="nonzero" fill="rgb(28.199768%, 40.79895%, 39.199829%)" fill-opacity="1" d="M 172.980469 422.394531 L 195.53125 407.792969 C 196.351562 407.257812 196.808594 406.613281 196.898438 405.851562 C 196.988281 405.089844 196.734375 404.246094 196.132812 403.316406 L 188.550781 391.609375 L 192.40625 388.703125 C 193.988281 390.769531 195.558594 392.964844 197.121094 395.285156 C 198.6875 397.609375 200.214844 399.925781 201.707031 402.226562 C 203.28125 404.65625 203.882812 406.800781 203.511719 408.652344 C 203.140625 410.503906 202.105469 411.980469 200.402344 413.082031 L 176.832031 428.34375 Z M 172.980469 422.394531 "/>
<path fill-rule="nonzero" fill="rgb(28.199768%, 40.79895%, 39.199829%)" fill-opacity="1" d="M 155.957031 388.242188 L 189.699219 379.042969 L 191.550781 385.824219 L 157.808594 395.027344 Z M 153.546875 381.140625 C 152.6875 377.976562 152.277344 375.332031 152.332031 373.207031 C 152.378906 371.078125 152.992188 369.371094 154.164062 368.082031 C 155.335938 366.796875 157.210938 365.800781 159.785156 365.101562 C 161.480469 364.636719 162.988281 364.472656 164.300781 364.609375 C 165.617188 364.742188 166.765625 365.238281 167.753906 366.097656 C 168.742188 366.953125 169.574219 368.234375 170.25 369.949219 L 170.496094 369.882812 C 170.453125 369.222656 170.53125 368.5 170.71875 367.714844 C 170.910156 366.9375 171.265625 366.167969 171.796875 365.410156 C 172.324219 364.652344 173.089844 363.980469 174.082031 363.390625 L 183.699219 357.039062 L 185.683594 364.316406 L 176.125 370.300781 C 175.0625 371.027344 174.390625 371.800781 174.105469 372.628906 C 173.824219 373.457031 173.847656 374.476562 174.179688 375.691406 C 174.832031 378.082031 175.382812 380.121094 175.824219 381.820312 C 176.269531 383.515625 176.628906 384.925781 176.902344 386.054688 C 177.175781 387.1875 177.425781 388.175781 177.65625 389.019531 L 172.96875 390.121094 L 169.386719 376.996094 C 168.90625 375.351562 168.378906 374.09375 167.808594 373.222656 C 167.234375 372.351562 166.496094 371.820312 165.585938 371.632812 C 164.679688 371.449219 163.488281 371.554688 162.023438 371.953125 C 160.589844 372.347656 159.535156 372.851562 158.863281 373.46875 C 158.191406 374.085938 157.832031 374.914062 157.78125 375.957031 C 157.734375 376.996094 157.933594 378.34375 158.386719 379.996094 C 159.269531 383.234375 160.042969 386.003906 160.707031 388.3125 C 161.371094 390.621094 161.832031 392.191406 162.097656 393.027344 L 157.808594 395.027344 C 157.277344 393.59375 156.800781 392.230469 156.378906 390.941406 C 155.957031 389.65625 155.527344 388.242188 155.09375 386.703125 C 154.652344 385.164062 154.140625 383.308594 153.546875 381.140625 "/>
<path fill-rule="nonzero" fill="rgb(28.199768%, 40.79895%, 39.199829%)" fill-opacity="1" d="M 165.445312 337.839844 C 165.445312 339.496094 164.105469 340.835938 162.449219 340.835938 C 160.792969 340.835938 159.449219 339.496094 159.449219 337.839844 C 159.449219 336.183594 160.792969 334.839844 162.449219 334.839844 C 164.105469 334.839844 165.445312 336.183594 165.445312 337.839844 "/>
<path fill-rule="nonzero" fill="rgb(28.199768%, 40.79895%, 39.199829%)" fill-opacity="1" d="M 406.332031 350.832031 C 406.332031 352.488281 404.988281 353.832031 403.332031 353.832031 C 401.675781 353.832031 400.332031 352.488281 400.332031 350.832031 C 400.332031 349.175781 401.675781 347.832031 403.332031 347.832031 C 404.988281 347.832031 406.332031 349.175781 406.332031 350.832031 "/>
</svg>
