<?xml version="1.0" encoding="UTF-8"?>
<svg xmlns="http://www.w3.org/2000/svg" xmlns:xlink="http://www.w3.org/1999/xlink" width="566.929pt" height="708.661pt" viewBox="0 0 566.929 708.661">
<defs>
<clipPath id="clip-0">
<path clip-rule="nonzero" d="M 0.101562 0 L 566.757812 0 L 566.757812 708.320312 L 0.101562 708.320312 Z M 0.101562 0 "/>
</clipPath>
</defs>
<g clip-path="url(#clip-0)">
<path fill-rule="nonzero" fill="rgb(28.199768%, 40.79895%, 39.199829%)" fill-opacity="1" d="M 0.101562 708.320312 L 566.757812 708.320312 L 566.757812 0 L 0.101562 0 Z M 0.101562 708.320312 "/>
</g>
<path fill-rule="nonzero" fill="rgb(100%, 100%, 100%)" fill-opacity="1" d="M 168.828125 372.496094 L 165.484375 372.496094 L 165.484375 327.382812 L 165.472656 327.328125 C 164.722656 323.21875 162.800781 317.125 157.90625 311.410156 C 152.527344 305.132812 146.140625 302.269531 141.730469 300.976562 L 141.558594 300.925781 L 141.382812 300.972656 C 136.871094 302.253906 130.3125 305.101562 124.699219 311.402344 C 119.644531 317.074219 117.511719 323.179688 116.617188 327.304688 L 116.601562 327.371094 L 116.601562 372.496094 L 113.257812 372.496094 L 113.257812 327.011719 L 113.347656 326.597656 C 114.332031 322.078125 116.664062 315.394531 122.203125 309.179688 C 128.351562 302.273438 135.53125 299.15625 140.46875 297.757812 L 141.574219 297.445312 L 142.675781 297.765625 C 147.515625 299.1875 154.53125 302.332031 160.445312 309.234375 C 165.824219 315.515625 167.9375 322.210938 168.761719 326.722656 L 168.828125 327.230469 Z M 168.828125 372.496094 "/>
<path fill-rule="nonzero" fill="rgb(100%, 100%, 100%)" fill-opacity="1" d="M 190.226562 391.886719 L 186.882812 391.886719 L 186.882812 346.777344 L 186.871094 346.722656 C 186.121094 342.609375 184.199219 336.515625 179.304688 330.804688 C 173.925781 324.523438 167.539062 321.660156 163.128906 320.367188 L 162.957031 320.316406 L 162.78125 320.367188 C 158.269531 321.644531 151.710938 324.492188 146.097656 330.792969 C 141.042969 336.46875 138.914062 342.574219 138.015625 346.695312 L 138 346.761719 L 138 391.886719 L 134.65625 391.886719 L 134.65625 346.40625 L 134.746094 345.988281 C 135.730469 341.472656 138.066406 334.785156 143.601562 328.570312 C 149.75 321.667969 156.929688 318.550781 161.871094 317.148438 L 162.972656 316.835938 L 164.074219 317.160156 C 168.914062 318.582031 175.929688 321.726562 181.847656 328.628906 C 187.222656 334.90625 189.335938 341.605469 190.160156 346.117188 L 190.226562 346.621094 Z M 190.226562 391.886719 "/>
<path fill-rule="nonzero" fill="rgb(100%, 100%, 100%)" fill-opacity="1" d="M 148.765625 378.515625 L 145.421875 378.515625 L 145.421875 333.402344 L 145.410156 333.347656 C 144.660156 329.238281 142.738281 323.140625 137.847656 317.429688 C 132.464844 311.148438 126.082031 308.289062 121.671875 306.996094 L 121.496094 306.941406 L 121.320312 306.992188 C 116.808594 308.273438 110.25 311.117188 104.636719 317.421875 C 99.582031 323.09375 97.453125 329.199219 96.554688 333.324219 L 96.539062 333.386719 L 96.539062 378.515625 L 93.195312 378.515625 L 93.195312 333.03125 L 93.289062 332.613281 C 94.269531 328.097656 96.605469 321.410156 102.140625 315.195312 C 108.289062 308.292969 115.46875 305.175781 120.410156 303.777344 L 121.511719 303.464844 L 122.613281 303.785156 C 127.457031 305.207031 134.472656 308.351562 140.386719 315.253906 C 145.765625 321.535156 147.875 328.230469 148.699219 332.742188 L 148.765625 333.25 Z M 148.765625 378.515625 "/>
<path fill-rule="nonzero" fill="rgb(100%, 100%, 100%)" fill-opacity="1" d="M 235.710938 367.09375 L 229.28125 367.09375 L 229.28125 335.585938 L 235.710938 335.585938 Z M 229.847656 352.527344 L 214.613281 352.527344 L 214.613281 348.050781 L 229.847656 348.050781 Z M 215.023438 367.09375 L 208.589844 367.09375 L 208.589844 335.585938 L 215.023438 335.585938 Z M 215.023438 367.09375 "/>
<path fill-rule="nonzero" fill="rgb(100%, 100%, 100%)" fill-opacity="1" d="M 244.253906 348.507812 L 264.53125 348.507812 L 264.53125 352.707031 L 244.253906 352.707031 Z M 250.636719 335.492188 L 256.117188 335.492188 C 257.988281 335.492188 259.832031 335.523438 261.648438 335.585938 C 263.46875 335.644531 265.183594 335.738281 266.796875 335.859375 L 266.488281 340.105469 L 252.59375 340.105469 C 251.632812 340.105469 250.917969 340.316406 250.457031 340.742188 C 249.992188 341.171875 249.761719 341.839844 249.761719 342.753906 L 249.761719 359.921875 C 249.761719 360.835938 249.992188 361.507812 250.457031 361.933594 C 250.917969 362.359375 251.632812 362.574219 252.59375 362.574219 L 266.488281 362.574219 L 266.796875 366.820312 C 265.183594 366.941406 263.46875 367.023438 261.648438 367.070312 C 259.832031 367.117188 257.988281 367.144531 256.117188 367.160156 C 254.246094 367.175781 252.421875 367.183594 250.636719 367.183594 C 248.441406 367.183594 246.683594 366.644531 245.363281 365.5625 C 244.039062 364.484375 243.363281 363.03125 243.328125 361.203125 L 243.328125 341.476562 C 243.363281 339.648438 244.039062 338.195312 245.363281 337.113281 C 246.683594 336.035156 248.441406 335.492188 250.636719 335.492188 "/>
<path fill-rule="nonzero" fill="rgb(100%, 100%, 100%)" fill-opacity="1" d="M 279.40625 367.09375 L 272.972656 367.09375 L 272.972656 335.585938 L 279.40625 335.585938 Z M 279.40625 367.09375 "/>
<path fill-rule="nonzero" fill="rgb(100%, 100%, 100%)" fill-opacity="1" d="M 322.476562 335.585938 C 324.089844 335.585938 324.914062 336.3125 324.949219 337.773438 L 326.339844 367.09375 L 320.214844 367.09375 L 318.976562 340.105469 L 318 340.105469 L 311.363281 361.246094 C 311.054688 362.496094 310.179688 363.121094 308.738281 363.121094 L 304.207031 363.121094 C 302.734375 363.121094 301.824219 362.496094 301.480469 361.246094 L 294.84375 340.105469 L 293.863281 340.105469 L 292.730469 367.09375 L 286.609375 367.09375 L 288 337.773438 C 288.066406 336.3125 288.890625 335.585938 290.46875 335.585938 L 296.902344 335.585938 C 298.273438 335.585938 299.132812 336.207031 299.472656 337.457031 L 304.929688 354.71875 C 305.167969 355.449219 305.367188 356.179688 305.523438 356.910156 C 305.675781 357.640625 305.855469 358.371094 306.0625 359.101562 L 306.832031 359.101562 C 307.039062 358.371094 307.226562 357.640625 307.398438 356.910156 C 307.570312 356.179688 307.761719 355.433594 307.964844 354.671875 L 313.421875 337.457031 C 313.730469 336.207031 314.605469 335.585938 316.046875 335.585938 Z M 322.476562 335.585938 "/>
<path fill-rule="nonzero" fill="rgb(100%, 100%, 100%)" fill-opacity="1" d="M 340.027344 367.09375 L 333.59375 367.09375 L 333.59375 335.585938 L 340.027344 335.585938 Z M 346.972656 335.171875 C 349.648438 335.171875 351.921875 335.441406 353.792969 335.972656 C 355.660156 336.503906 357.171875 337.386719 358.320312 338.621094 C 359.46875 339.851562 360.304688 341.511719 360.816406 343.597656 C 361.332031 345.683594 361.589844 348.265625 361.589844 351.339844 C 361.589844 354.414062 361.332031 356.996094 360.816406 359.078125 C 360.304688 361.164062 359.46875 362.824219 358.320312 364.054688 C 357.171875 365.289062 355.660156 366.171875 353.792969 366.707031 C 351.921875 367.238281 349.648438 367.503906 346.972656 367.503906 C 344.398438 367.503906 342.015625 367.464844 339.820312 367.390625 C 337.625 367.3125 335.546875 367.214844 333.59375 367.09375 L 336.269531 362.710938 C 337.640625 362.769531 339.21875 362.824219 341.003906 362.867188 C 342.789062 362.914062 344.777344 362.9375 346.972656 362.9375 C 348.964844 362.9375 350.53125 362.59375 351.683594 361.910156 C 352.832031 361.226562 353.644531 360.039062 354.128906 358.347656 C 354.605469 356.660156 354.847656 354.324219 354.847656 351.339844 C 354.847656 348.355469 354.605469 346.019531 354.128906 344.328125 C 353.644531 342.640625 352.832031 341.445312 351.683594 340.742188 C 350.53125 340.042969 348.964844 339.695312 346.972656 339.695312 C 344.84375 339.695312 342.949219 339.710938 341.285156 339.738281 C 339.621094 339.769531 338 339.785156 336.425781 339.785156 L 333.59375 335.585938 C 335.546875 335.460938 337.617188 335.363281 339.792969 335.289062 C 341.972656 335.210938 344.367188 335.171875 346.972656 335.171875 "/>
<path fill-rule="nonzero" fill="rgb(100%, 100%, 100%)" fill-opacity="1" d="M 389.6875 358.097656 L 371.417969 358.097656 L 371.417969 353.621094 L 389.6875 353.621094 Z M 383.71875 335.585938 C 384.265625 335.585938 384.746094 335.722656 385.160156 335.996094 C 385.570312 336.269531 385.863281 336.636719 386.035156 337.089844 L 396.789062 367.09375 L 390.203125 367.09375 L 382.070312 342.800781 C 381.933594 342.3125 381.796875 341.824219 381.660156 341.335938 C 381.523438 340.851562 381.402344 340.378906 381.296875 339.921875 L 379.859375 339.921875 C 379.753906 340.378906 379.632812 340.851562 379.496094 341.335938 C 379.359375 341.824219 379.207031 342.3125 379.035156 342.800781 L 370.957031 367.09375 L 364.367188 367.09375 L 375.125 337.089844 C 375.261719 336.636719 375.542969 336.269531 375.972656 335.996094 C 376.402344 335.722656 376.890625 335.585938 377.441406 335.585938 Z M 383.71875 335.585938 "/>
<path fill-rule="nonzero" fill="rgb(100%, 100%, 100%)" fill-opacity="1" d="M 407.289062 335.585938 L 407.289062 359.785156 C 407.289062 360.671875 407.550781 361.332031 408.085938 361.773438 C 408.617188 362.214844 409.378906 362.433594 410.375 362.433594 L 422.933594 362.433594 L 423.242188 366.773438 C 420.90625 366.957031 418.480469 367.070312 415.960938 367.117188 C 413.4375 367.160156 410.941406 367.183594 408.472656 367.183594 C 405.863281 367.183594 403.949219 366.589844 402.734375 365.402344 C 401.515625 364.214844 400.90625 362.710938 400.90625 360.882812 L 400.90625 335.585938 Z M 407.289062 335.585938 "/>
<path fill-rule="nonzero" fill="rgb(100%, 100%, 100%)" fill-opacity="1" d="M 434.355469 335.585938 L 434.355469 359.785156 C 434.355469 360.671875 434.621094 361.332031 435.15625 361.773438 C 435.6875 362.214844 436.449219 362.433594 437.445312 362.433594 L 450 362.433594 L 450.3125 366.773438 C 447.976562 366.957031 445.550781 367.070312 443.027344 367.117188 C 440.507812 367.160156 438.011719 367.183594 435.539062 367.183594 C 432.933594 367.183594 431.019531 366.589844 429.804688 365.402344 C 428.585938 364.214844 427.976562 362.710938 427.976562 360.882812 L 427.976562 335.585938 Z M 434.355469 335.585938 "/>
<path fill-rule="nonzero" fill="rgb(100%, 100%, 100%)" fill-opacity="1" d="M 461.476562 367.09375 L 455.148438 367.09375 L 455.148438 335.585938 L 461.476562 335.585938 Z M 468.21875 335.171875 C 471.167969 335.171875 473.5625 335.449219 475.398438 335.996094 C 477.234375 336.542969 478.570312 337.480469 479.410156 338.804688 C 480.253906 340.128906 480.671875 341.992188 480.671875 344.398438 C 480.671875 345.980469 480.457031 347.328125 480.03125 348.4375 C 479.601562 349.550781 478.898438 350.433594 477.917969 351.085938 C 476.941406 351.742188 475.628906 352.160156 473.980469 352.34375 L 473.980469 352.570312 C 474.566406 352.691406 475.175781 352.929688 475.808594 353.28125 C 476.445312 353.628906 477.027344 354.125 477.558594 354.765625 C 478.089844 355.402344 478.496094 356.222656 478.769531 357.230469 L 482.011719 367.09375 L 475.21875 367.09375 L 472.285156 357.367188 C 471.90625 356.269531 471.394531 355.5 470.738281 355.058594 C 470.089844 354.621094 469.195312 354.398438 468.0625 354.398438 C 465.835938 354.398438 463.929688 354.390625 462.351562 354.375 C 460.773438 354.359375 459.460938 354.335938 458.414062 354.304688 C 457.367188 354.277344 456.449219 354.261719 455.664062 354.261719 L 455.816406 349.921875 L 468.0625 349.921875 C 469.609375 349.894531 470.824219 349.734375 471.71875 349.441406 C 472.609375 349.152344 473.246094 348.636719 473.621094 347.890625 C 474 347.144531 474.1875 346.085938 474.1875 344.71875 C 474.1875 343.378906 474 342.34375 473.621094 341.613281 C 473.246094 340.882812 472.609375 340.371094 471.71875 340.082031 C 470.824219 339.792969 469.609375 339.648438 468.0625 339.648438 C 465.046875 339.648438 462.453125 339.664062 460.292969 339.695312 C 458.132812 339.722656 456.65625 339.753906 455.867188 339.785156 L 455.148438 335.585938 C 456.519531 335.460938 457.8125 335.371094 459.03125 335.3125 C 460.25 335.25 461.582031 335.210938 463.023438 335.195312 C 464.460938 335.179688 466.195312 335.171875 468.21875 335.171875 "/>
</svg>
