<?xml version="1.0" encoding="UTF-8"?>
<svg xmlns="http://www.w3.org/2000/svg" xmlns:xlink="http://www.w3.org/1999/xlink" width="566.929pt" height="708.661pt" viewBox="0 0 566.929 708.661">
<path fill-rule="nonzero" fill="rgb(28.199768%, 40.79895%, 39.199829%)" fill-opacity="1" d="M 303.941406 388.496094 L 300.59375 388.496094 L 300.59375 343.386719 L 300.585938 343.328125 C 299.832031 339.21875 297.910156 333.125 293.011719 327.414062 C 287.628906 321.132812 281.238281 318.269531 276.824219 316.976562 L 276.652344 316.925781 L 276.476562 316.976562 C 271.960938 318.253906 265.394531 321.101562 259.78125 327.402344 C 254.722656 333.078125 252.589844 339.183594 251.691406 343.304688 L 251.675781 343.371094 L 251.675781 388.496094 L 248.332031 388.496094 L 248.332031 343.015625 L 248.421875 342.597656 C 249.40625 338.082031 251.742188 331.394531 257.28125 325.179688 C 263.433594 318.277344 270.617188 315.160156 275.5625 313.757812 L 276.667969 313.445312 L 277.769531 313.769531 C 282.617188 315.191406 289.636719 318.335938 295.554688 325.238281 C 300.9375 331.515625 303.050781 338.214844 303.875 342.726562 L 303.941406 343.230469 Z M 303.941406 388.496094 "/>
<path fill-rule="nonzero" fill="rgb(28.199768%, 40.79895%, 39.199829%)" fill-opacity="1" d="M 325.355469 407.890625 L 322.007812 407.890625 L 322.007812 362.777344 L 322 362.722656 C 321.246094 358.613281 319.324219 352.519531 314.429688 346.804688 C 309.042969 340.527344 302.652344 337.664062 298.242188 336.371094 L 298.066406 336.320312 L 297.890625 336.367188 C 293.375 337.648438 286.8125 340.496094 281.195312 346.796875 C 276.136719 352.46875 274.003906 358.574219 273.105469 362.699219 L 273.089844 362.765625 L 273.089844 407.890625 L 269.746094 407.890625 L 269.746094 362.40625 L 269.835938 361.992188 C 270.820312 357.472656 273.15625 350.789062 278.695312 344.574219 C 284.847656 337.667969 292.035156 334.550781 296.976562 333.152344 L 298.082031 332.839844 L 299.183594 333.160156 C 304.03125 334.582031 311.050781 337.726562 316.96875 344.628906 C 322.351562 350.910156 324.464844 357.605469 325.289062 362.117188 L 325.355469 362.625 Z M 325.355469 407.890625 "/>
<path fill-rule="nonzero" fill="rgb(28.199768%, 40.79895%, 39.199829%)" fill-opacity="1" d="M 283.863281 394.515625 L 280.519531 394.515625 L 280.519531 349.402344 L 280.507812 349.347656 C 279.757812 345.238281 277.832031 339.144531 272.9375 333.433594 C 267.550781 327.152344 261.164062 324.289062 256.75 322.996094 L 256.574219 322.945312 L 256.398438 322.992188 C 251.882812 324.273438 245.320312 327.121094 239.703125 333.421875 C 234.644531 339.09375 232.511719 345.203125 231.613281 349.324219 L 231.601562 349.390625 L 231.601562 394.515625 L 228.253906 394.515625 L 228.253906 349.03125 L 228.34375 348.617188 C 229.328125 344.097656 231.664062 337.414062 237.203125 331.199219 C 243.359375 324.292969 250.542969 321.175781 255.488281 319.777344 L 256.589844 319.464844 L 257.691406 319.789062 C 262.539062 321.207031 269.558594 324.351562 275.476562 331.257812 C 280.859375 337.535156 282.972656 344.230469 283.800781 348.746094 L 283.863281 349.25 Z M 283.863281 394.515625 "/>
<path fill-rule="nonzero" fill="rgb(28.199768%, 40.79895%, 39.199829%)" fill-opacity="1" d="M 168.59375 310.300781 L 173.183594 312.203125 L 166.707031 327.832031 L 162.117188 325.929688 Z M 158.308594 298.980469 L 190.617188 312.371094 L 187.882812 318.972656 L 155.570312 305.582031 Z M 149.507812 320.210938 L 181.816406 333.601562 L 179.082031 340.203125 L 146.773438 326.8125 Z M 149.507812 320.210938 "/>
<path fill-rule="nonzero" fill="rgb(28.199768%, 40.79895%, 39.199829%)" fill-opacity="1" d="M 179.324219 293.261719 L 194.234375 276.378906 L 197.730469 279.46875 L 182.820312 296.347656 Z M 173.191406 278.382812 C 174.503906 276.898438 175.847656 275.378906 177.222656 273.820312 C 178.597656 272.265625 179.976562 270.753906 181.367188 269.28125 C 182.753906 267.816406 184.089844 266.453125 185.378906 265.199219 L 188.683594 268.578125 L 178.464844 280.144531 C 177.757812 280.945312 177.414062 281.695312 177.425781 282.390625 C 177.441406 283.09375 177.828125 283.777344 178.589844 284.449219 L 192.871094 297.066406 C 193.632812 297.734375 194.359375 298.035156 195.054688 297.964844 C 195.75 297.890625 196.449219 297.457031 197.15625 296.65625 L 207.375 285.085938 L 211.132812 287.949219 C 210.050781 289.382812 208.859375 290.875 207.558594 292.417969 C 206.257812 293.96875 204.925781 295.523438 203.566406 297.09375 C 202.203125 298.660156 200.867188 300.1875 199.554688 301.671875 C 197.941406 303.5 196.195312 304.566406 194.328125 304.871094 C 192.457031 305.179688 190.75 304.675781 189.203125 303.359375 L 172.792969 288.863281 C 171.296875 287.492188 170.589844 285.859375 170.660156 283.964844 C 170.734375 282.074219 171.578125 280.210938 173.191406 278.382812 "/>
<path fill-rule="nonzero" fill="rgb(28.199768%, 40.79895%, 39.199829%)" fill-opacity="1" d="M 201.207031 253.082031 L 221.636719 281.46875 L 215.835938 285.644531 L 195.410156 257.257812 Z M 201.207031 253.082031 "/>
<path fill-rule="nonzero" fill="rgb(28.199768%, 40.79895%, 39.199829%)" fill-opacity="1" d="M 252.46875 230.914062 C 254.171875 230.363281 255.292969 230.855469 255.824219 232.390625 L 267.257812 262.894531 L 260.78125 264.976562 L 250.304688 236.878906 L 249.269531 237.214844 L 249.4375 261.8125 C 249.535156 263.234375 248.820312 264.191406 247.296875 264.683594 L 242.507812 266.222656 C 240.949219 266.726562 239.777344 266.375 238.988281 265.171875 L 224.78125 245.089844 L 223.75 245.421875 L 231.722656 274.324219 L 225.25 276.40625 L 216.753906 244.957031 C 216.328125 243.390625 216.953125 242.335938 218.621094 241.800781 L 225.421875 239.613281 C 226.875 239.144531 227.992188 239.515625 228.78125 240.714844 L 240.414062 257.101562 C 240.917969 257.789062 241.375 258.496094 241.785156 259.214844 C 242.199219 259.933594 242.636719 260.644531 243.101562 261.347656 L 243.917969 261.082031 C 243.886719 260.242188 243.835938 259.40625 243.773438 258.574219 C 243.703125 257.746094 243.652344 256.894531 243.609375 256.019531 L 243.527344 235.972656 C 243.429688 234.546875 244.140625 233.59375 245.664062 233.101562 Z M 252.46875 230.914062 "/>
<path fill-rule="nonzero" fill="rgb(28.199768%, 40.79895%, 39.199829%)" fill-opacity="1" d="M 283.105469 229.835938 L 279.484375 264.621094 L 272.375 263.878906 L 276 229.09375 Z M 290.828125 230.179688 C 293.785156 230.488281 296.265625 231.042969 298.269531 231.847656 C 300.273438 232.648438 301.839844 233.796875 302.96875 235.292969 C 304.097656 236.785156 304.824219 238.714844 305.15625 241.074219 C 305.484375 243.4375 305.46875 246.3125 305.117188 249.707031 C 304.765625 253.105469 304.183594 255.921875 303.375 258.164062 C 302.566406 260.40625 301.457031 262.144531 300.042969 263.371094 C 298.632812 264.601562 296.863281 265.402344 294.738281 265.777344 C 292.609375 266.148438 290.066406 266.179688 287.109375 265.875 C 284.269531 265.578125 281.636719 265.257812 279.222656 264.925781 C 276.804688 264.585938 274.523438 264.238281 272.375 263.878906 L 275.835938 259.347656 C 277.34375 259.574219 279.082031 259.8125 281.046875 260.070312 C 283.015625 260.324219 285.210938 260.578125 287.636719 260.832031 C 289.832031 261.0625 291.609375 260.863281 292.957031 260.238281 C 294.304688 259.617188 295.339844 258.398438 296.066406 256.589844 C 296.792969 254.777344 297.328125 252.226562 297.667969 248.933594 C 298.011719 245.640625 298.015625 243.03125 297.679688 241.109375 C 297.339844 239.191406 296.578125 237.777344 295.390625 236.875 C 294.199219 235.96875 292.507812 235.398438 290.308594 235.171875 C 287.957031 234.925781 285.863281 234.726562 284.019531 234.566406 C 282.175781 234.410156 280.386719 234.238281 278.640625 234.058594 L 276 229.09375 C 278.171875 229.1875 280.46875 229.3125 282.882812 229.480469 C 285.300781 229.648438 287.949219 229.878906 290.828125 230.179688 "/>
<path fill-rule="nonzero" fill="rgb(28.199768%, 40.79895%, 39.199829%)" fill-opacity="1" d="M 335.636719 265.699219 L 333.472656 270.171875 L 315.207031 261.335938 L 317.367188 256.863281 Z M 338.382812 244.789062 C 338.933594 245.054688 339.347656 245.425781 339.625 245.898438 C 339.90625 246.371094 340.019531 246.875 339.972656 247.417969 L 336.226562 282.597656 L 329.640625 279.410156 L 333.25 251.203125 C 333.347656 250.648438 333.445312 250.097656 333.542969 249.542969 C 333.644531 248.992188 333.75 248.460938 333.867188 247.957031 L 332.429688 247.257812 C 332.105469 247.664062 331.753906 248.078125 331.382812 248.496094 C 331.011719 248.917969 330.621094 249.332031 330.214844 249.734375 L 310.394531 270.101562 L 303.808594 266.914062 L 329.0625 242.140625 C 329.417969 241.75 329.878906 241.519531 330.441406 241.453125 C 331.003906 241.386719 331.558594 241.488281 332.109375 241.753906 Z M 338.382812 244.789062 "/>
<path fill-rule="nonzero" fill="rgb(28.199768%, 40.79895%, 39.199829%)" fill-opacity="1" d="M 366.566406 264.238281 L 348.089844 283.734375 C 347.414062 284.449219 347.121094 285.183594 347.214844 285.945312 C 347.304688 286.707031 347.753906 287.46875 348.554688 288.230469 L 358.679688 297.824219 L 355.617188 301.554688 C 353.59375 299.917969 351.550781 298.15625 349.480469 296.265625 C 347.414062 294.375 345.386719 292.488281 343.394531 290.601562 C 341.292969 288.609375 340.203125 286.667969 340.128906 284.78125 C 340.050781 282.894531 340.710938 281.214844 342.105469 279.742188 L 361.421875 259.363281 Z M 366.566406 264.238281 "/>
<path fill-rule="nonzero" fill="rgb(28.199768%, 40.79895%, 39.199829%)" fill-opacity="1" d="M 390.597656 292.71875 L 367.488281 306.417969 C 366.644531 306.914062 366.164062 307.542969 366.042969 308.300781 C 365.921875 309.058594 366.144531 309.914062 366.710938 310.863281 L 373.820312 322.863281 L 369.855469 325.613281 C 368.355469 323.488281 366.875 321.234375 365.402344 318.847656 C 363.929688 316.464844 362.496094 314.09375 361.097656 311.734375 C 359.621094 309.242188 359.101562 307.078125 359.546875 305.242188 C 359.992188 303.40625 361.085938 301.972656 362.828125 300.9375 L 386.984375 286.621094 Z M 390.597656 292.71875 "/>
<path fill-rule="nonzero" fill="rgb(28.199768%, 40.79895%, 39.199829%)" fill-opacity="1" d="M 408.386719 334.761719 C 409.121094 337.953125 409.421875 340.613281 409.285156 342.734375 C 409.152344 344.859375 408.472656 346.539062 407.246094 347.78125 C 406.023438 349.019531 404.113281 349.9375 401.511719 350.535156 C 399.796875 350.929688 398.289062 351.035156 396.980469 350.84375 C 395.667969 350.65625 394.539062 350.117188 393.589844 349.222656 C 392.636719 348.324219 391.859375 347.007812 391.25 345.273438 L 391.003906 345.328125 C 391.015625 345.988281 390.914062 346.707031 390.691406 347.480469 C 390.472656 348.253906 390.082031 349.011719 389.523438 349.746094 C 388.964844 350.480469 388.175781 351.121094 387.15625 351.667969 L 377.292969 357.632812 L 375.601562 350.277344 L 385.394531 344.683594 C 386.484375 344 387.1875 343.253906 387.503906 342.4375 C 387.820312 341.621094 387.835938 340.601562 387.554688 339.375 C 387 336.960938 386.53125 334.898438 386.15625 333.1875 C 385.78125 331.476562 385.476562 330.046875 385.25 328.910156 C 385.019531 327.765625 384.808594 326.769531 384.613281 325.917969 L 389.34375 325.003906 L 392.394531 338.261719 C 392.8125 339.925781 393.289062 341.203125 393.824219 342.097656 C 394.359375 342.992188 395.074219 343.550781 395.976562 343.773438 C 396.875 343.996094 398.070312 343.9375 399.550781 343.597656 C 401 343.261719 402.074219 342.800781 402.769531 342.210938 C 403.464844 341.621094 403.859375 340.808594 403.949219 339.769531 C 404.039062 338.730469 403.894531 337.378906 403.507812 335.707031 C 402.757812 332.4375 402.09375 329.636719 401.523438 327.304688 C 400.953125 324.972656 400.550781 323.382812 400.324219 322.535156 L 404.6875 320.710938 C 405.160156 322.167969 405.582031 323.546875 405.953125 324.851562 C 406.320312 326.152344 406.695312 327.582031 407.070312 329.140625 C 407.445312 330.695312 407.882812 332.566406 408.386719 334.761719 M 406.265625 327.566406 L 372.179688 335.40625 L 370.605469 328.550781 L 404.6875 320.710938 Z M 406.265625 327.566406 "/>
<path fill-rule="nonzero" fill="rgb(28.199768%, 40.79895%, 39.199829%)" fill-opacity="1" d="M 386.996094 414.035156 L 382.335938 412.316406 L 388.183594 396.4375 L 392.84375 398.15625 Z M 405.671875 403.367188 L 372.855469 391.277344 L 375.324219 384.574219 L 408.140625 396.660156 Z M 397.730469 424.929688 L 364.910156 412.84375 L 367.378906 406.136719 L 400.199219 418.226562 Z M 397.730469 424.929688 "/>
<path fill-rule="nonzero" fill="rgb(28.199768%, 40.79895%, 39.199829%)" fill-opacity="1" d="M 376.953125 431.484375 L 362.722656 448.941406 L 359.109375 445.996094 L 373.339844 428.539062 Z M 383.671875 446.105469 C 382.421875 447.640625 381.136719 449.214844 379.824219 450.824219 C 378.511719 452.433594 377.191406 454 375.863281 455.523438 C 374.535156 457.046875 373.25 458.460938 372.015625 459.761719 L 368.578125 456.519531 L 378.332031 444.554688 C 379.007812 443.730469 379.320312 442.964844 379.28125 442.269531 C 379.238281 441.570312 378.824219 440.902344 378.039062 440.261719 L 363.269531 428.21875 C 362.484375 427.578125 361.746094 427.308594 361.050781 427.40625 C 360.359375 427.507812 359.679688 427.972656 359.003906 428.796875 L 349.25 440.757812 L 345.378906 438.046875 C 346.40625 436.574219 347.539062 435.039062 348.777344 433.441406 C 350.015625 431.84375 351.28125 430.234375 352.582031 428.613281 C 353.882812 426.992188 355.15625 425.414062 356.40625 423.878906 C 357.949219 421.988281 359.648438 420.855469 361.503906 420.476562 C 363.363281 420.09375 365.089844 420.53125 366.683594 421.785156 L 383.65625 435.621094 C 385.203125 436.929688 385.976562 438.535156 385.980469 440.429688 C 385.980469 442.324219 385.214844 444.21875 383.671875 446.105469 "/>
<path fill-rule="nonzero" fill="rgb(28.199768%, 40.79895%, 39.199829%)" fill-opacity="1" d="M 356.683594 472.492188 L 335.144531 444.9375 L 340.773438 440.539062 L 362.3125 468.09375 Z M 356.683594 472.492188 "/>
<path fill-rule="nonzero" fill="rgb(28.199768%, 40.79895%, 39.199829%)" fill-opacity="1" d="M 306.34375 496.691406 C 304.660156 497.308594 303.523438 496.859375 302.929688 495.351562 L 290.285156 465.328125 L 296.671875 462.988281 L 308.265625 490.644531 L 309.285156 490.269531 L 308.136719 465.695312 C 307.980469 464.277344 308.65625 463.292969 310.160156 462.742188 L 314.882812 461.011719 C 316.421875 460.449219 317.609375 460.75 318.441406 461.921875 L 333.4375 481.421875 L 334.460938 481.046875 L 325.335938 452.488281 L 331.722656 450.148438 L 341.46875 481.230469 C 341.953125 482.78125 341.375 483.855469 339.726562 484.460938 L 333.019531 486.917969 C 331.589844 487.441406 330.453125 487.121094 329.621094 485.949219 L 317.339844 470.046875 C 316.8125 469.375 316.324219 468.6875 315.886719 467.984375 C 315.445312 467.285156 314.980469 466.589844 314.484375 465.90625 L 313.679688 466.203125 C 313.742188 467.042969 313.828125 467.878906 313.925781 468.703125 C 314.027344 469.53125 314.113281 470.382812 314.191406 471.253906 L 315.074219 491.28125 C 315.230469 492.699219 314.554688 493.683594 313.050781 494.234375 Z M 306.34375 496.691406 "/>
<path fill-rule="nonzero" fill="rgb(28.199768%, 40.79895%, 39.199829%)" fill-opacity="1" d="M 275.734375 498.976562 L 277.988281 464.078125 L 285.121094 464.539062 L 282.867188 499.4375 Z M 268.003906 498.9375 C 265.039062 498.746094 262.539062 498.289062 260.503906 497.5625 C 258.46875 496.839844 256.859375 495.753906 255.671875 494.304688 C 254.488281 492.855469 253.683594 490.960938 253.261719 488.613281 C 252.839844 486.265625 252.738281 483.390625 252.960938 479.984375 C 253.179688 476.578125 253.648438 473.738281 254.367188 471.46875 C 255.089844 469.195312 256.128906 467.414062 257.492188 466.132812 C 258.855469 464.847656 260.589844 463.976562 262.699219 463.523438 C 264.8125 463.066406 267.351562 462.933594 270.316406 463.125 C 273.167969 463.308594 275.808594 463.523438 278.238281 463.765625 C 280.667969 464.007812 282.960938 464.265625 285.121094 464.539062 L 281.839844 469.203125 C 280.324219 469.035156 278.578125 468.863281 276.601562 468.6875 C 274.628906 468.507812 272.425781 468.339844 269.992188 468.183594 C 267.785156 468.042969 266.019531 468.308594 264.695312 468.984375 C 263.375 469.660156 262.386719 470.917969 261.730469 472.753906 C 261.078125 474.59375 260.644531 477.164062 260.433594 480.46875 C 260.21875 483.773438 260.320312 486.378906 260.730469 488.285156 C 261.140625 490.1875 261.960938 491.570312 263.183594 492.429688 C 264.40625 493.285156 266.125 493.785156 268.328125 493.929688 C 270.6875 494.082031 272.789062 494.199219 274.632812 494.285156 C 276.480469 494.371094 278.28125 494.46875 280.027344 494.582031 L 282.867188 499.4375 C 280.6875 499.433594 278.390625 499.394531 275.96875 499.324219 C 273.550781 499.25 270.894531 499.125 268.003906 498.9375 "/>
<path fill-rule="nonzero" fill="rgb(28.199768%, 40.79895%, 39.199829%)" fill-opacity="1" d="M 221.832031 465.222656 L 223.816406 460.667969 L 242.421875 468.773438 L 240.4375 473.324219 Z M 219.914062 486.222656 C 219.355469 485.980469 218.929688 485.628906 218.628906 485.167969 C 218.332031 484.703125 218.199219 484.203125 218.226562 483.664062 L 220.574219 448.363281 L 227.28125 451.285156 L 224.792969 479.613281 C 224.714844 480.167969 224.640625 480.726562 224.5625 481.28125 C 224.488281 481.839844 224.398438 482.371094 224.300781 482.882812 L 225.769531 483.523438 C 226.078125 483.101562 226.410156 482.675781 226.765625 482.242188 C 227.121094 481.804688 227.492188 481.378906 227.882812 480.960938 L 246.878906 459.824219 L 253.589844 462.746094 L 229.335938 488.503906 C 228.992188 488.90625 228.542969 489.152344 227.984375 489.242188 C 227.425781 489.332031 226.867188 489.253906 226.308594 489.007812 Z M 219.914062 486.222656 "/>
<path fill-rule="nonzero" fill="rgb(28.199768%, 40.79895%, 39.199829%)" fill-opacity="1" d="M 191.003906 467.917969 L 208.699219 447.703125 C 209.34375 446.964844 209.605469 446.21875 209.484375 445.460938 C 209.359375 444.703125 208.886719 443.960938 208.054688 443.234375 L 197.558594 434.046875 L 200.472656 430.195312 C 202.554688 431.75 204.667969 433.429688 206.808594 435.238281 C 208.949219 437.042969 211.050781 438.851562 213.117188 440.660156 C 215.296875 442.566406 216.460938 444.464844 216.609375 446.34375 C 216.761719 448.226562 216.167969 449.933594 214.832031 451.457031 L 196.335938 472.585938 Z M 191.003906 467.917969 "/>
<path fill-rule="nonzero" fill="rgb(28.199768%, 40.79895%, 39.199829%)" fill-opacity="1" d="M 165.855469 440.394531 L 188.40625 425.792969 C 189.226562 425.261719 189.683594 424.613281 189.773438 423.851562 C 189.863281 423.089844 189.609375 422.246094 189.007812 421.316406 L 181.425781 409.609375 L 185.28125 406.703125 C 186.863281 408.769531 188.433594 410.964844 189.996094 413.285156 C 191.5625 415.609375 193.089844 417.925781 194.582031 420.226562 C 196.15625 422.660156 196.757812 424.800781 196.386719 426.652344 C 196.015625 428.503906 194.980469 429.980469 193.277344 431.082031 L 169.707031 446.34375 Z M 165.855469 440.394531 "/>
<path fill-rule="nonzero" fill="rgb(28.199768%, 40.79895%, 39.199829%)" fill-opacity="1" d="M 148.832031 406.246094 L 182.574219 397.042969 L 184.425781 403.828125 L 150.683594 413.027344 Z M 146.421875 399.140625 C 145.5625 395.976562 145.152344 393.335938 145.207031 391.207031 C 145.253906 389.082031 145.867188 387.371094 147.039062 386.085938 C 148.210938 384.796875 150.085938 383.800781 152.660156 383.101562 C 154.355469 382.636719 155.863281 382.476562 157.175781 382.609375 C 158.492188 382.746094 159.640625 383.238281 160.628906 384.097656 C 161.617188 384.953125 162.449219 386.238281 163.125 387.949219 L 163.371094 387.882812 C 163.328125 387.222656 163.40625 386.5 163.59375 385.71875 C 163.785156 384.9375 164.140625 384.167969 164.671875 383.410156 C 165.199219 382.652344 165.964844 381.980469 166.957031 381.394531 L 176.574219 375.039062 L 178.558594 382.320312 L 169 388.300781 C 167.9375 389.027344 167.265625 389.804688 166.980469 390.628906 C 166.699219 391.457031 166.722656 392.476562 167.054688 393.691406 C 167.707031 396.082031 168.257812 398.125 168.699219 399.820312 C 169.144531 401.515625 169.503906 402.929688 169.777344 404.058594 C 170.050781 405.1875 170.300781 406.175781 170.53125 407.023438 L 165.84375 408.125 L 162.261719 394.996094 C 161.78125 393.351562 161.253906 392.09375 160.683594 391.222656 C 160.109375 390.351562 159.371094 389.820312 158.464844 389.636719 C 157.554688 389.449219 156.363281 389.554688 154.898438 389.957031 C 153.464844 390.347656 152.410156 390.851562 151.738281 391.46875 C 151.066406 392.085938 150.707031 392.914062 150.65625 393.957031 C 150.609375 394.996094 150.808594 396.34375 151.261719 398 C 152.144531 401.234375 152.917969 404.003906 153.582031 406.3125 C 154.246094 408.621094 154.707031 410.191406 154.972656 411.027344 L 150.683594 413.027344 C 150.152344 411.59375 149.675781 410.230469 149.253906 408.945312 C 148.832031 407.65625 148.402344 406.242188 147.96875 404.703125 C 147.527344 403.164062 147.015625 401.308594 146.421875 399.140625 "/>
<path fill-rule="nonzero" fill="rgb(28.199768%, 40.79895%, 39.199829%)" fill-opacity="1" d="M 158.320312 355.839844 C 158.320312 357.496094 156.980469 358.835938 155.324219 358.835938 C 153.667969 358.835938 152.324219 357.496094 152.324219 355.839844 C 152.324219 354.183594 153.667969 352.839844 155.324219 352.839844 C 156.980469 352.839844 158.320312 354.183594 158.320312 355.839844 "/>
<path fill-rule="nonzero" fill="rgb(28.199768%, 40.79895%, 39.199829%)" fill-opacity="1" d="M 392.976562 369.824219 C 392.976562 371.480469 391.632812 372.820312 389.976562 372.820312 C 388.320312 372.820312 386.976562 371.480469 386.976562 369.824219 C 386.976562 368.167969 388.320312 366.824219 389.976562 366.824219 C 391.632812 366.824219 392.976562 368.167969 392.976562 369.824219 "/>
</svg>
