<?xml version="1.0" encoding="UTF-8"?>
<svg xmlns="http://www.w3.org/2000/svg" xmlns:xlink="http://www.w3.org/1999/xlink" width="566.929pt" height="708.661pt" viewBox="0 0 566.929 708.661">
<defs>
<clipPath id="clip-0">
<path clip-rule="nonzero" d="M 0.101562 0 L 566.757812 0 L 566.757812 708.320312 L 0.101562 708.320312 Z M 0.101562 0 "/>
</clipPath>
</defs>
<g clip-path="url(#clip-0)">
<path fill-rule="nonzero" fill="rgb(100%, 100%, 100%)" fill-opacity="1" d="M 0.101562 708.320312 L 566.757812 708.320312 L 566.757812 0 L 0.101562 0 Z M 0.101562 708.320312 "/>
</g>
<path fill-rule="nonzero" fill="rgb(28.199768%, 40.79895%, 39.199829%)" fill-opacity="1" d="M 167.6875 372.496094 L 164.34375 372.496094 L 164.34375 327.382812 L 164.332031 327.328125 C 163.582031 323.21875 161.660156 317.125 156.765625 311.410156 C 151.386719 305.132812 145 302.269531 140.589844 300.976562 L 140.417969 300.925781 L 140.242188 300.972656 C 135.726562 302.253906 129.171875 305.101562 123.558594 311.402344 C 118.503906 317.074219 116.371094 323.179688 115.476562 327.304688 L 115.460938 327.371094 L 115.460938 372.496094 L 112.117188 372.496094 L 112.117188 327.011719 L 112.207031 326.597656 C 113.191406 322.078125 115.523438 315.394531 121.058594 309.179688 C 127.210938 302.273438 134.390625 299.15625 139.328125 297.757812 L 140.433594 297.445312 L 141.535156 297.765625 C 146.375 299.1875 153.390625 302.332031 159.304688 309.234375 C 164.683594 315.515625 166.796875 322.210938 167.621094 326.722656 L 167.6875 327.230469 Z M 167.6875 372.496094 "/>
<path fill-rule="nonzero" fill="rgb(28.199768%, 40.79895%, 39.199829%)" fill-opacity="1" d="M 189.085938 391.886719 L 185.742188 391.886719 L 185.742188 346.777344 L 185.730469 346.722656 C 184.980469 342.609375 183.058594 336.515625 178.164062 330.804688 C 172.785156 324.523438 166.398438 321.660156 161.988281 320.367188 L 161.816406 320.316406 L 161.640625 320.367188 C 157.125 321.644531 150.570312 324.492188 144.957031 330.792969 C 139.902344 336.46875 137.769531 342.574219 136.875 346.695312 L 136.859375 346.761719 L 136.859375 391.886719 L 133.515625 391.886719 L 133.515625 346.40625 L 133.605469 345.988281 C 134.589844 341.472656 136.921875 334.785156 142.457031 328.570312 C 148.609375 321.667969 155.789062 318.550781 160.726562 317.148438 L 161.832031 316.835938 L 162.933594 317.160156 C 167.773438 318.582031 174.789062 321.726562 180.703125 328.628906 C 186.082031 334.90625 188.195312 341.605469 189.019531 346.117188 L 189.085938 346.621094 Z M 189.085938 391.886719 "/>
<path fill-rule="nonzero" fill="rgb(28.199768%, 40.79895%, 39.199829%)" fill-opacity="1" d="M 147.625 378.515625 L 144.28125 378.515625 L 144.28125 333.402344 L 144.269531 333.347656 C 143.519531 329.238281 141.597656 323.140625 136.703125 317.429688 C 131.324219 311.148438 124.9375 308.289062 120.53125 306.996094 L 120.355469 306.941406 L 120.179688 306.992188 C 115.667969 308.273438 109.109375 311.117188 103.496094 317.421875 C 98.441406 323.09375 96.3125 329.199219 95.414062 333.324219 L 95.398438 333.386719 L 95.398438 378.515625 L 92.054688 378.515625 L 92.054688 333.03125 L 92.144531 332.613281 C 93.128906 328.097656 95.464844 321.410156 101 315.195312 C 107.148438 308.292969 114.328125 305.175781 119.269531 303.777344 L 120.371094 303.464844 L 121.472656 303.785156 C 126.316406 305.207031 133.332031 308.351562 139.246094 315.253906 C 144.621094 321.535156 146.734375 328.230469 147.558594 332.742188 L 147.625 333.25 Z M 147.625 378.515625 "/>
<path fill-rule="nonzero" fill="rgb(28.199768%, 40.79895%, 39.199829%)" fill-opacity="1" d="M 234.570312 367.09375 L 228.136719 367.09375 L 228.136719 335.585938 L 234.570312 335.585938 Z M 228.703125 352.527344 L 213.472656 352.527344 L 213.472656 348.050781 L 228.703125 348.050781 Z M 213.882812 367.09375 L 207.449219 367.09375 L 207.449219 335.585938 L 213.882812 335.585938 Z M 213.882812 367.09375 "/>
<path fill-rule="nonzero" fill="rgb(28.199768%, 40.79895%, 39.199829%)" fill-opacity="1" d="M 243.113281 348.507812 L 263.390625 348.507812 L 263.390625 352.707031 L 243.113281 352.707031 Z M 249.496094 335.492188 L 254.976562 335.492188 C 256.84375 335.492188 258.691406 335.523438 260.507812 335.585938 C 262.328125 335.644531 264.042969 335.738281 265.65625 335.859375 L 265.347656 340.105469 L 251.449219 340.105469 C 250.492188 340.105469 249.777344 340.316406 249.316406 340.742188 C 248.851562 341.171875 248.621094 341.839844 248.621094 342.753906 L 248.621094 359.921875 C 248.621094 360.835938 248.851562 361.507812 249.316406 361.933594 C 249.777344 362.359375 250.492188 362.574219 251.449219 362.574219 L 265.347656 362.574219 L 265.65625 366.820312 C 264.042969 366.941406 262.328125 367.023438 260.507812 367.070312 C 258.691406 367.117188 256.84375 367.144531 254.976562 367.160156 C 253.105469 367.175781 251.277344 367.183594 249.496094 367.183594 C 247.300781 367.183594 245.539062 366.644531 244.222656 365.5625 C 242.898438 364.484375 242.222656 363.03125 242.1875 361.203125 L 242.1875 341.476562 C 242.222656 339.648438 242.898438 338.195312 244.222656 337.113281 C 245.539062 336.035156 247.300781 335.492188 249.496094 335.492188 "/>
<path fill-rule="nonzero" fill="rgb(28.199768%, 40.79895%, 39.199829%)" fill-opacity="1" d="M 278.261719 367.09375 L 271.828125 367.09375 L 271.828125 335.585938 L 278.261719 335.585938 Z M 278.261719 367.09375 "/>
<path fill-rule="nonzero" fill="rgb(28.199768%, 40.79895%, 39.199829%)" fill-opacity="1" d="M 321.335938 335.585938 C 322.949219 335.585938 323.773438 336.3125 323.808594 337.773438 L 325.195312 367.09375 L 319.074219 367.09375 L 317.835938 340.105469 L 316.859375 340.105469 L 310.222656 361.246094 C 309.914062 362.496094 309.039062 363.121094 307.597656 363.121094 L 303.066406 363.121094 C 301.59375 363.121094 300.683594 362.496094 300.339844 361.246094 L 293.703125 340.105469 L 292.722656 340.105469 L 291.589844 367.09375 L 285.46875 367.09375 L 286.855469 337.773438 C 286.925781 336.3125 287.75 335.585938 289.328125 335.585938 L 295.761719 335.585938 C 297.132812 335.585938 297.988281 336.207031 298.332031 337.457031 L 303.789062 354.71875 C 304.027344 355.449219 304.226562 356.179688 304.378906 356.910156 C 304.535156 357.640625 304.714844 358.371094 304.921875 359.101562 L 305.691406 359.101562 C 305.898438 358.371094 306.085938 357.640625 306.257812 356.910156 C 306.429688 356.179688 306.617188 355.433594 306.824219 354.671875 L 312.28125 337.457031 C 312.589844 336.207031 313.464844 335.585938 314.90625 335.585938 Z M 321.335938 335.585938 "/>
<path fill-rule="nonzero" fill="rgb(28.199768%, 40.79895%, 39.199829%)" fill-opacity="1" d="M 338.886719 367.09375 L 332.453125 367.09375 L 332.453125 335.585938 L 338.886719 335.585938 Z M 345.832031 335.171875 C 348.507812 335.171875 350.78125 335.441406 352.652344 335.972656 C 354.519531 336.503906 356.03125 337.386719 357.179688 338.621094 C 358.328125 339.851562 359.160156 341.511719 359.675781 343.597656 C 360.191406 345.683594 360.449219 348.265625 360.449219 351.339844 C 360.449219 354.414062 360.191406 356.996094 359.675781 359.078125 C 359.160156 361.164062 358.328125 362.824219 357.179688 364.054688 C 356.03125 365.289062 354.519531 366.171875 352.652344 366.707031 C 350.78125 367.238281 348.507812 367.503906 345.832031 367.503906 C 343.257812 367.503906 340.875 367.464844 338.679688 367.390625 C 336.484375 367.3125 334.40625 367.214844 332.453125 367.09375 L 335.128906 362.710938 C 336.5 362.769531 338.078125 362.824219 339.863281 362.867188 C 341.648438 362.914062 343.636719 362.9375 345.832031 362.9375 C 347.820312 362.9375 349.390625 362.59375 350.542969 361.910156 C 351.691406 361.226562 352.503906 360.039062 352.984375 358.347656 C 353.464844 356.660156 353.707031 354.324219 353.707031 351.339844 C 353.707031 348.355469 353.464844 346.019531 352.984375 344.328125 C 352.503906 342.640625 351.691406 341.445312 350.542969 340.742188 C 349.390625 340.042969 347.820312 339.695312 345.832031 339.695312 C 343.703125 339.695312 341.808594 339.710938 340.144531 339.738281 C 338.480469 339.769531 336.859375 339.785156 335.28125 339.785156 L 332.453125 335.585938 C 334.40625 335.460938 336.472656 335.363281 338.652344 335.289062 C 340.832031 335.210938 343.226562 335.171875 345.832031 335.171875 "/>
<path fill-rule="nonzero" fill="rgb(28.199768%, 40.79895%, 39.199829%)" fill-opacity="1" d="M 388.546875 358.097656 L 370.277344 358.097656 L 370.277344 353.621094 L 388.546875 353.621094 Z M 382.574219 335.585938 C 383.125 335.585938 383.605469 335.722656 384.015625 335.996094 C 384.429688 336.269531 384.722656 336.636719 384.890625 337.089844 L 395.648438 367.09375 L 389.0625 367.09375 L 380.929688 342.800781 C 380.792969 342.3125 380.65625 341.824219 380.519531 341.335938 C 380.382812 340.851562 380.261719 340.378906 380.15625 339.921875 L 378.71875 339.921875 C 378.613281 340.378906 378.492188 340.851562 378.355469 341.335938 C 378.21875 341.824219 378.066406 342.3125 377.894531 342.800781 L 369.8125 367.09375 L 363.226562 367.09375 L 373.980469 337.089844 C 374.117188 336.636719 374.402344 336.269531 374.832031 335.996094 C 375.261719 335.722656 375.75 335.585938 376.296875 335.585938 Z M 382.574219 335.585938 "/>
<path fill-rule="nonzero" fill="rgb(28.199768%, 40.79895%, 39.199829%)" fill-opacity="1" d="M 406.148438 335.585938 L 406.148438 359.785156 C 406.148438 360.671875 406.410156 361.332031 406.945312 361.773438 C 407.476562 362.214844 408.238281 362.433594 409.234375 362.433594 L 421.792969 362.433594 L 422.101562 366.773438 C 419.765625 366.957031 417.339844 367.070312 414.820312 367.117188 C 412.296875 367.160156 409.800781 367.183594 407.328125 367.183594 C 404.722656 367.183594 402.808594 366.589844 401.59375 365.402344 C 400.375 364.214844 399.765625 362.710938 399.765625 360.882812 L 399.765625 335.585938 Z M 406.148438 335.585938 "/>
<path fill-rule="nonzero" fill="rgb(28.199768%, 40.79895%, 39.199829%)" fill-opacity="1" d="M 433.214844 335.585938 L 433.214844 359.785156 C 433.214844 360.671875 433.480469 361.332031 434.015625 361.773438 C 434.546875 362.214844 435.308594 362.433594 436.304688 362.433594 L 448.859375 362.433594 L 449.167969 366.773438 C 446.835938 366.957031 444.410156 367.070312 441.886719 367.117188 C 439.363281 367.160156 436.871094 367.183594 434.398438 367.183594 C 431.792969 367.183594 429.878906 366.589844 428.664062 365.402344 C 427.445312 364.214844 426.835938 362.710938 426.835938 360.882812 L 426.835938 335.585938 Z M 433.214844 335.585938 "/>
<path fill-rule="nonzero" fill="rgb(28.199768%, 40.79895%, 39.199829%)" fill-opacity="1" d="M 460.335938 367.09375 L 454.007812 367.09375 L 454.007812 335.585938 L 460.335938 335.585938 Z M 467.078125 335.171875 C 470.027344 335.171875 472.421875 335.449219 474.257812 335.996094 C 476.09375 336.542969 477.429688 337.480469 478.269531 338.804688 C 479.109375 340.128906 479.53125 341.992188 479.53125 344.398438 C 479.53125 345.980469 479.316406 347.328125 478.890625 348.4375 C 478.460938 349.550781 477.753906 350.433594 476.777344 351.085938 C 475.800781 351.742188 474.488281 352.160156 472.84375 352.34375 L 472.84375 352.570312 C 473.425781 352.691406 474.035156 352.929688 474.667969 353.28125 C 475.300781 353.628906 475.886719 354.125 476.417969 354.765625 C 476.949219 355.402344 477.351562 356.222656 477.628906 357.230469 L 480.871094 367.09375 L 474.078125 367.09375 L 471.144531 357.367188 C 470.765625 356.269531 470.25 355.5 469.597656 355.058594 C 468.945312 354.621094 468.054688 354.398438 466.921875 354.398438 C 464.691406 354.398438 462.789062 354.390625 461.210938 354.375 C 459.632812 354.359375 458.320312 354.335938 457.273438 354.304688 C 456.226562 354.277344 455.308594 354.261719 454.519531 354.261719 L 454.675781 349.921875 L 466.921875 349.921875 C 468.46875 349.894531 469.683594 349.734375 470.578125 349.441406 C 471.46875 349.152344 472.101562 348.636719 472.480469 347.890625 C 472.859375 347.144531 473.046875 346.085938 473.046875 344.71875 C 473.046875 343.378906 472.859375 342.34375 472.480469 341.613281 C 472.101562 340.882812 471.46875 340.371094 470.578125 340.082031 C 469.683594 339.792969 468.46875 339.648438 466.921875 339.648438 C 463.902344 339.648438 461.3125 339.664062 459.152344 339.695312 C 456.992188 339.722656 455.515625 339.753906 454.726562 339.785156 L 454.007812 335.585938 C 455.378906 335.460938 456.671875 335.371094 457.890625 335.3125 C 459.109375 335.25 460.4375 335.210938 461.878906 335.195312 C 463.320312 335.179688 465.050781 335.171875 467.078125 335.171875 "/>
</svg>
