<?xml version="1.0" encoding="UTF-8"?>
<svg xmlns="http://www.w3.org/2000/svg" xmlns:xlink="http://www.w3.org/1999/xlink" width="566.929pt" height="708.661pt" viewBox="0 0 566.929 708.661">
<defs>
<clipPath id="clip-0">
<path clip-rule="nonzero" d="M 0.101562 0 L 566.757812 0 L 566.757812 708.320312 L 0.101562 708.320312 Z M 0.101562 0 "/>
</clipPath>
</defs>
<g clip-path="url(#clip-0)">
<path fill-rule="nonzero" fill="rgb(28.199768%, 40.79895%, 39.199829%)" fill-opacity="1" d="M 0.101562 708.320312 L 566.757812 708.320312 L 566.757812 0 L 0.101562 0 Z M 0.101562 708.320312 "/>
</g>
<path fill-rule="nonzero" fill="rgb(100%, 100%, 100%)" fill-opacity="1" d="M 314.96875 338.511719 L 311.625 338.511719 L 311.625 293.398438 L 311.617188 293.34375 C 310.863281 289.234375 308.941406 283.140625 304.050781 277.425781 C 298.667969 271.148438 292.285156 268.285156 287.875 266.992188 L 287.699219 266.941406 L 287.523438 266.988281 C 283.011719 268.269531 276.453125 271.117188 270.839844 277.417969 C 265.789062 283.089844 263.65625 289.199219 262.757812 293.320312 L 262.746094 293.386719 L 262.746094 338.511719 L 259.402344 338.511719 L 259.402344 293.027344 L 259.492188 292.613281 C 260.476562 288.09375 262.808594 281.410156 268.34375 275.195312 C 274.492188 268.289062 281.671875 265.171875 286.613281 263.773438 L 287.714844 263.460938 L 288.816406 263.785156 C 293.660156 265.203125 300.675781 268.347656 306.589844 275.253906 C 311.96875 281.53125 314.082031 288.226562 314.90625 292.742188 L 314.96875 293.246094 Z M 314.96875 338.511719 "/>
<path fill-rule="nonzero" fill="rgb(100%, 100%, 100%)" fill-opacity="1" d="M 336.367188 357.90625 L 333.023438 357.90625 L 333.023438 312.792969 L 333.015625 312.738281 C 332.261719 308.628906 330.339844 302.53125 325.449219 296.820312 C 320.066406 290.539062 313.683594 287.679688 309.273438 286.386719 L 309.097656 286.332031 L 308.921875 286.382812 C 304.410156 287.664062 297.851562 290.507812 292.238281 296.8125 C 287.1875 302.484375 285.054688 308.589844 284.15625 312.714844 L 284.144531 312.777344 L 284.144531 357.90625 L 280.800781 357.90625 L 280.800781 312.421875 L 280.890625 312.003906 C 281.875 307.488281 284.207031 300.800781 289.742188 294.585938 C 295.890625 287.683594 303.070312 284.566406 308.011719 283.167969 L 309.117188 282.851562 L 310.214844 283.175781 C 315.058594 284.597656 322.074219 287.742188 327.988281 294.644531 C 333.367188 300.925781 335.480469 307.621094 336.304688 312.132812 L 336.367188 312.640625 Z M 336.367188 357.90625 "/>
<path fill-rule="nonzero" fill="rgb(100%, 100%, 100%)" fill-opacity="1" d="M 294.910156 344.53125 L 291.566406 344.53125 L 291.566406 299.417969 L 291.554688 299.363281 C 290.804688 295.253906 288.882812 289.15625 283.988281 283.445312 C 278.609375 277.164062 272.222656 274.304688 267.8125 273.011719 L 267.640625 272.957031 L 267.464844 273.007812 C 262.949219 274.289062 256.394531 277.132812 250.78125 283.4375 C 245.726562 289.109375 243.59375 295.214844 242.699219 299.339844 L 242.683594 299.402344 L 242.683594 344.53125 L 239.339844 344.53125 L 239.339844 299.046875 L 239.429688 298.632812 C 240.414062 294.113281 242.746094 287.425781 248.28125 281.210938 C 254.433594 274.308594 261.609375 271.191406 266.550781 269.792969 L 267.65625 269.480469 L 268.753906 269.800781 C 273.597656 271.222656 280.613281 274.367188 286.527344 281.269531 C 291.90625 287.550781 294.019531 294.246094 294.84375 298.757812 L 294.910156 299.265625 Z M 294.910156 344.53125 "/>
<path fill-rule="nonzero" fill="rgb(100%, 100%, 100%)" fill-opacity="1" d="M 167.789062 407.394531 L 160.730469 407.394531 L 160.730469 372.808594 L 167.789062 372.808594 Z M 161.351562 391.40625 L 144.632812 391.40625 L 144.632812 386.492188 L 161.351562 386.492188 Z M 145.085938 407.394531 L 138.023438 407.394531 L 138.023438 372.808594 L 145.085938 372.808594 Z M 145.085938 407.394531 "/>
<path fill-rule="nonzero" fill="rgb(100%, 100%, 100%)" fill-opacity="1" d="M 177.167969 386.992188 L 199.421875 386.992188 L 199.421875 391.605469 L 177.167969 391.605469 Z M 184.171875 372.707031 L 190.1875 372.707031 C 192.238281 372.707031 194.265625 372.742188 196.261719 372.808594 C 198.253906 372.875 200.136719 372.976562 201.910156 373.109375 L 201.570312 377.769531 L 186.316406 377.769531 C 185.265625 377.769531 184.484375 378.003906 183.976562 378.472656 C 183.464844 378.941406 183.210938 379.675781 183.210938 380.679688 L 183.210938 399.523438 C 183.210938 400.527344 183.464844 401.261719 183.976562 401.730469 C 184.484375 402.199219 185.265625 402.433594 186.316406 402.433594 L 201.570312 402.433594 L 201.910156 407.09375 C 200.136719 407.226562 198.253906 407.316406 196.261719 407.367188 C 194.265625 407.417969 192.238281 407.453125 190.1875 407.46875 C 188.136719 407.484375 186.128906 407.492188 184.171875 407.492188 C 181.761719 407.492188 179.832031 406.902344 178.382812 405.714844 C 176.933594 404.527344 176.1875 402.933594 176.152344 400.929688 L 176.152344 379.277344 C 176.1875 377.269531 176.933594 375.675781 178.382812 374.488281 C 179.832031 373.300781 181.761719 372.707031 184.171875 372.707031 "/>
<path fill-rule="nonzero" fill="rgb(100%, 100%, 100%)" fill-opacity="1" d="M 215.746094 407.394531 L 208.6875 407.394531 L 208.6875 372.808594 L 215.746094 372.808594 Z M 215.746094 407.394531 "/>
<path fill-rule="nonzero" fill="rgb(100%, 100%, 100%)" fill-opacity="1" d="M 263.023438 372.808594 C 264.796875 372.808594 265.699219 373.609375 265.738281 375.214844 L 267.261719 407.394531 L 260.539062 407.394531 L 259.183594 377.769531 L 258.109375 377.769531 L 250.824219 400.976562 C 250.484375 402.347656 249.523438 403.03125 247.941406 403.03125 L 242.972656 403.03125 C 241.351562 403.03125 240.355469 402.347656 239.980469 400.976562 L 232.691406 377.769531 L 231.617188 377.769531 L 230.375 407.394531 L 223.65625 407.394531 L 225.179688 375.214844 C 225.253906 373.609375 226.160156 372.808594 227.890625 372.808594 L 234.953125 372.808594 C 236.457031 372.808594 237.398438 373.496094 237.777344 374.863281 L 243.761719 393.808594 C 244.027344 394.613281 244.242188 395.414062 244.414062 396.214844 C 244.582031 397.019531 244.78125 397.820312 245.007812 398.621094 L 245.851562 398.621094 C 246.078125 397.820312 246.285156 397.019531 246.476562 396.214844 C 246.664062 395.414062 246.871094 394.597656 247.09375 393.761719 L 253.085938 374.863281 C 253.421875 373.496094 254.382812 372.808594 255.964844 372.808594 Z M 263.023438 372.808594 "/>
<path fill-rule="nonzero" fill="rgb(100%, 100%, 100%)" fill-opacity="1" d="M 282.285156 407.394531 L 275.226562 407.394531 L 275.226562 372.808594 L 282.285156 372.808594 Z M 289.910156 372.359375 C 292.847656 372.359375 295.34375 372.652344 297.394531 373.234375 C 299.449219 373.820312 301.105469 374.789062 302.367188 376.140625 C 303.628906 377.496094 304.542969 379.316406 305.105469 381.605469 C 305.671875 383.894531 305.953125 386.726562 305.953125 390.101562 C 305.953125 393.476562 305.671875 396.308594 305.105469 398.597656 C 304.542969 400.886719 303.628906 402.707031 302.367188 404.058594 C 301.105469 405.414062 299.449219 406.382812 297.394531 406.96875 C 295.34375 407.550781 292.847656 407.84375 289.910156 407.84375 C 287.085938 407.84375 284.46875 407.804688 282.058594 407.71875 C 279.648438 407.636719 277.371094 407.527344 275.226562 407.394531 L 278.160156 402.582031 C 279.667969 402.648438 281.402344 402.707031 283.359375 402.757812 C 285.316406 402.808594 287.5 402.832031 289.910156 402.832031 C 292.09375 402.832031 293.816406 402.457031 295.078125 401.703125 C 296.339844 400.953125 297.234375 399.648438 297.761719 397.796875 C 298.289062 395.941406 298.554688 393.375 298.554688 390.101562 C 298.554688 386.828125 298.289062 384.261719 297.761719 382.40625 C 297.234375 380.554688 296.339844 379.242188 295.078125 378.472656 C 293.816406 377.703125 292.09375 377.320312 289.910156 377.320312 C 287.574219 377.320312 285.496094 377.335938 283.667969 377.371094 C 281.84375 377.40625 280.0625 377.421875 278.332031 377.421875 L 275.226562 372.808594 C 277.371094 372.675781 279.640625 372.566406 282.03125 372.484375 C 284.421875 372.402344 287.050781 372.359375 289.910156 372.359375 "/>
<path fill-rule="nonzero" fill="rgb(100%, 100%, 100%)" fill-opacity="1" d="M 336.792969 397.519531 L 316.742188 397.519531 L 316.742188 392.609375 L 336.792969 392.609375 Z M 330.242188 372.808594 C 330.84375 372.808594 331.371094 372.960938 331.824219 373.261719 C 332.273438 373.5625 332.59375 373.960938 332.785156 374.460938 L 344.589844 407.394531 L 337.359375 407.394531 L 328.433594 380.730469 C 328.285156 380.195312 328.132812 379.660156 327.980469 379.125 C 327.832031 378.589844 327.699219 378.070312 327.585938 377.570312 L 326.003906 377.570312 C 325.890625 378.070312 325.761719 378.589844 325.609375 379.125 C 325.457031 379.660156 325.289062 380.195312 325.101562 380.730469 L 316.234375 407.394531 L 309.003906 407.394531 L 320.808594 374.460938 C 320.960938 373.960938 321.269531 373.5625 321.742188 373.261719 C 322.210938 372.960938 322.75 372.808594 323.351562 372.808594 Z M 330.242188 372.808594 "/>
<path fill-rule="nonzero" fill="rgb(100%, 100%, 100%)" fill-opacity="1" d="M 356.113281 372.808594 L 356.113281 399.375 C 356.113281 400.34375 356.402344 401.070312 356.988281 401.554688 C 357.570312 402.039062 358.410156 402.28125 359.5 402.28125 L 373.285156 402.28125 L 373.621094 407.042969 C 371.0625 407.242188 368.398438 407.367188 365.628906 407.417969 C 362.863281 407.46875 360.125 407.492188 357.410156 407.492188 C 354.550781 407.492188 352.449219 406.84375 351.113281 405.539062 C 349.777344 404.234375 349.109375 402.582031 349.109375 400.578125 L 349.109375 372.808594 Z M 356.113281 372.808594 "/>
<path fill-rule="nonzero" fill="rgb(100%, 100%, 100%)" fill-opacity="1" d="M 385.824219 372.808594 L 385.824219 399.375 C 385.824219 400.34375 386.113281 401.070312 386.699219 401.554688 C 387.28125 402.039062 388.121094 402.28125 389.214844 402.28125 L 402.996094 402.28125 L 403.335938 407.042969 C 400.773438 407.242188 398.109375 407.367188 395.339844 407.417969 C 392.574219 407.46875 389.835938 407.492188 387.121094 407.492188 C 384.261719 407.492188 382.160156 406.84375 380.824219 405.539062 C 379.488281 404.234375 378.820312 402.582031 378.820312 400.578125 L 378.820312 372.808594 Z M 385.824219 372.808594 "/>
<path fill-rule="nonzero" fill="rgb(100%, 100%, 100%)" fill-opacity="1" d="M 415.589844 407.394531 L 408.644531 407.394531 L 408.644531 372.808594 L 415.589844 372.808594 Z M 422.992188 372.359375 C 426.226562 372.359375 428.855469 372.660156 430.867188 373.261719 C 432.882812 373.863281 434.351562 374.890625 435.277344 376.34375 C 436.199219 377.796875 436.660156 379.84375 436.660156 382.484375 C 436.660156 384.222656 436.425781 385.699219 435.953125 386.917969 C 435.484375 388.140625 434.710938 389.109375 433.636719 389.824219 C 432.5625 390.546875 431.125 391.003906 429.316406 391.203125 L 429.316406 391.453125 C 429.957031 391.589844 430.625 391.847656 431.320312 392.230469 C 432.019531 392.617188 432.65625 393.160156 433.242188 393.859375 C 433.824219 394.5625 434.269531 395.464844 434.570312 396.566406 L 438.128906 407.394531 L 430.671875 407.394531 L 427.453125 396.71875 C 427.035156 395.515625 426.472656 394.671875 425.757812 394.1875 C 425.042969 393.703125 424.0625 393.460938 422.820312 393.460938 C 420.371094 393.460938 418.28125 393.453125 416.550781 393.433594 C 414.820312 393.417969 413.378906 393.394531 412.230469 393.359375 C 411.082031 393.328125 410.074219 393.308594 409.207031 393.308594 L 409.378906 388.546875 L 422.820312 388.546875 C 424.515625 388.515625 425.851562 388.339844 426.832031 388.019531 C 427.808594 387.703125 428.507812 387.136719 428.921875 386.316406 C 429.335938 385.5 429.542969 384.335938 429.542969 382.832031 C 429.542969 381.363281 429.335938 380.226562 428.921875 379.425781 C 428.507812 378.621094 427.808594 378.0625 426.832031 377.746094 C 425.851562 377.429688 424.515625 377.269531 422.820312 377.269531 C 419.507812 377.269531 416.664062 377.285156 414.289062 377.320312 C 411.917969 377.355469 410.296875 377.386719 409.433594 377.421875 L 408.644531 372.808594 C 410.148438 372.675781 411.570312 372.574219 412.90625 372.507812 C 414.242188 372.441406 415.703125 372.402344 417.285156 372.382812 C 418.867188 372.367188 420.769531 372.359375 422.992188 372.359375 "/>
</svg>
