<?xml version="1.0" encoding="UTF-8"?>
<svg xmlns="http://www.w3.org/2000/svg" xmlns:xlink="http://www.w3.org/1999/xlink" width="566.929pt" height="708.661pt" viewBox="0 0 566.929 708.661">
<defs>
<clipPath id="clip-0">
<path clip-rule="nonzero" d="M 0.101562 0 L 566.757812 0 L 566.757812 708.320312 L 0.101562 708.320312 Z M 0.101562 0 "/>
</clipPath>
</defs>
<g clip-path="url(#clip-0)">
<path fill-rule="nonzero" fill="rgb(100%, 100%, 100%)" fill-opacity="1" d="M 0.101562 708.320312 L 566.757812 708.320312 L 566.757812 0 L 0.101562 0 Z M 0.101562 708.320312 "/>
</g>
<path fill-rule="nonzero" fill="rgb(28.199768%, 40.79895%, 39.199829%)" fill-opacity="1" d="M 136.234375 325.417969 L 136.136719 325.386719 L 136.039062 325.417969 C 134.261719 325.921875 131.917969 326.878906 129.589844 328.628906 C 131.53125 329.667969 133.605469 331.160156 135.484375 333.355469 C 137.132812 335.28125 138.21875 337.269531 138.945312 339.09375 C 141.929688 336.414062 145.109375 335.066406 147.417969 334.414062 C 146.839844 333.355469 146.132812 332.277344 145.226562 331.21875 C 142.234375 327.726562 138.683594 326.136719 136.234375 325.417969 "/>
<path fill-rule="nonzero" fill="rgb(28.199768%, 40.79895%, 39.199829%)" fill-opacity="1" d="M 163.191406 375.957031 L 161.332031 375.957031 L 161.332031 350.878906 L 161.328125 350.847656 C 160.910156 348.5625 159.839844 345.175781 157.121094 342 C 155.027344 339.554688 152.667969 338.054688 150.59375 337.121094 C 150.902344 338.074219 151.121094 338.964844 151.257812 339.730469 L 151.296875 340.011719 L 151.296875 365.175781 L 149.4375 365.175781 L 149.4375 340.097656 L 149.429688 340.066406 C 149.234375 338.996094 148.886719 337.675781 148.300781 336.253906 C 148.246094 336.234375 148.183594 336.214844 148.128906 336.199219 L 148.03125 336.167969 L 147.933594 336.195312 C 145.679688 336.835938 142.503906 338.195312 139.617188 341.011719 C 139.835938 341.757812 139.992188 342.457031 140.105469 343.078125 L 140.144531 343.359375 L 140.144531 368.523438 L 138.285156 368.523438 L 138.285156 343.445312 L 138.277344 343.414062 C 138.234375 343.171875 138.179688 342.914062 138.121094 342.652344 C 135.707031 345.613281 134.632812 348.699219 134.167969 350.835938 L 134.160156 350.871094 L 134.160156 375.957031 L 132.300781 375.957031 L 132.300781 350.671875 L 132.351562 350.441406 C 132.898438 347.929688 134.195312 344.210938 137.273438 340.757812 C 137.347656 340.671875 137.429688 340.601562 137.503906 340.519531 C 136.851562 338.671875 135.796875 336.574219 134.074219 334.566406 C 132.144531 332.3125 129.988281 330.859375 128.039062 329.914062 C 127.609375 330.316406 127.179688 330.746094 126.765625 331.214844 C 123.953125 334.367188 122.769531 337.761719 122.269531 340.054688 L 122.261719 340.089844 L 122.261719 365.175781 L 120.402344 365.175781 L 120.402344 339.890625 L 120.457031 339.660156 C 121 337.148438 122.300781 333.433594 125.375 329.976562 C 125.644531 329.675781 125.921875 329.410156 126.195312 329.132812 C 125.808594 328.992188 125.429688 328.867188 125.082031 328.761719 L 124.984375 328.734375 L 124.886719 328.761719 C 122.378906 329.472656 118.730469 331.054688 115.613281 334.558594 C 112.804688 337.714844 111.617188 341.109375 111.117188 343.398438 L 111.109375 343.4375 L 111.109375 368.523438 L 109.253906 368.523438 L 109.253906 343.238281 L 109.300781 343.007812 C 109.847656 340.496094 111.148438 336.777344 114.222656 333.324219 C 117.640625 329.484375 121.632812 327.753906 124.378906 326.972656 L 124.992188 326.800781 L 125.605469 326.980469 C 126.25 327.167969 126.964844 327.417969 127.722656 327.730469 C 130.507812 325.429688 133.394531 324.234375 135.53125 323.628906 L 136.144531 323.453125 L 136.757812 323.632812 C 139.449219 324.421875 143.347656 326.171875 146.636719 330.011719 C 147.988281 331.585938 148.953125 333.203125 149.660156 334.742188 C 152.265625 335.652344 155.636719 337.40625 158.53125 340.789062 C 161.523438 344.28125 162.695312 348.003906 163.15625 350.511719 L 163.191406 350.792969 Z M 163.191406 311.757812 L 108.335938 311.757812 C 102.304688 311.757812 97.367188 316.695312 97.367188 322.726562 L 97.367188 377.582031 C 97.367188 383.617188 102.304688 388.550781 108.335938 388.550781 L 163.191406 388.550781 C 169.226562 388.550781 174.164062 383.617188 174.164062 377.582031 L 174.164062 322.726562 C 174.164062 316.695312 169.226562 311.757812 163.191406 311.757812 "/>
<path fill-rule="nonzero" fill="rgb(28.199768%, 40.79895%, 39.199829%)" fill-opacity="1" d="M 225.816406 364.90625 L 219.355469 364.90625 L 219.355469 333.273438 L 225.816406 333.273438 Z M 219.925781 350.28125 L 204.632812 350.28125 L 204.632812 345.789062 L 219.925781 345.789062 Z M 205.046875 364.90625 L 198.589844 364.90625 L 198.589844 333.273438 L 205.046875 333.273438 Z M 205.046875 364.90625 "/>
<path fill-rule="nonzero" fill="rgb(28.199768%, 40.79895%, 39.199829%)" fill-opacity="1" d="M 234.390625 346.25 L 254.75 346.25 L 254.75 350.464844 L 234.390625 350.464844 Z M 240.796875 333.179688 L 246.300781 333.179688 C 248.175781 333.179688 250.027344 333.210938 251.855469 333.273438 C 253.679688 333.335938 255.402344 333.425781 257.019531 333.546875 L 256.710938 337.8125 L 242.761719 337.8125 C 241.796875 337.8125 241.082031 338.027344 240.617188 338.453125 C 240.152344 338.882812 239.917969 339.554688 239.917969 340.472656 L 239.917969 357.707031 C 239.917969 358.625 240.152344 359.296875 240.617188 359.726562 C 241.082031 360.15625 241.796875 360.367188 242.761719 360.367188 L 256.710938 360.367188 L 257.019531 364.632812 C 255.402344 364.753906 253.679688 364.839844 251.855469 364.882812 C 250.027344 364.929688 248.175781 364.960938 246.300781 364.976562 C 244.421875 364.992188 242.589844 365 240.796875 365 C 238.59375 365 236.828125 364.457031 235.503906 363.371094 C 234.175781 362.285156 233.496094 360.828125 233.460938 358.992188 L 233.460938 339.1875 C 233.496094 337.355469 234.175781 335.894531 235.503906 334.808594 C 236.828125 333.726562 238.59375 333.179688 240.796875 333.179688 "/>
<path fill-rule="nonzero" fill="rgb(28.199768%, 40.79895%, 39.199829%)" fill-opacity="1" d="M 269.679688 364.90625 L 263.222656 364.90625 L 263.222656 333.273438 L 269.679688 333.273438 Z M 269.679688 364.90625 "/>
<path fill-rule="nonzero" fill="rgb(28.199768%, 40.79895%, 39.199829%)" fill-opacity="1" d="M 312.921875 333.273438 C 314.539062 333.273438 315.367188 334.007812 315.402344 335.476562 L 316.796875 364.90625 L 310.648438 364.90625 L 309.410156 337.8125 L 308.425781 337.8125 L 301.761719 359.039062 C 301.453125 360.292969 300.574219 360.917969 299.128906 360.917969 L 294.582031 360.917969 C 293.097656 360.917969 292.1875 360.292969 291.84375 359.039062 L 285.179688 337.8125 L 284.195312 337.8125 L 283.058594 364.90625 L 276.910156 364.90625 L 278.304688 335.476562 C 278.375 334.007812 279.203125 333.273438 280.785156 333.273438 L 287.246094 333.273438 C 288.621094 333.273438 289.484375 333.902344 289.828125 335.152344 L 295.304688 352.484375 C 295.542969 353.214844 295.742188 353.949219 295.898438 354.683594 C 296.054688 355.417969 296.234375 356.152344 296.441406 356.882812 L 297.214844 356.882812 C 297.421875 356.152344 297.613281 355.417969 297.785156 354.683594 C 297.957031 353.949219 298.144531 353.203125 298.351562 352.4375 L 303.828125 335.152344 C 304.140625 333.902344 305.015625 333.273438 306.464844 333.273438 Z M 312.921875 333.273438 "/>
<path fill-rule="nonzero" fill="rgb(28.199768%, 40.79895%, 39.199829%)" fill-opacity="1" d="M 330.539062 364.90625 L 324.082031 364.90625 L 324.082031 333.273438 L 330.539062 333.273438 Z M 337.515625 332.859375 C 340.199219 332.859375 342.480469 333.128906 344.359375 333.664062 C 346.238281 334.199219 347.75 335.085938 348.90625 336.320312 C 350.0625 337.558594 350.894531 339.226562 351.410156 341.320312 C 351.929688 343.414062 352.1875 346.003906 352.1875 349.089844 C 352.1875 352.175781 351.929688 354.769531 351.410156 356.859375 C 350.894531 358.957031 350.0625 360.621094 348.90625 361.859375 C 347.75 363.097656 346.238281 363.984375 344.359375 364.519531 C 342.480469 365.050781 340.199219 365.320312 337.515625 365.320312 C 334.929688 365.320312 332.535156 365.28125 330.332031 365.203125 C 328.128906 365.128906 326.042969 365.03125 324.082031 364.90625 L 326.769531 360.503906 C 328.144531 360.566406 329.730469 360.621094 331.523438 360.664062 C 333.3125 360.710938 335.308594 360.734375 337.515625 360.734375 C 339.511719 360.734375 341.085938 360.390625 342.242188 359.703125 C 343.394531 359.015625 344.214844 357.824219 344.695312 356.128906 C 345.179688 354.429688 345.417969 352.085938 345.417969 349.089844 C 345.417969 346.09375 345.179688 343.75 344.695312 342.054688 C 344.214844 340.355469 343.394531 339.15625 342.242188 338.453125 C 341.085938 337.75 339.511719 337.398438 337.515625 337.398438 C 335.378906 337.398438 333.476562 337.414062 331.804688 337.445312 C 330.132812 337.476562 328.507812 337.492188 326.921875 337.492188 L 324.082031 333.273438 C 326.042969 333.152344 328.117188 333.050781 330.308594 332.976562 C 332.492188 332.898438 334.898438 332.859375 337.515625 332.859375 "/>
<path fill-rule="nonzero" fill="rgb(28.199768%, 40.79895%, 39.199829%)" fill-opacity="1" d="M 380.398438 355.875 L 362.054688 355.875 L 362.054688 351.382812 L 380.398438 351.382812 Z M 374.402344 333.273438 C 374.953125 333.273438 375.4375 333.410156 375.851562 333.6875 C 376.261719 333.960938 376.554688 334.328125 376.730469 334.785156 L 387.527344 364.90625 L 380.914062 364.90625 L 372.75 340.515625 C 372.613281 340.027344 372.472656 339.539062 372.335938 339.050781 C 372.199219 338.5625 372.078125 338.085938 371.976562 337.628906 L 370.527344 337.628906 C 370.425781 338.085938 370.304688 338.5625 370.167969 339.050781 C 370.027344 339.539062 369.875 340.027344 369.703125 340.515625 L 361.589844 364.90625 L 354.976562 364.90625 L 365.773438 334.785156 C 365.914062 334.328125 366.195312 333.960938 366.628906 333.6875 C 367.058594 333.410156 367.550781 333.273438 368.101562 333.273438 Z M 374.402344 333.273438 "/>
<path fill-rule="nonzero" fill="rgb(28.199768%, 40.79895%, 39.199829%)" fill-opacity="1" d="M 398.066406 333.273438 L 398.066406 357.570312 C 398.066406 358.457031 398.332031 359.125 398.867188 359.566406 C 399.402344 360.007812 400.167969 360.230469 401.167969 360.230469 L 413.773438 360.230469 L 414.082031 364.585938 C 411.742188 364.769531 409.304688 364.882812 406.773438 364.929688 C 404.242188 364.976562 401.734375 365 399.253906 365 C 396.636719 365 394.714844 364.402344 393.496094 363.210938 C 392.269531 362.019531 391.660156 360.503906 391.660156 358.671875 L 391.660156 333.273438 Z M 398.066406 333.273438 "/>
<path fill-rule="nonzero" fill="rgb(28.199768%, 40.79895%, 39.199829%)" fill-opacity="1" d="M 425.242188 333.273438 L 425.242188 357.570312 C 425.242188 358.457031 425.507812 359.125 426.042969 359.566406 C 426.574219 360.007812 427.34375 360.230469 428.339844 360.230469 L 440.949219 360.230469 L 441.257812 364.585938 C 438.914062 364.769531 436.480469 364.882812 433.945312 364.929688 C 431.414062 364.976562 428.910156 365 426.429688 365 C 423.8125 365 421.890625 364.402344 420.667969 363.210938 C 419.445312 362.019531 418.835938 360.503906 418.835938 358.671875 L 418.835938 333.273438 Z M 425.242188 333.273438 "/>
<path fill-rule="nonzero" fill="rgb(28.199768%, 40.79895%, 39.199829%)" fill-opacity="1" d="M 452.46875 364.90625 L 446.113281 364.90625 L 446.113281 333.273438 L 452.46875 333.273438 Z M 459.238281 332.859375 C 462.199219 332.859375 464.601562 333.136719 466.445312 333.6875 C 468.285156 334.238281 469.628906 335.175781 470.472656 336.507812 C 471.316406 337.835938 471.738281 339.707031 471.738281 342.121094 C 471.738281 343.710938 471.523438 345.0625 471.09375 346.179688 C 470.664062 347.296875 469.957031 348.179688 468.976562 348.839844 C 467.996094 349.496094 466.675781 349.914062 465.023438 350.097656 L 465.023438 350.328125 C 465.609375 350.449219 466.21875 350.6875 466.855469 351.039062 C 467.496094 351.390625 468.082031 351.886719 468.613281 352.527344 C 469.148438 353.171875 469.550781 353.996094 469.828125 355.003906 L 473.082031 364.90625 L 466.261719 364.90625 L 463.320312 355.140625 C 462.9375 354.042969 462.421875 353.269531 461.769531 352.828125 C 461.113281 352.382812 460.21875 352.164062 459.082031 352.164062 C 456.84375 352.164062 454.929688 352.15625 453.347656 352.140625 C 451.761719 352.125 450.445312 352.101562 449.394531 352.070312 C 448.34375 352.039062 447.421875 352.023438 446.628906 352.023438 L 446.785156 347.667969 L 459.082031 347.667969 C 460.632812 347.640625 461.851562 347.480469 462.75 347.1875 C 463.644531 346.898438 464.28125 346.378906 464.660156 345.628906 C 465.039062 344.878906 465.230469 343.820312 465.230469 342.441406 C 465.230469 341.097656 465.039062 340.058594 464.660156 339.324219 C 464.28125 338.589844 463.644531 338.082031 462.75 337.789062 C 461.851562 337.5 460.632812 337.355469 459.082031 337.355469 C 456.050781 337.355469 453.449219 337.371094 451.28125 337.398438 C 449.109375 337.429688 447.628906 337.460938 446.835938 337.492188 L 446.113281 333.273438 C 447.492188 333.152344 448.792969 333.058594 450.015625 333 C 451.234375 332.9375 452.570312 332.898438 454.019531 332.882812 C 455.464844 332.867188 457.203125 332.859375 459.238281 332.859375 "/>
</svg>
