<?xml version="1.0" encoding="UTF-8"?>
<svg xmlns="http://www.w3.org/2000/svg" xmlns:xlink="http://www.w3.org/1999/xlink" width="566.929pt" height="708.661pt" viewBox="0 0 566.929 708.661">
<defs>
<clipPath id="clip-0">
<path clip-rule="nonzero" d="M 0.101562 0 L 566.757812 0 L 566.757812 708.320312 L 0.101562 708.320312 Z M 0.101562 0 "/>
</clipPath>
</defs>
<g clip-path="url(#clip-0)">
<path fill-rule="nonzero" fill="rgb(28.199768%, 40.79895%, 39.199829%)" fill-opacity="1" d="M 0.101562 708.320312 L 566.757812 708.320312 L 566.757812 0 L 0.101562 0 Z M 0.101562 708.320312 "/>
</g>
<path fill-rule="nonzero" fill="rgb(100%, 100%, 100%)" fill-opacity="1" d="M 137.375 325.417969 L 137.277344 325.386719 L 137.179688 325.417969 C 135.402344 325.921875 133.058594 326.878906 130.730469 328.628906 C 132.671875 329.667969 134.746094 331.160156 136.625 333.355469 C 138.273438 335.28125 139.359375 337.269531 140.085938 339.09375 C 143.070312 336.414062 146.25 335.066406 148.558594 334.414062 C 147.980469 333.355469 147.273438 332.277344 146.367188 331.21875 C 143.375 327.726562 139.824219 326.136719 137.375 325.417969 "/>
<path fill-rule="nonzero" fill="rgb(100%, 100%, 100%)" fill-opacity="1" d="M 164.332031 375.957031 L 162.472656 375.957031 L 162.472656 350.878906 L 162.46875 350.847656 C 162.050781 348.5625 160.984375 345.175781 158.261719 342 C 156.167969 339.554688 153.808594 338.054688 151.734375 337.121094 C 152.042969 338.074219 152.261719 338.964844 152.402344 339.730469 L 152.4375 340.011719 L 152.4375 365.175781 L 150.578125 365.175781 L 150.578125 340.097656 L 150.574219 340.066406 C 150.375 338.996094 150.027344 337.675781 149.441406 336.253906 C 149.386719 336.234375 149.324219 336.214844 149.269531 336.199219 L 149.175781 336.167969 L 149.078125 336.195312 C 146.820312 336.835938 143.644531 338.195312 140.757812 341.011719 C 140.976562 341.757812 141.136719 342.457031 141.246094 343.078125 L 141.285156 343.359375 L 141.285156 368.523438 L 139.425781 368.523438 L 139.425781 343.445312 L 139.417969 343.414062 C 139.375 343.171875 139.320312 342.914062 139.261719 342.652344 C 136.851562 345.613281 135.773438 348.699219 135.308594 350.835938 L 135.300781 350.871094 L 135.300781 375.957031 L 133.441406 375.957031 L 133.441406 350.671875 L 133.492188 350.441406 C 134.039062 347.929688 135.335938 344.210938 138.414062 340.757812 C 138.488281 340.671875 138.570312 340.601562 138.644531 340.519531 C 137.996094 338.671875 136.9375 336.574219 135.214844 334.566406 C 133.285156 332.3125 131.128906 330.859375 129.183594 329.914062 C 128.75 330.316406 128.320312 330.746094 127.90625 331.214844 C 125.09375 334.367188 123.910156 337.761719 123.414062 340.054688 L 123.40625 340.089844 L 123.40625 365.175781 L 121.546875 365.175781 L 121.546875 339.890625 L 121.597656 339.660156 C 122.144531 337.148438 123.441406 333.433594 126.515625 329.976562 C 126.785156 329.675781 127.0625 329.410156 127.335938 329.132812 C 126.949219 328.992188 126.570312 328.867188 126.222656 328.761719 L 126.125 328.734375 L 126.027344 328.761719 C 123.519531 329.472656 119.875 331.054688 116.753906 334.558594 C 113.945312 337.714844 112.757812 341.109375 112.261719 343.398438 L 112.25 343.4375 L 112.25 368.523438 L 110.394531 368.523438 L 110.394531 343.238281 L 110.445312 343.007812 C 110.992188 340.496094 112.289062 336.777344 115.363281 333.324219 C 118.78125 329.484375 122.773438 327.753906 125.519531 326.972656 L 126.132812 326.800781 L 126.746094 326.980469 C 127.390625 327.167969 128.105469 327.417969 128.863281 327.730469 C 131.652344 325.429688 134.539062 324.234375 136.671875 323.628906 L 137.285156 323.453125 L 137.898438 323.632812 C 140.589844 324.421875 144.492188 326.171875 147.777344 330.011719 C 149.128906 331.585938 150.09375 333.203125 150.804688 334.742188 C 153.40625 335.652344 156.777344 337.40625 159.675781 340.789062 C 162.664062 344.28125 163.839844 348.003906 164.296875 350.511719 L 164.332031 350.792969 Z M 164.332031 311.757812 L 109.480469 311.757812 C 103.445312 311.757812 98.507812 316.695312 98.507812 322.726562 L 98.507812 377.582031 C 98.507812 383.617188 103.445312 388.550781 109.480469 388.550781 L 164.332031 388.550781 C 170.367188 388.550781 175.304688 383.617188 175.304688 377.582031 L 175.304688 322.726562 C 175.304688 316.695312 170.367188 311.757812 164.332031 311.757812 "/>
<path fill-rule="nonzero" fill="rgb(100%, 100%, 100%)" fill-opacity="1" d="M 226.957031 364.90625 L 220.5 364.90625 L 220.5 333.273438 L 226.957031 333.273438 Z M 221.066406 350.28125 L 205.773438 350.28125 L 205.773438 345.789062 L 221.066406 345.789062 Z M 206.1875 364.90625 L 199.730469 364.90625 L 199.730469 333.273438 L 206.1875 333.273438 Z M 206.1875 364.90625 "/>
<path fill-rule="nonzero" fill="rgb(100%, 100%, 100%)" fill-opacity="1" d="M 235.535156 346.25 L 255.890625 346.25 L 255.890625 350.464844 L 235.535156 350.464844 Z M 241.9375 333.179688 L 247.441406 333.179688 C 249.320312 333.179688 251.171875 333.210938 252.996094 333.273438 C 254.820312 333.335938 256.542969 333.425781 258.164062 333.546875 L 257.851562 337.8125 L 243.902344 337.8125 C 242.9375 337.8125 242.222656 338.027344 241.757812 338.453125 C 241.292969 338.882812 241.0625 339.554688 241.0625 340.472656 L 241.0625 357.707031 C 241.0625 358.625 241.292969 359.296875 241.757812 359.726562 C 242.222656 360.15625 242.9375 360.367188 243.902344 360.367188 L 257.851562 360.367188 L 258.164062 364.632812 C 256.542969 364.753906 254.820312 364.839844 252.996094 364.882812 C 251.171875 364.929688 249.320312 364.960938 247.441406 364.976562 C 245.566406 364.992188 243.730469 365 241.9375 365 C 239.734375 365 237.96875 364.457031 236.644531 363.371094 C 235.316406 362.285156 234.636719 360.828125 234.601562 358.992188 L 234.601562 339.1875 C 234.636719 337.355469 235.316406 335.894531 236.644531 334.808594 C 237.96875 333.726562 239.734375 333.179688 241.9375 333.179688 "/>
<path fill-rule="nonzero" fill="rgb(100%, 100%, 100%)" fill-opacity="1" d="M 270.820312 364.90625 L 264.363281 364.90625 L 264.363281 333.273438 L 270.820312 333.273438 Z M 270.820312 364.90625 "/>
<path fill-rule="nonzero" fill="rgb(100%, 100%, 100%)" fill-opacity="1" d="M 314.0625 333.273438 C 315.683594 333.273438 316.507812 334.007812 316.542969 335.476562 L 317.9375 364.90625 L 311.789062 364.90625 L 310.550781 337.8125 L 309.566406 337.8125 L 302.902344 359.039062 C 302.59375 360.292969 301.714844 360.917969 300.269531 360.917969 L 295.722656 360.917969 C 294.242188 360.917969 293.328125 360.292969 292.984375 359.039062 L 286.320312 337.8125 L 285.335938 337.8125 L 284.199219 364.90625 L 278.054688 364.90625 L 279.449219 335.476562 C 279.515625 334.007812 280.34375 333.273438 281.925781 333.273438 L 288.386719 333.273438 C 289.761719 333.273438 290.625 333.902344 290.96875 335.152344 L 296.445312 352.484375 C 296.683594 353.214844 296.882812 353.949219 297.039062 354.683594 C 297.195312 355.417969 297.375 356.152344 297.582031 356.882812 L 298.355469 356.882812 C 298.5625 356.152344 298.753906 355.417969 298.925781 354.683594 C 299.097656 353.949219 299.285156 353.203125 299.492188 352.4375 L 304.96875 335.152344 C 305.28125 333.902344 306.160156 333.273438 307.605469 333.273438 Z M 314.0625 333.273438 "/>
<path fill-rule="nonzero" fill="rgb(100%, 100%, 100%)" fill-opacity="1" d="M 331.679688 364.90625 L 325.222656 364.90625 L 325.222656 333.273438 L 331.679688 333.273438 Z M 338.65625 332.859375 C 341.34375 332.859375 343.621094 333.128906 345.5 333.664062 C 347.378906 334.199219 348.894531 335.085938 350.046875 336.320312 C 351.199219 337.558594 352.035156 339.226562 352.554688 341.320312 C 353.070312 343.414062 353.328125 346.003906 353.328125 349.089844 C 353.328125 352.175781 353.070312 354.769531 352.554688 356.859375 C 352.035156 358.957031 351.199219 360.621094 350.046875 361.859375 C 348.894531 363.097656 347.378906 363.984375 345.5 364.519531 C 343.621094 365.050781 341.34375 365.320312 338.65625 365.320312 C 336.074219 365.320312 333.675781 365.28125 331.472656 365.203125 C 329.269531 365.128906 327.1875 365.03125 325.222656 364.90625 L 327.910156 360.503906 C 329.285156 360.566406 330.871094 360.621094 332.660156 360.664062 C 334.453125 360.710938 336.449219 360.734375 338.65625 360.734375 C 340.652344 360.734375 342.226562 360.390625 343.382812 359.703125 C 344.535156 359.015625 345.355469 357.824219 345.835938 356.128906 C 346.320312 354.429688 346.558594 352.085938 346.558594 349.089844 C 346.558594 346.09375 346.320312 343.75 345.835938 342.054688 C 345.355469 340.355469 344.535156 339.15625 343.382812 338.453125 C 342.226562 337.75 340.652344 337.398438 338.65625 337.398438 C 336.519531 337.398438 334.617188 337.414062 332.945312 337.445312 C 331.277344 337.476562 329.648438 337.492188 328.0625 337.492188 L 325.222656 333.273438 C 327.1875 333.152344 329.261719 333.050781 331.449219 332.976562 C 333.632812 332.898438 336.039062 332.859375 338.65625 332.859375 "/>
<path fill-rule="nonzero" fill="rgb(100%, 100%, 100%)" fill-opacity="1" d="M 381.539062 355.875 L 363.195312 355.875 L 363.195312 351.382812 L 381.539062 351.382812 Z M 375.546875 333.273438 C 376.09375 333.273438 376.578125 333.410156 376.992188 333.6875 C 377.40625 333.960938 377.699219 334.328125 377.871094 334.785156 L 388.667969 364.90625 L 382.054688 364.90625 L 373.890625 340.515625 C 373.753906 340.027344 373.617188 339.539062 373.476562 339.050781 C 373.339844 338.5625 373.21875 338.085938 373.117188 337.628906 L 371.671875 337.628906 C 371.566406 338.085938 371.445312 338.5625 371.308594 339.050781 C 371.171875 339.539062 371.015625 340.027344 370.84375 340.515625 L 362.730469 364.90625 L 356.117188 364.90625 L 366.917969 334.785156 C 367.054688 334.328125 367.339844 333.960938 367.769531 333.6875 C 368.199219 333.410156 368.691406 333.273438 369.242188 333.273438 Z M 375.546875 333.273438 "/>
<path fill-rule="nonzero" fill="rgb(100%, 100%, 100%)" fill-opacity="1" d="M 399.207031 333.273438 L 399.207031 357.570312 C 399.207031 358.457031 399.472656 359.125 400.007812 359.566406 C 400.542969 360.007812 401.308594 360.230469 402.308594 360.230469 L 414.914062 360.230469 L 415.222656 364.585938 C 412.882812 364.769531 410.445312 364.882812 407.914062 364.929688 C 405.382812 364.976562 402.875 365 400.394531 365 C 397.777344 365 395.855469 364.402344 394.636719 363.210938 C 393.414062 362.019531 392.800781 360.503906 392.800781 358.671875 L 392.800781 333.273438 Z M 399.207031 333.273438 "/>
<path fill-rule="nonzero" fill="rgb(100%, 100%, 100%)" fill-opacity="1" d="M 426.382812 333.273438 L 426.382812 357.570312 C 426.382812 358.457031 426.648438 359.125 427.183594 359.566406 C 427.714844 360.007812 428.484375 360.230469 429.484375 360.230469 L 442.089844 360.230469 L 442.398438 364.585938 C 440.054688 364.769531 437.621094 364.882812 435.089844 364.929688 C 432.554688 364.976562 430.050781 365 427.570312 365 C 424.953125 365 423.03125 364.402344 421.808594 363.210938 C 420.585938 362.019531 419.976562 360.503906 419.976562 358.671875 L 419.976562 333.273438 Z M 426.382812 333.273438 "/>
<path fill-rule="nonzero" fill="rgb(100%, 100%, 100%)" fill-opacity="1" d="M 453.609375 364.90625 L 447.253906 364.90625 L 447.253906 333.273438 L 453.609375 333.273438 Z M 460.378906 332.859375 C 463.339844 332.859375 465.742188 333.136719 467.585938 333.6875 C 469.425781 334.238281 470.769531 335.175781 471.617188 336.507812 C 472.460938 337.835938 472.882812 339.707031 472.882812 342.121094 C 472.882812 343.710938 472.664062 345.0625 472.234375 346.179688 C 471.804688 347.296875 471.097656 348.179688 470.117188 348.839844 C 469.132812 349.496094 467.816406 349.914062 466.164062 350.097656 L 466.164062 350.328125 C 466.75 350.449219 467.359375 350.6875 468 351.039062 C 468.636719 351.390625 469.21875 351.886719 469.753906 352.527344 C 470.289062 353.171875 470.691406 353.996094 470.96875 355.003906 L 474.222656 364.90625 L 467.40625 364.90625 L 464.460938 355.140625 C 464.082031 354.042969 463.5625 353.269531 462.910156 352.828125 C 462.253906 352.382812 461.359375 352.164062 460.222656 352.164062 C 457.984375 352.164062 456.070312 352.15625 454.488281 352.140625 C 452.902344 352.125 451.585938 352.101562 450.535156 352.070312 C 449.484375 352.039062 448.5625 352.023438 447.769531 352.023438 L 447.925781 347.667969 L 460.222656 347.667969 C 461.773438 347.640625 462.996094 347.480469 463.890625 347.1875 C 464.785156 346.898438 465.421875 346.378906 465.800781 345.628906 C 466.179688 344.878906 466.371094 343.820312 466.371094 342.441406 C 466.371094 341.097656 466.179688 340.058594 465.800781 339.324219 C 465.421875 338.589844 464.785156 338.082031 463.890625 337.789062 C 462.996094 337.5 461.773438 337.355469 460.222656 337.355469 C 457.191406 337.355469 454.589844 337.371094 452.421875 337.398438 C 450.25 337.429688 448.769531 337.460938 447.976562 337.492188 L 447.253906 333.273438 C 448.632812 333.152344 449.933594 333.058594 451.15625 333 C 452.378906 332.9375 453.714844 332.898438 455.160156 332.882812 C 456.605469 332.867188 458.347656 332.859375 460.378906 332.859375 "/>
</svg>
