<?xml version="1.0" encoding="UTF-8"?>
<svg xmlns="http://www.w3.org/2000/svg" xmlns:xlink="http://www.w3.org/1999/xlink" width="566.929pt" height="708.661pt" viewBox="0 0 566.929 708.661">
<path fill-rule="nonzero" fill="rgb(0%, 0%, 0%)" fill-opacity="1" d="M 327.140625 388.496094 L 323.796875 388.496094 L 323.796875 343.386719 L 323.785156 343.328125 C 323.035156 339.21875 321.113281 333.125 316.214844 327.414062 C 310.832031 321.132812 304.441406 318.269531 300.027344 316.976562 L 299.855469 316.925781 L 299.675781 316.976562 C 295.160156 318.253906 288.597656 321.101562 282.980469 327.402344 C 277.921875 333.078125 275.792969 339.183594 274.890625 343.304688 L 274.878906 343.371094 L 274.878906 388.496094 L 271.53125 388.496094 L 271.53125 343.015625 L 271.625 342.597656 C 272.609375 338.082031 274.941406 331.394531 280.480469 325.179688 C 286.636719 318.277344 293.820312 315.160156 298.765625 313.757812 L 299.867188 313.445312 L 300.96875 313.769531 C 305.816406 315.191406 312.835938 318.335938 318.753906 325.238281 C 324.136719 331.515625 326.25 338.214844 327.078125 342.726562 L 327.140625 343.230469 Z M 327.140625 388.496094 "/>
<path fill-rule="nonzero" fill="rgb(0%, 0%, 0%)" fill-opacity="1" d="M 348.558594 407.890625 L 345.210938 407.890625 L 345.210938 362.777344 L 345.199219 362.722656 C 344.449219 358.613281 342.527344 352.519531 337.628906 346.804688 C 332.246094 340.527344 325.855469 337.664062 321.441406 336.371094 L 321.269531 336.320312 L 321.09375 336.367188 C 316.574219 337.648438 310.011719 340.496094 304.394531 346.796875 C 299.339844 352.46875 297.207031 358.574219 296.308594 362.699219 L 296.292969 362.765625 L 296.292969 407.890625 L 292.949219 407.890625 L 292.949219 362.40625 L 293.039062 361.992188 C 294.023438 357.472656 296.355469 350.789062 301.898438 344.574219 C 308.050781 337.667969 315.234375 334.550781 320.179688 333.152344 L 321.285156 332.839844 L 322.386719 333.160156 C 327.234375 334.582031 334.253906 337.726562 340.171875 344.628906 C 345.550781 350.910156 347.667969 357.605469 348.492188 362.117188 L 348.558594 362.625 Z M 348.558594 407.890625 "/>
<path fill-rule="nonzero" fill="rgb(0%, 0%, 0%)" fill-opacity="1" d="M 307.066406 394.515625 L 303.71875 394.515625 L 303.71875 349.402344 L 303.710938 349.347656 C 302.957031 345.238281 301.035156 339.144531 296.136719 333.433594 C 290.753906 327.152344 284.363281 324.289062 279.953125 322.996094 L 279.777344 322.945312 L 279.601562 322.992188 C 275.085938 324.273438 268.523438 327.121094 262.90625 333.421875 C 257.847656 339.09375 255.714844 345.203125 254.816406 349.324219 L 254.800781 349.390625 L 254.800781 394.515625 L 251.457031 394.515625 L 251.457031 349.03125 L 251.546875 348.617188 C 252.53125 344.097656 254.867188 337.414062 260.40625 331.199219 C 266.558594 324.292969 273.746094 321.175781 278.6875 319.777344 L 279.792969 319.464844 L 280.894531 319.789062 C 285.742188 321.207031 292.761719 324.351562 298.679688 331.257812 C 304.0625 337.535156 306.175781 344.230469 307 348.746094 L 307.066406 349.25 Z M 307.066406 394.515625 "/>
<path fill-rule="nonzero" fill="rgb(0%, 0%, 0%)" fill-opacity="1" d="M 191.796875 310.300781 L 196.386719 312.203125 L 189.90625 327.832031 L 185.320312 325.929688 Z M 181.507812 298.980469 L 213.816406 312.371094 L 211.082031 318.972656 L 178.773438 305.582031 Z M 172.710938 320.210938 L 205.019531 333.601562 L 202.285156 340.203125 L 169.976562 326.8125 Z M 172.710938 320.210938 "/>
<path fill-rule="nonzero" fill="rgb(0%, 0%, 0%)" fill-opacity="1" d="M 202.527344 293.261719 L 217.4375 276.378906 L 220.929688 279.46875 L 206.019531 296.347656 Z M 196.390625 278.382812 C 197.703125 276.898438 199.046875 275.378906 200.421875 273.820312 C 201.796875 272.265625 203.179688 270.753906 204.566406 269.28125 C 205.957031 267.816406 207.292969 266.453125 208.582031 265.199219 L 211.886719 268.578125 L 201.667969 280.144531 C 200.960938 280.945312 200.613281 281.695312 200.628906 282.390625 C 200.644531 283.09375 201.03125 283.777344 201.789062 284.449219 L 216.074219 297.066406 C 216.832031 297.734375 217.558594 298.035156 218.253906 297.964844 C 218.949219 297.890625 219.652344 297.457031 220.359375 296.65625 L 230.574219 285.085938 L 234.335938 287.949219 C 233.25 289.382812 232.058594 290.875 230.761719 292.417969 C 229.460938 293.96875 228.128906 295.523438 226.769531 297.09375 C 225.40625 298.660156 224.066406 300.1875 222.753906 301.671875 C 221.140625 303.5 219.398438 304.566406 217.527344 304.871094 C 215.65625 305.179688 213.949219 304.675781 212.40625 303.359375 L 195.996094 288.863281 C 194.5 287.492188 193.789062 285.859375 193.863281 283.964844 C 193.933594 282.074219 194.777344 280.210938 196.390625 278.382812 "/>
<path fill-rule="nonzero" fill="rgb(0%, 0%, 0%)" fill-opacity="1" d="M 224.410156 253.082031 L 244.835938 281.46875 L 239.039062 285.644531 L 218.609375 257.257812 Z M 224.410156 253.082031 "/>
<path fill-rule="nonzero" fill="rgb(0%, 0%, 0%)" fill-opacity="1" d="M 275.667969 230.914062 C 277.375 230.363281 278.492188 230.855469 279.027344 232.390625 L 290.460938 262.894531 L 283.984375 264.976562 L 273.503906 236.878906 L 272.472656 237.214844 L 272.636719 261.8125 C 272.734375 263.234375 272.023438 264.191406 270.5 264.683594 L 265.710938 266.222656 C 264.152344 266.726562 262.976562 266.375 262.191406 265.171875 L 247.984375 245.089844 L 246.949219 245.421875 L 254.925781 274.324219 L 248.449219 276.40625 L 239.957031 244.957031 C 239.53125 243.390625 240.152344 242.335938 241.820312 241.800781 L 248.621094 239.613281 C 250.074219 239.144531 251.195312 239.515625 251.980469 240.714844 L 263.617188 257.101562 C 264.117188 257.789062 264.574219 258.496094 264.984375 259.214844 C 265.398438 259.933594 265.835938 260.644531 266.304688 261.347656 L 267.117188 261.082031 C 267.089844 260.242188 267.039062 259.40625 266.972656 258.574219 C 266.90625 257.746094 266.851562 256.894531 266.8125 256.019531 L 266.726562 235.972656 C 266.628906 234.546875 267.34375 233.59375 268.867188 233.101562 Z M 275.667969 230.914062 "/>
<path fill-rule="nonzero" fill="rgb(0%, 0%, 0%)" fill-opacity="1" d="M 306.308594 229.835938 L 302.683594 264.621094 L 295.578125 263.878906 L 299.199219 229.09375 Z M 314.03125 230.179688 C 316.988281 230.488281 319.464844 231.042969 321.472656 231.847656 C 323.476562 232.648438 325.042969 233.796875 326.171875 235.292969 C 327.296875 236.785156 328.027344 238.714844 328.355469 241.074219 C 328.683594 243.4375 328.671875 246.3125 328.316406 249.707031 C 327.964844 253.105469 327.382812 255.921875 326.574219 258.164062 C 325.765625 260.40625 324.65625 262.144531 323.246094 263.371094 C 321.832031 264.601562 320.066406 265.402344 317.9375 265.777344 C 315.8125 266.148438 313.269531 266.179688 310.3125 265.875 C 307.46875 265.578125 304.839844 265.257812 302.421875 264.925781 C 300.003906 264.585938 297.722656 264.238281 295.578125 263.878906 L 299.039062 259.347656 C 300.546875 259.574219 302.285156 259.8125 304.25 260.070312 C 306.214844 260.324219 308.410156 260.578125 310.835938 260.832031 C 313.035156 261.0625 314.808594 260.863281 316.15625 260.238281 C 317.507812 259.617188 318.542969 258.398438 319.269531 256.589844 C 319.992188 254.777344 320.527344 252.226562 320.871094 248.933594 C 321.214844 245.640625 321.214844 243.03125 320.878906 241.109375 C 320.542969 239.191406 319.78125 237.777344 318.589844 236.875 C 317.402344 235.96875 315.707031 235.398438 313.511719 235.171875 C 311.160156 234.925781 309.0625 234.726562 307.222656 234.566406 C 305.378906 234.410156 303.585938 234.238281 301.84375 234.058594 L 299.199219 229.09375 C 301.375 229.1875 303.667969 229.3125 306.085938 229.480469 C 308.5 229.648438 311.148438 229.878906 314.03125 230.179688 "/>
<path fill-rule="nonzero" fill="rgb(0%, 0%, 0%)" fill-opacity="1" d="M 358.835938 265.699219 L 356.675781 270.171875 L 338.40625 261.335938 L 340.570312 256.863281 Z M 361.585938 244.789062 C 362.132812 245.054688 362.550781 245.425781 362.828125 245.898438 C 363.105469 246.371094 363.222656 246.875 363.175781 247.417969 L 359.429688 282.597656 L 352.839844 279.410156 L 356.453125 251.203125 C 356.550781 250.648438 356.648438 250.097656 356.746094 249.542969 C 356.84375 248.992188 356.953125 248.460938 357.070312 247.957031 L 355.628906 247.257812 C 355.308594 247.664062 354.957031 248.078125 354.585938 248.496094 C 354.210938 248.917969 353.824219 249.332031 353.414062 249.734375 L 333.59375 270.101562 L 327.007812 266.914062 L 352.265625 242.140625 C 352.621094 241.75 353.082031 241.519531 353.644531 241.453125 C 354.203125 241.386719 354.757812 241.488281 355.308594 241.753906 Z M 361.585938 244.789062 "/>
<path fill-rule="nonzero" fill="rgb(0%, 0%, 0%)" fill-opacity="1" d="M 389.769531 264.238281 L 371.289062 283.734375 C 370.613281 284.449219 370.324219 285.183594 370.414062 285.945312 C 370.507812 286.707031 370.953125 287.46875 371.757812 288.230469 L 381.878906 297.824219 L 378.816406 301.554688 C 376.796875 299.917969 374.753906 298.15625 372.683594 296.265625 C 370.617188 294.375 368.585938 292.488281 366.59375 290.601562 C 364.492188 288.609375 363.402344 286.667969 363.328125 284.78125 C 363.253906 282.894531 363.914062 281.214844 365.308594 279.742188 L 384.625 259.363281 Z M 389.769531 264.238281 "/>
<path fill-rule="nonzero" fill="rgb(0%, 0%, 0%)" fill-opacity="1" d="M 413.800781 292.71875 L 390.691406 306.417969 C 389.847656 306.914062 389.367188 307.542969 389.246094 308.300781 C 389.125 309.058594 389.347656 309.914062 389.910156 310.863281 L 397.023438 322.863281 L 393.054688 325.613281 C 391.558594 323.488281 390.078125 321.234375 388.605469 318.847656 C 387.132812 316.464844 385.695312 314.09375 384.296875 311.734375 C 382.820312 309.242188 382.304688 307.078125 382.75 305.242188 C 383.191406 303.40625 384.285156 301.972656 386.03125 300.9375 L 410.1875 286.621094 Z M 413.800781 292.71875 "/>
<path fill-rule="nonzero" fill="rgb(0%, 0%, 0%)" fill-opacity="1" d="M 431.589844 334.761719 C 432.324219 337.953125 432.625 340.613281 432.488281 342.734375 C 432.351562 344.859375 431.671875 346.539062 430.449219 347.78125 C 429.226562 349.019531 427.3125 349.9375 424.710938 350.535156 C 423 350.929688 421.488281 351.035156 420.179688 350.84375 C 418.871094 350.65625 417.742188 350.117188 416.789062 349.222656 C 415.839844 348.324219 415.058594 347.007812 414.453125 345.273438 L 414.203125 345.328125 C 414.21875 345.988281 414.113281 346.707031 413.894531 347.480469 C 413.671875 348.253906 413.285156 349.011719 412.722656 349.746094 C 412.164062 350.480469 411.375 351.121094 410.359375 351.667969 L 400.496094 357.632812 L 398.804688 350.277344 L 408.59375 344.683594 C 409.6875 344 410.390625 343.253906 410.703125 342.4375 C 411.019531 341.621094 411.039062 340.601562 410.753906 339.375 C 410.199219 336.960938 409.734375 334.898438 409.359375 333.1875 C 408.980469 331.476562 408.679688 330.046875 408.453125 328.910156 C 408.222656 327.765625 408.011719 326.769531 407.816406 325.917969 L 412.546875 325.003906 L 415.597656 338.261719 C 416.011719 339.925781 416.488281 341.203125 417.023438 342.097656 C 417.558594 342.992188 418.277344 343.550781 419.179688 343.773438 C 420.078125 343.996094 421.269531 343.9375 422.75 343.597656 C 424.199219 343.261719 425.273438 342.800781 425.96875 342.210938 C 426.664062 341.621094 427.058594 340.808594 427.152344 339.769531 C 427.242188 338.730469 427.09375 337.378906 426.710938 335.707031 C 425.957031 332.4375 425.296875 329.636719 424.726562 327.304688 C 424.15625 324.972656 423.753906 323.382812 423.527344 322.535156 L 427.890625 320.710938 C 428.363281 322.167969 428.785156 323.546875 429.152344 324.851562 C 429.523438 326.152344 429.894531 327.582031 430.269531 329.140625 C 430.644531 330.695312 431.085938 332.566406 431.589844 334.761719 M 429.464844 327.566406 L 395.382812 335.40625 L 393.804688 328.550781 L 427.890625 320.710938 Z M 429.464844 327.566406 "/>
<path fill-rule="nonzero" fill="rgb(0%, 0%, 0%)" fill-opacity="1" d="M 410.199219 414.035156 L 405.539062 412.316406 L 411.386719 396.4375 L 416.046875 398.15625 Z M 428.875 403.367188 L 396.054688 391.277344 L 398.523438 384.574219 L 431.34375 396.660156 Z M 420.929688 424.929688 L 388.113281 412.84375 L 390.582031 406.136719 L 423.398438 418.226562 Z M 420.929688 424.929688 "/>
<path fill-rule="nonzero" fill="rgb(0%, 0%, 0%)" fill-opacity="1" d="M 400.15625 431.484375 L 385.925781 448.941406 L 382.3125 445.996094 L 396.542969 428.539062 Z M 406.875 446.105469 C 405.621094 447.640625 404.339844 449.214844 403.027344 450.824219 C 401.714844 452.433594 400.394531 454 399.066406 455.523438 C 397.734375 457.046875 396.453125 458.460938 395.21875 459.761719 L 391.78125 456.519531 L 401.53125 444.554688 C 402.207031 443.730469 402.523438 442.964844 402.480469 442.269531 C 402.441406 441.570312 402.027344 440.902344 401.242188 440.261719 L 386.472656 428.21875 C 385.683594 427.578125 384.945312 427.308594 384.253906 427.40625 C 383.5625 427.507812 382.878906 427.972656 382.203125 428.796875 L 372.453125 440.757812 L 368.582031 438.046875 C 369.609375 436.574219 370.742188 435.039062 371.980469 433.441406 C 373.214844 431.84375 374.484375 430.234375 375.78125 428.613281 C 377.082031 426.992188 378.359375 425.414062 379.609375 423.878906 C 381.152344 421.988281 382.851562 420.855469 384.707031 420.476562 C 386.5625 420.09375 388.289062 420.53125 389.886719 421.785156 L 406.855469 435.621094 C 408.40625 436.929688 409.179688 438.535156 409.179688 440.429688 C 409.183594 442.324219 408.414062 444.21875 406.875 446.105469 "/>
<path fill-rule="nonzero" fill="rgb(0%, 0%, 0%)" fill-opacity="1" d="M 379.882812 472.492188 L 358.347656 444.9375 L 363.976562 440.539062 L 385.511719 468.09375 Z M 379.882812 472.492188 "/>
<path fill-rule="nonzero" fill="rgb(0%, 0%, 0%)" fill-opacity="1" d="M 329.542969 496.691406 C 327.863281 497.308594 326.726562 496.859375 326.132812 495.351562 L 313.488281 465.328125 L 319.875 462.988281 L 331.46875 490.644531 L 332.488281 490.269531 L 331.339844 465.695312 C 331.183594 464.277344 331.859375 463.292969 333.359375 462.742188 L 338.085938 461.011719 C 339.621094 460.449219 340.808594 460.75 341.644531 461.921875 L 356.640625 481.421875 L 357.660156 481.046875 L 348.535156 452.488281 L 354.925781 450.148438 L 364.667969 481.230469 C 365.15625 482.78125 364.574219 483.855469 362.929688 484.460938 L 356.21875 486.917969 C 354.789062 487.441406 353.65625 487.121094 352.820312 485.949219 L 340.542969 470.046875 C 340.011719 469.375 339.527344 468.6875 339.085938 467.984375 C 338.644531 467.285156 338.179688 466.589844 337.6875 465.90625 L 336.882812 466.203125 C 336.945312 467.042969 337.027344 467.878906 337.128906 468.703125 C 337.226562 469.53125 337.316406 470.382812 337.390625 471.253906 L 338.277344 491.28125 C 338.429688 492.699219 337.757812 493.683594 336.253906 494.234375 Z M 329.542969 496.691406 "/>
<path fill-rule="nonzero" fill="rgb(0%, 0%, 0%)" fill-opacity="1" d="M 298.9375 498.976562 L 301.191406 464.078125 L 308.320312 464.539062 L 306.066406 499.4375 Z M 291.207031 498.9375 C 288.238281 498.746094 285.738281 498.289062 283.703125 497.5625 C 281.671875 496.839844 280.058594 495.753906 278.875 494.304688 C 277.6875 492.855469 276.882812 490.960938 276.464844 488.613281 C 276.042969 486.265625 275.941406 483.390625 276.160156 479.984375 C 276.382812 476.578125 276.851562 473.738281 277.570312 471.46875 C 278.289062 469.195312 279.332031 467.414062 280.691406 466.132812 C 282.054688 464.847656 283.792969 463.976562 285.902344 463.523438 C 288.011719 463.066406 290.550781 462.933594 293.519531 463.125 C 296.371094 463.308594 299.011719 463.523438 301.4375 463.765625 C 303.867188 464.007812 306.160156 464.265625 308.320312 464.539062 L 305.039062 469.203125 C 303.523438 469.035156 301.777344 468.863281 299.804688 468.6875 C 297.832031 468.507812 295.625 468.339844 293.191406 468.183594 C 290.988281 468.042969 289.222656 468.308594 287.898438 468.984375 C 286.574219 469.660156 285.589844 470.917969 284.933594 472.753906 C 284.28125 474.59375 283.847656 477.164062 283.632812 480.46875 C 283.421875 483.773438 283.519531 486.378906 283.929688 488.285156 C 284.34375 490.1875 285.160156 491.570312 286.382812 492.429688 C 287.609375 493.285156 289.324219 493.785156 291.53125 493.929688 C 293.886719 494.082031 295.988281 494.199219 297.835938 494.285156 C 299.683594 494.371094 301.480469 494.46875 303.230469 494.582031 L 306.066406 499.4375 C 303.890625 499.433594 301.59375 499.394531 299.171875 499.324219 C 296.75 499.25 294.097656 499.125 291.207031 498.9375 "/>
<path fill-rule="nonzero" fill="rgb(0%, 0%, 0%)" fill-opacity="1" d="M 245.035156 465.222656 L 247.019531 460.667969 L 265.621094 468.773438 L 263.636719 473.324219 Z M 243.117188 486.222656 C 242.558594 485.980469 242.128906 485.628906 241.832031 485.167969 C 241.535156 484.703125 241.398438 484.203125 241.425781 483.664062 L 243.773438 448.363281 L 250.480469 451.285156 L 247.992188 479.613281 C 247.917969 480.167969 247.839844 480.726562 247.765625 481.28125 C 247.6875 481.839844 247.601562 482.371094 247.503906 482.882812 L 248.96875 483.523438 C 249.277344 483.101562 249.609375 482.675781 249.964844 482.242188 C 250.320312 481.804688 250.695312 481.378906 251.085938 480.960938 L 270.082031 459.824219 L 276.789062 462.746094 L 252.535156 488.503906 C 252.195312 488.90625 251.746094 489.152344 251.1875 489.242188 C 250.628906 489.332031 250.070312 489.253906 249.511719 489.007812 Z M 243.117188 486.222656 "/>
<path fill-rule="nonzero" fill="rgb(0%, 0%, 0%)" fill-opacity="1" d="M 214.203125 467.917969 L 231.898438 447.703125 C 232.542969 446.964844 232.804688 446.21875 232.683594 445.460938 C 232.5625 444.703125 232.085938 443.960938 231.253906 443.234375 L 220.761719 434.046875 L 223.671875 430.195312 C 225.757812 431.75 227.867188 433.429688 230.011719 435.238281 C 232.152344 437.042969 234.253906 438.851562 236.316406 440.660156 C 238.496094 442.566406 239.664062 444.464844 239.8125 446.34375 C 239.960938 448.226562 239.371094 449.933594 238.03125 451.457031 L 219.535156 472.585938 Z M 214.203125 467.917969 "/>
<path fill-rule="nonzero" fill="rgb(0%, 0%, 0%)" fill-opacity="1" d="M 189.054688 440.394531 L 211.605469 425.792969 C 212.429688 425.261719 212.886719 424.613281 212.976562 423.851562 C 213.066406 423.089844 212.8125 422.246094 212.210938 421.316406 L 204.628906 409.609375 L 208.484375 406.703125 C 210.0625 408.769531 211.632812 410.964844 213.199219 413.285156 C 214.765625 415.609375 216.292969 417.925781 217.785156 420.226562 C 219.359375 422.660156 219.960938 424.800781 219.589844 426.652344 C 219.21875 428.503906 218.179688 429.980469 216.480469 431.082031 L 192.910156 446.34375 Z M 189.054688 440.394531 "/>
<path fill-rule="nonzero" fill="rgb(0%, 0%, 0%)" fill-opacity="1" d="M 172.035156 406.246094 L 205.777344 397.042969 L 207.625 403.828125 L 173.886719 413.027344 Z M 169.625 399.140625 C 168.761719 395.976562 168.355469 393.335938 168.40625 391.207031 C 168.457031 389.082031 169.070312 387.371094 170.242188 386.085938 C 171.414062 384.796875 173.289062 383.800781 175.863281 383.101562 C 177.558594 382.636719 179.0625 382.476562 180.378906 382.609375 C 181.695312 382.746094 182.84375 383.238281 183.832031 384.097656 C 184.816406 384.953125 185.648438 386.238281 186.324219 387.949219 L 186.570312 387.882812 C 186.53125 387.222656 186.605469 386.5 186.796875 385.71875 C 186.984375 384.9375 187.34375 384.167969 187.875 383.410156 C 188.402344 382.652344 189.164062 381.980469 190.160156 381.394531 L 199.773438 375.039062 L 201.761719 382.320312 L 192.203125 388.300781 C 191.140625 389.027344 190.464844 389.804688 190.183594 390.628906 C 189.902344 391.457031 189.925781 392.476562 190.257812 393.691406 C 190.910156 396.082031 191.457031 398.125 191.902344 399.820312 C 192.347656 401.515625 192.707031 402.929688 192.980469 404.058594 C 193.253906 405.1875 193.503906 406.175781 193.734375 407.023438 L 189.042969 408.125 L 185.464844 394.996094 C 184.980469 393.351562 184.453125 392.09375 183.882812 391.222656 C 183.3125 390.351562 182.574219 389.820312 181.664062 389.636719 C 180.753906 389.449219 179.566406 389.554688 178.097656 389.957031 C 176.664062 390.347656 175.613281 390.851562 174.941406 391.46875 C 174.269531 392.085938 173.90625 392.914062 173.859375 393.957031 C 173.808594 394.996094 174.011719 396.34375 174.460938 398 C 175.34375 401.234375 176.117188 404.003906 176.78125 406.3125 C 177.445312 408.621094 177.910156 410.191406 178.171875 411.027344 L 173.886719 413.027344 C 173.351562 411.59375 172.878906 410.230469 172.457031 408.945312 C 172.035156 407.65625 171.605469 406.242188 171.167969 404.703125 C 170.730469 403.164062 170.21875 401.308594 169.625 399.140625 "/>
<path fill-rule="nonzero" fill="rgb(0%, 0%, 0%)" fill-opacity="1" d="M 181.523438 355.839844 C 181.523438 357.496094 180.179688 358.835938 178.523438 358.835938 C 176.867188 358.835938 175.527344 357.496094 175.527344 355.839844 C 175.527344 354.183594 176.867188 352.839844 178.523438 352.839844 C 180.179688 352.839844 181.523438 354.183594 181.523438 355.839844 "/>
<path fill-rule="nonzero" fill="rgb(0%, 0%, 0%)" fill-opacity="1" d="M 416.175781 369.824219 C 416.175781 371.480469 414.835938 372.820312 413.179688 372.820312 C 411.523438 372.820312 410.179688 371.480469 410.179688 369.824219 C 410.179688 368.167969 411.523438 366.824219 413.179688 366.824219 C 414.835938 366.824219 416.175781 368.167969 416.175781 369.824219 "/>
</svg>
