<?xml version="1.0" encoding="UTF-8"?>
<svg xmlns="http://www.w3.org/2000/svg" xmlns:xlink="http://www.w3.org/1999/xlink" width="566.929pt" height="708.661pt" viewBox="0 0 566.929 708.661">
<path fill-rule="nonzero" fill="rgb(100%, 100%, 100%)" fill-opacity="1" d="M 173.65625 379.816406 L 109.6875 379.816406 L 109.6875 317.847656 L 173.65625 317.847656 Z M 173.65625 379.816406 "/>
<path fill-rule="nonzero" fill="rgb(28.199768%, 40.79895%, 39.199829%)" fill-opacity="1" d="M 143.03125 325.425781 L 142.933594 325.398438 L 142.835938 325.425781 C 141.058594 325.929688 138.714844 326.886719 136.386719 328.636719 C 138.328125 329.675781 140.402344 331.171875 142.28125 333.363281 C 143.929688 335.289062 145.015625 337.28125 145.742188 339.105469 C 148.726562 336.421875 151.90625 335.078125 154.214844 334.421875 C 153.636719 333.363281 152.929688 332.285156 152.023438 331.226562 C 149.03125 327.738281 145.480469 326.148438 143.03125 325.425781 "/>
<path fill-rule="nonzero" fill="rgb(28.199768%, 40.79895%, 39.199829%)" fill-opacity="1" d="M 169.988281 375.964844 L 168.128906 375.964844 L 168.128906 350.886719 L 168.125 350.859375 C 167.707031 348.574219 166.640625 345.183594 163.917969 342.007812 C 161.824219 339.566406 159.464844 338.066406 157.390625 337.132812 C 157.699219 338.085938 157.917969 338.972656 158.058594 339.742188 L 158.09375 340.023438 L 158.09375 365.1875 L 156.234375 365.1875 L 156.234375 340.105469 L 156.230469 340.078125 C 156.03125 339.003906 155.683594 337.683594 155.097656 336.261719 C 155.042969 336.246094 154.980469 336.222656 154.925781 336.207031 L 154.832031 336.179688 L 154.734375 336.207031 C 152.476562 336.847656 149.300781 338.203125 146.414062 341.019531 C 146.632812 341.769531 146.792969 342.464844 146.902344 343.085938 L 146.941406 343.367188 L 146.941406 368.53125 L 145.082031 368.53125 L 145.082031 343.453125 L 145.074219 343.421875 C 145.03125 343.183594 144.976562 342.921875 144.917969 342.660156 C 142.507812 345.621094 141.429688 348.710938 140.964844 350.84375 L 140.957031 350.878906 L 140.957031 375.964844 L 139.097656 375.964844 L 139.097656 350.683594 L 139.148438 350.449219 C 139.695312 347.9375 140.992188 344.222656 144.070312 340.765625 C 144.144531 340.679688 144.226562 340.613281 144.300781 340.527344 C 143.652344 338.679688 142.59375 336.585938 140.871094 334.574219 C 138.941406 332.324219 136.785156 330.871094 134.839844 329.921875 C 134.40625 330.324219 133.976562 330.753906 133.5625 331.222656 C 130.75 334.375 129.566406 337.769531 129.070312 340.0625 L 129.0625 340.101562 L 129.0625 365.1875 L 127.203125 365.1875 L 127.203125 339.902344 L 127.253906 339.671875 C 127.800781 337.160156 129.097656 333.441406 132.171875 329.988281 C 132.441406 329.683594 132.71875 329.417969 132.992188 329.140625 C 132.605469 329 132.226562 328.875 131.878906 328.773438 L 131.78125 328.746094 L 131.683594 328.773438 C 129.175781 329.484375 125.53125 331.066406 122.410156 334.570312 C 119.597656 337.722656 118.414062 341.117188 117.917969 343.410156 L 117.90625 343.445312 L 117.90625 368.53125 L 116.050781 368.53125 L 116.050781 343.246094 L 116.101562 343.015625 C 116.648438 340.503906 117.945312 336.789062 121.019531 333.332031 C 124.4375 329.496094 128.429688 327.761719 131.179688 326.984375 L 131.789062 326.808594 L 132.402344 326.988281 C 133.046875 327.179688 133.761719 327.425781 134.519531 327.742188 C 137.308594 325.441406 140.195312 324.242188 142.328125 323.636719 L 142.941406 323.464844 L 143.554688 323.644531 C 146.246094 324.433594 150.148438 326.179688 153.433594 330.019531 C 154.785156 331.59375 155.75 333.214844 156.460938 334.75 C 159.0625 335.660156 162.433594 337.417969 165.332031 340.800781 C 168.320312 344.289062 169.496094 348.011719 169.953125 350.523438 L 169.988281 350.800781 Z M 169.988281 311.765625 L 115.136719 311.765625 C 109.101562 311.765625 104.164062 316.703125 104.164062 322.738281 L 104.164062 377.589844 C 104.164062 383.625 109.101562 388.5625 115.136719 388.5625 L 169.988281 388.5625 C 176.023438 388.5625 180.960938 383.625 180.960938 377.589844 L 180.960938 322.738281 C 180.960938 316.703125 176.023438 311.765625 169.988281 311.765625 "/>
<path fill-rule="nonzero" fill="rgb(28.199768%, 40.79895%, 39.199829%)" fill-opacity="1" d="M 232.613281 364.917969 L 226.15625 364.917969 L 226.15625 333.285156 L 232.613281 333.285156 Z M 226.722656 350.292969 L 211.429688 350.292969 L 211.429688 345.796875 L 226.722656 345.796875 Z M 211.84375 364.917969 L 205.386719 364.917969 L 205.386719 333.285156 L 211.84375 333.285156 Z M 211.84375 364.917969 "/>
<path fill-rule="nonzero" fill="rgb(28.199768%, 40.79895%, 39.199829%)" fill-opacity="1" d="M 241.191406 346.257812 L 261.546875 346.257812 L 261.546875 350.476562 L 241.191406 350.476562 Z M 247.59375 333.191406 L 253.097656 333.191406 C 254.976562 333.191406 256.828125 333.222656 258.652344 333.285156 C 260.476562 333.34375 262.199219 333.4375 263.820312 333.558594 L 263.507812 337.824219 L 249.558594 337.824219 C 248.59375 337.824219 247.878906 338.035156 247.414062 338.464844 C 246.949219 338.890625 246.71875 339.5625 246.71875 340.480469 L 246.71875 357.71875 C 246.71875 358.636719 246.949219 359.308594 247.414062 359.734375 C 247.878906 360.164062 248.59375 360.378906 249.558594 360.378906 L 263.507812 360.378906 L 263.820312 364.640625 C 262.199219 364.765625 260.476562 364.847656 258.652344 364.894531 C 256.828125 364.9375 254.976562 364.96875 253.097656 364.984375 C 251.222656 365 249.386719 365.007812 247.59375 365.007812 C 245.390625 365.007812 243.625 364.464844 242.300781 363.382812 C 240.972656 362.296875 240.292969 360.835938 240.257812 359.003906 L 240.257812 339.199219 C 240.292969 337.363281 240.972656 335.90625 242.300781 334.820312 C 243.625 333.734375 245.390625 333.191406 247.59375 333.191406 "/>
<path fill-rule="nonzero" fill="rgb(28.199768%, 40.79895%, 39.199829%)" fill-opacity="1" d="M 276.476562 364.917969 L 270.019531 364.917969 L 270.019531 333.285156 L 276.476562 333.285156 Z M 276.476562 364.917969 "/>
<path fill-rule="nonzero" fill="rgb(28.199768%, 40.79895%, 39.199829%)" fill-opacity="1" d="M 319.71875 333.28125 C 321.339844 333.28125 322.164062 334.015625 322.199219 335.484375 L 323.59375 364.917969 L 317.445312 364.917969 L 316.207031 337.820312 L 315.222656 337.820312 L 308.558594 359.046875 C 308.25 360.300781 307.371094 360.929688 305.925781 360.929688 L 301.378906 360.929688 C 299.898438 360.929688 298.984375 360.300781 298.640625 359.046875 L 291.976562 337.820312 L 290.992188 337.820312 L 289.855469 364.917969 L 283.710938 364.917969 L 285.105469 335.484375 C 285.171875 334.015625 286 333.28125 287.582031 333.28125 L 294.042969 333.28125 C 295.417969 333.28125 296.28125 333.910156 296.625 335.164062 L 302.101562 352.492188 C 302.339844 353.226562 302.539062 353.960938 302.695312 354.691406 C 302.851562 355.425781 303.03125 356.160156 303.238281 356.894531 L 304.011719 356.894531 C 304.21875 356.160156 304.410156 355.425781 304.582031 354.691406 C 304.753906 353.960938 304.941406 353.210938 305.148438 352.445312 L 310.625 335.164062 C 310.9375 333.910156 311.816406 333.28125 313.261719 333.28125 Z M 319.71875 333.28125 "/>
<path fill-rule="nonzero" fill="rgb(28.199768%, 40.79895%, 39.199829%)" fill-opacity="1" d="M 337.335938 364.917969 L 330.878906 364.917969 L 330.878906 333.285156 L 337.335938 333.285156 Z M 344.3125 332.871094 C 347 332.871094 349.277344 333.136719 351.15625 333.671875 C 353.035156 334.207031 354.550781 335.09375 355.703125 336.332031 C 356.855469 337.570312 357.691406 339.234375 358.210938 341.328125 C 358.726562 343.421875 358.984375 346.011719 358.984375 349.101562 C 358.984375 352.1875 358.726562 354.777344 358.210938 356.871094 C 357.691406 358.964844 356.855469 360.628906 355.703125 361.867188 C 354.550781 363.105469 353.035156 363.992188 351.15625 364.527344 C 349.277344 365.0625 347 365.328125 344.3125 365.328125 C 341.730469 365.328125 339.332031 365.289062 337.128906 365.214844 C 334.925781 365.136719 332.84375 365.039062 330.878906 364.917969 L 333.566406 360.515625 C 334.941406 360.578125 336.527344 360.628906 338.316406 360.675781 C 340.109375 360.722656 342.105469 360.746094 344.3125 360.746094 C 346.308594 360.746094 347.882812 360.402344 349.039062 359.714844 C 350.191406 359.023438 351.011719 357.832031 351.492188 356.136719 C 351.976562 354.441406 352.214844 352.09375 352.214844 349.101562 C 352.214844 346.105469 351.976562 343.757812 351.492188 342.0625 C 351.011719 340.367188 350.191406 339.167969 349.039062 338.464844 C 347.882812 337.761719 346.308594 337.410156 344.3125 337.410156 C 342.175781 337.410156 340.273438 337.425781 338.601562 337.453125 C 336.933594 337.484375 335.304688 337.5 333.71875 337.5 L 330.878906 333.285156 C 332.84375 333.160156 334.917969 333.0625 337.105469 332.984375 C 339.289062 332.910156 341.695312 332.871094 344.3125 332.871094 "/>
<path fill-rule="nonzero" fill="rgb(28.199768%, 40.79895%, 39.199829%)" fill-opacity="1" d="M 387.195312 355.882812 L 368.851562 355.882812 L 368.851562 351.390625 L 387.195312 351.390625 Z M 381.203125 333.285156 C 381.753906 333.285156 382.234375 333.421875 382.648438 333.695312 C 383.0625 333.972656 383.355469 334.335938 383.527344 334.796875 L 394.324219 364.917969 L 387.710938 364.917969 L 379.546875 340.527344 C 379.410156 340.039062 379.273438 339.546875 379.132812 339.058594 C 378.996094 338.570312 378.875 338.097656 378.773438 337.636719 L 377.328125 337.636719 C 377.222656 338.097656 377.101562 338.570312 376.964844 339.058594 C 376.828125 339.546875 376.671875 340.039062 376.5 340.527344 L 368.386719 364.917969 L 361.773438 364.917969 L 372.574219 334.796875 C 372.710938 334.335938 372.996094 333.972656 373.425781 333.695312 C 373.855469 333.421875 374.347656 333.285156 374.898438 333.285156 Z M 381.203125 333.285156 "/>
<path fill-rule="nonzero" fill="rgb(28.199768%, 40.79895%, 39.199829%)" fill-opacity="1" d="M 404.863281 333.28125 L 404.863281 357.582031 C 404.863281 358.46875 405.132812 359.132812 405.664062 359.574219 C 406.199219 360.019531 406.964844 360.242188 407.964844 360.242188 L 420.570312 360.242188 L 420.878906 364.59375 C 418.539062 364.777344 416.101562 364.894531 413.570312 364.9375 C 411.039062 364.984375 408.53125 365.007812 406.050781 365.007812 C 403.433594 365.007812 401.511719 364.414062 400.292969 363.21875 C 399.070312 362.027344 398.457031 360.515625 398.457031 358.679688 L 398.457031 333.28125 Z M 404.863281 333.28125 "/>
<path fill-rule="nonzero" fill="rgb(28.199768%, 40.79895%, 39.199829%)" fill-opacity="1" d="M 432.039062 333.28125 L 432.039062 357.582031 C 432.039062 358.46875 432.304688 359.132812 432.839844 359.574219 C 433.371094 360.019531 434.140625 360.242188 435.140625 360.242188 L 447.746094 360.242188 L 448.054688 364.59375 C 445.714844 364.777344 443.277344 364.894531 440.746094 364.9375 C 438.210938 364.984375 435.707031 365.007812 433.226562 365.007812 C 430.609375 365.007812 428.6875 364.414062 427.464844 363.21875 C 426.242188 362.027344 425.632812 360.515625 425.632812 358.679688 L 425.632812 333.28125 Z M 432.039062 333.28125 "/>
<path fill-rule="nonzero" fill="rgb(28.199768%, 40.79895%, 39.199829%)" fill-opacity="1" d="M 459.265625 364.917969 L 452.910156 364.917969 L 452.910156 333.285156 L 459.265625 333.285156 Z M 466.035156 332.871094 C 468.996094 332.871094 471.398438 333.144531 473.242188 333.695312 C 475.082031 334.246094 476.425781 335.1875 477.273438 336.515625 C 478.117188 337.84375 478.539062 339.71875 478.539062 342.132812 C 478.539062 343.71875 478.324219 345.074219 477.890625 346.1875 C 477.460938 347.304688 476.753906 348.191406 475.773438 348.847656 C 474.789062 349.503906 473.472656 349.925781 471.820312 350.109375 L 471.820312 350.335938 C 472.40625 350.460938 473.015625 350.695312 473.65625 351.046875 C 474.292969 351.398438 474.875 351.898438 475.410156 352.539062 C 475.945312 353.179688 476.347656 354.003906 476.625 355.015625 L 479.878906 364.917969 L 473.0625 364.917969 L 470.117188 355.152344 C 469.738281 354.050781 469.21875 353.277344 468.566406 352.835938 C 467.910156 352.394531 467.015625 352.171875 465.878906 352.171875 C 463.640625 352.171875 461.726562 352.164062 460.144531 352.148438 C 458.558594 352.132812 457.242188 352.109375 456.191406 352.078125 C 455.140625 352.050781 454.21875 352.035156 453.425781 352.035156 L 453.582031 347.679688 L 465.878906 347.679688 C 467.429688 347.648438 468.652344 347.488281 469.546875 347.199219 C 470.441406 346.90625 471.078125 346.386719 471.460938 345.636719 C 471.835938 344.890625 472.027344 343.828125 472.027344 342.453125 C 472.027344 341.109375 471.835938 340.066406 471.460938 339.335938 C 471.078125 338.601562 470.441406 338.089844 469.546875 337.800781 C 468.652344 337.507812 467.429688 337.363281 465.878906 337.363281 C 462.847656 337.363281 460.246094 337.378906 458.078125 337.410156 C 455.90625 337.441406 454.425781 337.46875 453.632812 337.5 L 452.910156 333.285156 C 454.289062 333.160156 455.589844 333.070312 456.8125 333.007812 C 458.035156 332.945312 459.371094 332.910156 460.816406 332.894531 C 462.261719 332.878906 464.003906 332.871094 466.035156 332.871094 "/>
</svg>
