<?xml version="1.0" encoding="UTF-8"?>
<svg xmlns="http://www.w3.org/2000/svg" xmlns:xlink="http://www.w3.org/1999/xlink" width="566.929pt" height="708.661pt" viewBox="0 0 566.929 708.661">
<defs>
<clipPath id="clip-0">
<path clip-rule="nonzero" d="M 0.101562 0 L 566.757812 0 L 566.757812 708.320312 L 0.101562 708.320312 Z M 0.101562 0 "/>
</clipPath>
</defs>
<g clip-path="url(#clip-0)">
<path fill-rule="nonzero" fill="rgb(28.199768%, 40.79895%, 39.199829%)" fill-opacity="1" d="M 0.101562 708.320312 L 566.757812 708.320312 L 566.757812 0 L 0.101562 0 Z M 0.101562 708.320312 "/>
</g>
<path fill-rule="nonzero" fill="rgb(100%, 100%, 100%)" fill-opacity="1" d="M 311.136719 370.496094 L 307.789062 370.496094 L 307.789062 325.382812 L 307.78125 325.328125 C 307.027344 321.21875 305.105469 315.125 300.210938 309.410156 C 294.824219 303.132812 288.433594 300.269531 284.023438 298.976562 L 283.847656 298.925781 L 283.671875 298.976562 C 279.15625 300.253906 272.59375 303.101562 266.976562 309.402344 C 261.917969 315.078125 259.785156 321.183594 258.886719 325.304688 L 258.871094 325.371094 L 258.871094 370.496094 L 255.527344 370.496094 L 255.527344 325.011719 L 255.617188 324.597656 C 256.601562 320.078125 258.9375 313.394531 264.476562 307.179688 C 270.628906 300.273438 277.816406 297.15625 282.757812 295.757812 L 283.863281 295.445312 L 284.964844 295.769531 C 289.8125 297.191406 296.832031 300.332031 302.75 307.238281 C 308.132812 313.515625 310.246094 320.210938 311.070312 324.726562 L 311.136719 325.230469 Z M 311.136719 370.496094 "/>
<path fill-rule="nonzero" fill="rgb(100%, 100%, 100%)" fill-opacity="1" d="M 332.550781 389.890625 L 329.207031 389.890625 L 329.207031 344.777344 L 329.195312 344.722656 C 328.445312 340.613281 326.519531 334.515625 321.625 328.804688 C 316.238281 322.523438 309.847656 319.664062 305.4375 318.371094 L 305.261719 318.316406 L 305.085938 318.367188 C 300.570312 319.648438 294.007812 322.492188 288.390625 328.796875 C 283.332031 334.46875 281.199219 340.574219 280.300781 344.699219 L 280.289062 344.761719 L 280.289062 389.890625 L 276.941406 389.890625 L 276.941406 344.40625 L 277.03125 343.992188 C 278.015625 339.472656 280.351562 332.785156 285.890625 326.570312 C 292.042969 319.667969 299.230469 316.550781 304.175781 315.152344 L 305.277344 314.839844 L 306.378906 315.160156 C 311.226562 316.582031 318.246094 319.726562 324.164062 326.628906 C 329.546875 332.910156 331.660156 339.605469 332.488281 344.117188 L 332.550781 344.625 Z M 332.550781 389.890625 "/>
<path fill-rule="nonzero" fill="rgb(100%, 100%, 100%)" fill-opacity="1" d="M 291.0625 376.515625 L 287.714844 376.515625 L 287.714844 331.402344 L 287.703125 331.347656 C 286.953125 327.238281 285.03125 321.140625 280.132812 315.429688 C 274.75 309.148438 268.359375 306.289062 263.945312 304.996094 L 263.773438 304.941406 L 263.597656 304.992188 C 259.078125 306.273438 252.515625 309.121094 246.898438 315.421875 C 241.84375 321.09375 239.710938 327.199219 238.8125 331.324219 L 238.796875 331.390625 L 238.796875 376.515625 L 235.449219 376.515625 L 235.449219 331.03125 L 235.542969 330.617188 C 236.527344 326.097656 238.859375 319.414062 244.398438 313.199219 C 250.554688 306.292969 257.738281 303.175781 262.683594 301.777344 L 263.785156 301.464844 L 264.886719 301.785156 C 269.734375 303.207031 276.753906 306.351562 282.671875 313.253906 C 288.054688 319.535156 290.171875 326.230469 290.996094 330.742188 L 291.0625 331.25 Z M 291.0625 376.515625 "/>
<path fill-rule="nonzero" fill="rgb(100%, 100%, 100%)" fill-opacity="1" d="M 175.792969 292.296875 L 180.378906 294.199219 L 173.902344 309.832031 L 169.316406 307.929688 Z M 165.503906 280.980469 L 197.8125 294.371094 L 195.078125 300.972656 L 162.769531 287.582031 Z M 156.707031 302.210938 L 189.015625 315.601562 L 186.277344 322.199219 L 153.96875 308.8125 Z M 156.707031 302.210938 "/>
<path fill-rule="nonzero" fill="rgb(100%, 100%, 100%)" fill-opacity="1" d="M 186.519531 275.257812 L 201.429688 258.378906 L 204.925781 261.46875 L 190.015625 278.347656 Z M 180.386719 260.382812 C 181.699219 258.898438 183.042969 257.378906 184.417969 255.820312 C 185.792969 254.265625 187.171875 252.75 188.5625 251.28125 C 189.949219 249.8125 191.289062 248.453125 192.574219 247.199219 L 195.878906 250.578125 L 185.660156 262.144531 C 184.957031 262.945312 184.609375 263.695312 184.625 264.390625 C 184.636719 265.089844 185.023438 265.777344 185.785156 266.449219 L 200.066406 279.066406 C 200.828125 279.734375 201.554688 280.035156 202.25 279.960938 C 202.945312 279.890625 203.644531 279.453125 204.351562 278.652344 L 214.570312 267.085938 L 218.328125 269.949219 C 217.246094 271.382812 216.054688 272.871094 214.753906 274.417969 C 213.453125 275.96875 212.125 277.523438 210.761719 279.089844 C 209.398438 280.660156 208.0625 282.1875 206.75 283.671875 C 205.136719 285.5 203.390625 286.566406 201.523438 286.871094 C 199.652344 287.179688 197.945312 286.671875 196.398438 285.359375 L 179.988281 270.863281 C 178.496094 269.492188 177.785156 267.859375 177.855469 265.964844 C 177.929688 264.074219 178.773438 262.210938 180.386719 260.382812 "/>
<path fill-rule="nonzero" fill="rgb(100%, 100%, 100%)" fill-opacity="1" d="M 208.402344 235.082031 L 228.832031 263.46875 L 223.03125 267.640625 L 202.605469 239.257812 Z M 208.402344 235.082031 "/>
<path fill-rule="nonzero" fill="rgb(100%, 100%, 100%)" fill-opacity="1" d="M 259.664062 212.914062 C 261.367188 212.363281 262.488281 212.855469 263.019531 214.386719 L 274.453125 244.894531 L 267.976562 246.976562 L 257.5 218.878906 L 256.464844 219.210938 L 256.632812 243.8125 C 256.730469 245.234375 256.015625 246.191406 254.492188 246.683594 L 249.703125 248.222656 C 248.144531 248.722656 246.972656 248.375 246.183594 247.171875 L 231.980469 227.089844 L 230.945312 227.421875 L 238.917969 256.324219 L 232.445312 258.40625 L 223.949219 226.957031 C 223.523438 225.390625 224.148438 224.335938 225.816406 223.800781 L 232.617188 221.613281 C 234.070312 221.144531 235.1875 221.511719 235.976562 222.714844 L 247.609375 239.097656 C 248.113281 239.789062 248.570312 240.496094 248.980469 241.210938 C 249.394531 241.933594 249.832031 242.644531 250.296875 243.347656 L 251.113281 243.082031 C 251.082031 242.242188 251.035156 241.40625 250.96875 240.574219 C 250.898438 239.746094 250.847656 238.890625 250.804688 238.015625 L 250.722656 217.972656 C 250.625 216.546875 251.335938 215.589844 252.859375 215.101562 Z M 259.664062 212.914062 "/>
<path fill-rule="nonzero" fill="rgb(100%, 100%, 100%)" fill-opacity="1" d="M 290.300781 211.832031 L 286.679688 246.617188 L 279.570312 245.878906 L 283.195312 211.09375 Z M 298.023438 212.179688 C 300.980469 212.488281 303.460938 213.042969 305.464844 213.847656 C 307.46875 214.648438 309.035156 215.796875 310.164062 217.292969 C 311.292969 218.785156 312.019531 220.710938 312.351562 223.074219 C 312.679688 225.433594 312.667969 228.3125 312.3125 231.707031 C 311.960938 235.101562 311.378906 237.921875 310.570312 240.164062 C 309.761719 242.40625 308.652344 244.140625 307.238281 245.371094 C 305.828125 246.601562 304.058594 247.402344 301.933594 247.773438 C 299.804688 248.148438 297.265625 248.179688 294.308594 247.871094 C 291.464844 247.578125 288.832031 247.257812 286.417969 246.921875 C 284 246.585938 281.71875 246.238281 279.570312 245.878906 L 283.03125 241.347656 C 284.539062 241.574219 286.277344 241.8125 288.242188 242.066406 C 290.210938 242.324219 292.40625 242.578125 294.832031 242.832031 C 297.03125 243.058594 298.804688 242.863281 300.152344 242.238281 C 301.5 241.613281 302.539062 240.398438 303.261719 238.589844 C 303.988281 236.777344 304.523438 234.226562 304.863281 230.929688 C 305.207031 227.636719 305.210938 225.03125 304.875 223.109375 C 304.539062 221.1875 303.773438 219.777344 302.585938 218.871094 C 301.398438 217.96875 299.703125 217.398438 297.503906 217.171875 C 295.152344 216.925781 293.058594 216.726562 291.214844 216.566406 C 289.375 216.410156 287.582031 216.238281 285.839844 216.058594 L 283.195312 211.09375 C 285.367188 211.183594 287.664062 211.3125 290.078125 211.480469 C 292.496094 211.648438 295.144531 211.878906 298.023438 212.179688 "/>
<path fill-rule="nonzero" fill="rgb(100%, 100%, 100%)" fill-opacity="1" d="M 342.832031 247.699219 L 340.667969 252.171875 L 322.402344 243.335938 L 324.5625 238.863281 Z M 345.582031 226.789062 C 346.128906 227.054688 346.542969 227.421875 346.824219 227.898438 C 347.101562 228.371094 347.214844 228.875 347.167969 229.414062 L 343.421875 264.59375 L 336.835938 261.410156 L 340.445312 233.203125 C 340.542969 232.648438 340.644531 232.09375 340.742188 231.542969 C 340.839844 230.988281 340.949219 230.460938 341.0625 229.953125 L 339.625 229.257812 C 339.300781 229.664062 338.953125 230.078125 338.578125 230.496094 C 338.207031 230.917969 337.816406 231.328125 337.410156 231.734375 L 317.589844 252.097656 L 311.003906 248.914062 L 336.257812 224.136719 C 336.617188 223.75 337.074219 223.519531 337.636719 223.453125 C 338.199219 223.386719 338.753906 223.488281 339.304688 223.753906 Z M 345.582031 226.789062 "/>
<path fill-rule="nonzero" fill="rgb(100%, 100%, 100%)" fill-opacity="1" d="M 373.761719 246.238281 L 355.285156 265.734375 C 354.609375 266.445312 354.316406 267.183594 354.410156 267.945312 C 354.5 268.707031 354.949219 269.46875 355.75 270.230469 L 365.875 279.824219 L 362.8125 283.554688 C 360.789062 281.917969 358.746094 280.15625 356.679688 278.265625 C 354.609375 276.375 352.582031 274.488281 350.589844 272.601562 C 348.488281 270.605469 347.398438 268.667969 347.324219 266.78125 C 347.246094 264.894531 347.90625 263.214844 349.300781 261.742188 L 368.617188 241.363281 Z M 373.761719 246.238281 "/>
<path fill-rule="nonzero" fill="rgb(100%, 100%, 100%)" fill-opacity="1" d="M 397.792969 274.714844 L 374.6875 288.414062 C 373.839844 288.914062 373.359375 289.542969 373.242188 290.300781 C 373.121094 291.058594 373.339844 291.914062 373.90625 292.863281 L 381.015625 304.863281 L 377.050781 307.613281 C 375.554688 305.484375 374.070312 303.230469 372.597656 300.847656 C 371.125 298.464844 369.691406 296.09375 368.292969 293.734375 C 366.816406 291.242188 366.296875 289.078125 366.742188 287.242188 C 367.1875 285.40625 368.28125 283.972656 370.023438 282.9375 L 394.179688 268.621094 Z M 397.792969 274.714844 "/>
<path fill-rule="nonzero" fill="rgb(100%, 100%, 100%)" fill-opacity="1" d="M 415.582031 316.757812 C 416.320312 319.953125 416.617188 322.613281 416.480469 324.734375 C 416.347656 326.855469 415.667969 328.539062 414.445312 329.777344 C 413.222656 331.019531 411.308594 331.9375 408.707031 332.535156 C 406.992188 332.929688 405.484375 333.03125 404.175781 332.84375 C 402.863281 332.65625 401.738281 332.117188 400.785156 331.21875 C 399.832031 330.324219 399.054688 329.007812 398.445312 327.269531 L 398.199219 327.328125 C 398.210938 327.988281 398.109375 328.707031 397.886719 329.480469 C 397.667969 330.253906 397.277344 331.007812 396.71875 331.746094 C 396.160156 332.480469 395.371094 333.121094 394.351562 333.667969 L 384.492188 339.632812 L 382.796875 332.277344 L 392.589844 326.683594 C 393.679688 326 394.382812 325.253906 394.699219 324.4375 C 395.015625 323.621094 395.03125 322.601562 394.75 321.375 C 394.195312 318.960938 393.726562 316.898438 393.351562 315.1875 C 392.976562 313.472656 392.671875 312.046875 392.445312 310.90625 C 392.21875 309.765625 392.007812 308.769531 391.808594 307.914062 L 396.539062 307.003906 L 399.589844 320.261719 C 400.007812 321.925781 400.484375 323.203125 401.019531 324.097656 C 401.554688 324.992188 402.269531 325.550781 403.171875 325.773438 C 404.074219 325.996094 405.265625 325.9375 406.746094 325.597656 C 408.195312 325.261719 409.269531 324.800781 409.964844 324.210938 C 410.660156 323.621094 411.054688 322.804688 411.144531 321.769531 C 411.234375 320.730469 411.089844 319.375 410.703125 317.707031 C 409.953125 314.4375 409.289062 311.636719 408.71875 309.304688 C 408.148438 306.972656 407.746094 305.382812 407.519531 304.535156 L 411.882812 302.710938 C 412.355469 304.167969 412.777344 305.546875 413.148438 306.847656 C 413.519531 308.152344 413.890625 309.582031 414.265625 311.136719 C 414.640625 312.695312 415.078125 314.566406 415.582031 316.757812 M 413.460938 309.5625 L 379.378906 317.402344 L 377.800781 310.550781 L 411.882812 302.710938 Z M 413.460938 309.5625 "/>
<path fill-rule="nonzero" fill="rgb(100%, 100%, 100%)" fill-opacity="1" d="M 394.191406 396.03125 L 389.53125 394.316406 L 395.378906 378.4375 L 400.039062 380.15625 Z M 412.867188 385.367188 L 380.050781 373.277344 L 382.519531 366.574219 L 415.335938 378.660156 Z M 404.925781 406.929688 L 372.105469 394.84375 L 374.574219 388.136719 L 407.394531 400.222656 Z M 404.925781 406.929688 "/>
<path fill-rule="nonzero" fill="rgb(100%, 100%, 100%)" fill-opacity="1" d="M 384.152344 413.484375 L 369.917969 430.941406 L 366.304688 427.996094 L 380.535156 410.539062 Z M 390.867188 428.105469 C 389.617188 429.640625 388.332031 431.214844 387.019531 432.824219 C 385.707031 434.433594 384.386719 436 383.058594 437.523438 C 381.730469 439.046875 380.449219 440.457031 379.210938 441.761719 L 375.773438 438.515625 L 385.527344 426.554688 C 386.203125 425.730469 386.515625 424.964844 386.476562 424.269531 C 386.433594 423.570312 386.019531 422.902344 385.234375 422.261719 L 370.464844 410.21875 C 369.679688 409.578125 368.941406 409.308594 368.25 409.40625 C 367.554688 409.507812 366.875 409.96875 366.199219 410.796875 L 356.445312 422.757812 L 352.574219 420.046875 C 353.601562 418.574219 354.734375 417.039062 355.972656 415.441406 C 357.210938 413.84375 358.476562 412.234375 359.777344 410.613281 C 361.078125 408.992188 362.351562 407.414062 363.601562 405.878906 C 365.144531 403.988281 366.84375 402.851562 368.699219 402.476562 C 370.558594 402.09375 372.285156 402.53125 373.878906 403.785156 L 390.851562 417.621094 C 392.398438 418.929688 393.171875 420.53125 393.175781 422.429688 C 393.175781 424.324219 392.410156 426.214844 390.867188 428.105469 "/>
<path fill-rule="nonzero" fill="rgb(100%, 100%, 100%)" fill-opacity="1" d="M 363.878906 454.492188 L 342.339844 426.9375 L 347.96875 422.535156 L 369.507812 450.09375 Z M 363.878906 454.492188 "/>
<path fill-rule="nonzero" fill="rgb(100%, 100%, 100%)" fill-opacity="1" d="M 313.539062 478.691406 C 311.855469 479.308594 310.71875 478.859375 310.125 477.351562 L 297.480469 447.328125 L 303.867188 444.988281 L 315.460938 472.640625 L 316.480469 472.269531 L 315.332031 447.695312 C 315.179688 446.277344 315.851562 445.292969 317.355469 444.742188 L 322.078125 443.011719 C 323.617188 442.449219 324.804688 442.75 325.636719 443.921875 L 340.636719 463.417969 L 341.65625 463.046875 L 332.53125 434.484375 L 338.917969 432.144531 L 348.664062 463.230469 C 349.148438 464.78125 348.570312 465.855469 346.925781 466.460938 L 340.214844 468.917969 C 338.785156 469.441406 337.648438 469.117188 336.816406 467.949219 L 324.535156 452.042969 C 324.007812 451.375 323.519531 450.6875 323.082031 449.984375 C 322.640625 449.28125 322.175781 448.589844 321.679688 447.90625 L 320.875 448.203125 C 320.9375 449.042969 321.023438 449.875 321.121094 450.703125 C 321.222656 451.53125 321.308594 452.378906 321.386719 453.25 L 322.269531 473.277344 C 322.425781 474.699219 321.75 475.683594 320.246094 476.234375 Z M 313.539062 478.691406 "/>
<path fill-rule="nonzero" fill="rgb(100%, 100%, 100%)" fill-opacity="1" d="M 282.929688 480.976562 L 285.183594 446.078125 L 292.316406 446.535156 L 290.0625 481.4375 Z M 275.199219 480.933594 C 272.234375 480.746094 269.734375 480.285156 267.699219 479.5625 C 265.664062 478.835938 264.054688 477.753906 262.871094 476.304688 C 261.683594 474.855469 260.878906 472.960938 260.457031 470.613281 C 260.035156 468.265625 259.9375 465.390625 260.15625 461.984375 C 260.375 458.578125 260.84375 455.738281 261.566406 453.464844 C 262.285156 451.191406 263.324219 449.414062 264.6875 448.132812 C 266.050781 446.847656 267.785156 445.976562 269.898438 445.519531 C 272.007812 445.066406 274.546875 444.933594 277.511719 445.125 C 280.363281 445.308594 283.003906 445.519531 285.433594 445.761719 C 287.863281 446.003906 290.15625 446.261719 292.316406 446.535156 L 289.035156 451.203125 C 287.519531 451.035156 285.773438 450.863281 283.796875 450.683594 C 281.824219 450.507812 279.621094 450.339844 277.1875 450.183594 C 274.980469 450.039062 273.214844 450.308594 271.894531 450.984375 C 270.570312 451.660156 269.582031 452.917969 268.929688 454.753906 C 268.277344 456.589844 267.839844 459.160156 267.628906 462.464844 C 267.414062 465.769531 267.515625 468.375 267.925781 470.28125 C 268.335938 472.1875 269.15625 473.570312 270.378906 474.425781 C 271.605469 475.285156 273.320312 475.785156 275.523438 475.929688 C 277.882812 476.082031 279.984375 476.199219 281.832031 476.285156 C 283.675781 476.371094 285.476562 476.46875 287.222656 476.582031 L 290.0625 481.4375 C 287.886719 481.433594 285.585938 481.394531 283.164062 481.324219 C 280.746094 481.25 278.089844 481.121094 275.199219 480.933594 "/>
<path fill-rule="nonzero" fill="rgb(100%, 100%, 100%)" fill-opacity="1" d="M 229.027344 447.21875 L 231.011719 442.664062 L 249.617188 450.773438 L 247.632812 455.324219 Z M 227.113281 468.222656 C 226.554688 467.980469 226.125 467.628906 225.828125 467.164062 C 225.527344 466.703125 225.394531 466.203125 225.421875 465.664062 L 227.769531 430.363281 L 234.476562 433.285156 L 231.988281 461.613281 C 231.910156 462.167969 231.835938 462.726562 231.757812 463.28125 C 231.683594 463.835938 231.59375 464.371094 231.496094 464.882812 L 232.964844 465.523438 C 233.273438 465.101562 233.605469 464.675781 233.960938 464.238281 C 234.316406 463.804688 234.6875 463.378906 235.078125 462.957031 L 254.078125 441.824219 L 260.785156 444.746094 L 236.53125 470.503906 C 236.1875 470.90625 235.738281 471.152344 235.179688 471.242188 C 234.621094 471.328125 234.0625 471.253906 233.503906 471.007812 Z M 227.113281 468.222656 "/>
<path fill-rule="nonzero" fill="rgb(100%, 100%, 100%)" fill-opacity="1" d="M 198.199219 449.917969 L 215.894531 429.703125 C 216.539062 428.964844 216.800781 428.21875 216.679688 427.460938 C 216.558594 426.703125 216.082031 425.960938 215.25 425.230469 L 204.753906 416.042969 L 207.667969 412.195312 C 209.753906 413.75 211.863281 415.429688 214.003906 417.238281 C 216.144531 419.042969 218.246094 420.851562 220.3125 422.660156 C 222.492188 424.566406 223.65625 426.460938 223.804688 428.34375 C 223.957031 430.226562 223.363281 431.933594 222.027344 433.457031 L 203.53125 454.585938 Z M 198.199219 449.917969 "/>
<path fill-rule="nonzero" fill="rgb(100%, 100%, 100%)" fill-opacity="1" d="M 173.050781 422.394531 L 195.601562 407.792969 C 196.421875 407.257812 196.878906 406.613281 196.96875 405.851562 C 197.058594 405.089844 196.804688 404.246094 196.203125 403.316406 L 188.625 391.609375 L 192.476562 388.703125 C 194.058594 390.769531 195.628906 392.964844 197.191406 395.285156 C 198.757812 397.609375 200.285156 399.925781 201.777344 402.226562 C 203.351562 404.65625 203.953125 406.800781 203.582031 408.652344 C 203.210938 410.503906 202.175781 411.980469 200.472656 413.082031 L 176.902344 428.34375 Z M 173.050781 422.394531 "/>
<path fill-rule="nonzero" fill="rgb(100%, 100%, 100%)" fill-opacity="1" d="M 156.03125 388.242188 L 189.769531 379.042969 L 191.621094 385.824219 L 157.878906 395.027344 Z M 153.617188 381.140625 C 152.757812 377.976562 152.351562 375.332031 152.402344 373.207031 C 152.449219 371.078125 153.0625 369.371094 154.234375 368.082031 C 155.40625 366.796875 157.28125 365.800781 159.855469 365.101562 C 161.550781 364.636719 163.058594 364.472656 164.375 364.609375 C 165.6875 364.742188 166.839844 365.238281 167.824219 366.097656 C 168.8125 366.953125 169.644531 368.234375 170.320312 369.949219 L 170.566406 369.882812 C 170.527344 369.222656 170.601562 368.5 170.789062 367.714844 C 170.980469 366.9375 171.339844 366.167969 171.867188 365.410156 C 172.398438 364.652344 173.160156 363.980469 174.15625 363.390625 L 183.769531 357.039062 L 185.753906 364.316406 L 176.195312 370.300781 C 175.132812 371.027344 174.460938 371.800781 174.175781 372.628906 C 173.898438 373.457031 173.917969 374.476562 174.25 375.691406 C 174.902344 378.082031 175.453125 380.121094 175.894531 381.820312 C 176.339844 383.515625 176.699219 384.925781 176.972656 386.054688 C 177.246094 387.1875 177.5 388.175781 177.730469 389.019531 L 173.039062 390.121094 L 169.457031 376.996094 C 168.976562 375.351562 168.449219 374.09375 167.878906 373.222656 C 167.308594 372.351562 166.566406 371.820312 165.660156 371.632812 C 164.75 371.449219 163.5625 371.554688 162.09375 371.953125 C 160.660156 372.347656 159.605469 372.851562 158.933594 373.46875 C 158.261719 374.085938 157.902344 374.914062 157.851562 375.957031 C 157.804688 376.996094 158.003906 378.34375 158.457031 379.996094 C 159.339844 383.234375 160.113281 386.003906 160.777344 388.3125 C 161.441406 390.621094 161.90625 392.191406 162.167969 393.027344 L 157.878906 395.027344 C 157.347656 393.59375 156.871094 392.230469 156.449219 390.941406 C 156.03125 389.65625 155.597656 388.242188 155.164062 386.703125 C 154.726562 385.164062 154.210938 383.308594 153.617188 381.140625 "/>
<path fill-rule="nonzero" fill="rgb(100%, 100%, 100%)" fill-opacity="1" d="M 165.515625 337.839844 C 165.515625 339.496094 164.175781 340.835938 162.519531 340.835938 C 160.863281 340.835938 159.519531 339.496094 159.519531 337.839844 C 159.519531 336.183594 160.863281 334.839844 162.519531 334.839844 C 164.175781 334.839844 165.515625 336.183594 165.515625 337.839844 "/>
<path fill-rule="nonzero" fill="rgb(100%, 100%, 100%)" fill-opacity="1" d="M 406.402344 350.832031 C 406.402344 352.488281 405.058594 353.832031 403.402344 353.832031 C 401.746094 353.832031 400.40625 352.488281 400.40625 350.832031 C 400.40625 349.175781 401.746094 347.832031 403.402344 347.832031 C 405.058594 347.832031 406.402344 349.175781 406.402344 350.832031 "/>
</svg>
