<?xml version="1.0" encoding="UTF-8"?>
<svg xmlns="http://www.w3.org/2000/svg" xmlns:xlink="http://www.w3.org/1999/xlink" width="566.929pt" height="708.661pt" viewBox="0 0 566.929 708.661">
<defs>
<clipPath id="clip-0">
<path clip-rule="nonzero" d="M 0.101562 0 L 566.757812 0 L 566.757812 708.320312 L 0.101562 708.320312 Z M 0.101562 0 "/>
</clipPath>
</defs>
<g clip-path="url(#clip-0)">
<path fill-rule="nonzero" fill="rgb(100%, 100%, 100%)" fill-opacity="1" d="M 0.101562 708.320312 L 566.757812 708.320312 L 566.757812 0 L 0.101562 0 Z M 0.101562 708.320312 "/>
</g>
<path fill-rule="nonzero" fill="rgb(28.199768%, 40.79895%, 39.199829%)" fill-opacity="1" d="M 314.898438 338.511719 L 311.554688 338.511719 L 311.554688 293.398438 L 311.542969 293.34375 C 310.792969 289.234375 308.871094 283.140625 303.980469 277.425781 C 298.597656 271.148438 292.214844 268.285156 287.804688 266.992188 L 287.628906 266.941406 L 287.453125 266.988281 C 282.941406 268.269531 276.382812 271.117188 270.769531 277.417969 C 265.714844 283.089844 263.585938 289.199219 262.6875 293.320312 L 262.675781 293.386719 L 262.675781 338.511719 L 259.332031 338.511719 L 259.332031 293.027344 L 259.421875 292.613281 C 260.402344 288.09375 262.738281 281.410156 268.273438 275.195312 C 274.421875 268.289062 281.601562 265.171875 286.542969 263.773438 L 287.644531 263.460938 L 288.746094 263.785156 C 293.589844 265.203125 300.605469 268.347656 306.519531 275.253906 C 311.898438 281.53125 314.007812 288.226562 314.832031 292.742188 L 314.898438 293.246094 Z M 314.898438 338.511719 "/>
<path fill-rule="nonzero" fill="rgb(28.199768%, 40.79895%, 39.199829%)" fill-opacity="1" d="M 336.296875 357.90625 L 332.953125 357.90625 L 332.953125 312.792969 L 332.941406 312.738281 C 332.191406 308.628906 330.269531 302.53125 325.378906 296.820312 C 319.996094 290.539062 313.613281 287.679688 309.203125 286.386719 L 309.027344 286.332031 L 308.851562 286.382812 C 304.339844 287.664062 297.78125 290.507812 292.167969 296.8125 C 287.113281 302.484375 284.984375 308.589844 284.085938 312.714844 L 284.074219 312.777344 L 284.074219 357.90625 L 280.730469 357.90625 L 280.730469 312.421875 L 280.820312 312.003906 C 281.800781 307.488281 284.136719 300.800781 289.671875 294.585938 C 295.820312 287.683594 303 284.566406 307.941406 283.167969 L 309.042969 282.851562 L 310.144531 283.175781 C 314.988281 284.597656 322.003906 287.742188 327.917969 294.644531 C 333.296875 300.925781 335.40625 307.621094 336.234375 312.132812 L 336.296875 312.640625 Z M 336.296875 357.90625 "/>
<path fill-rule="nonzero" fill="rgb(28.199768%, 40.79895%, 39.199829%)" fill-opacity="1" d="M 294.835938 344.53125 L 291.492188 344.53125 L 291.492188 299.417969 L 291.484375 299.363281 C 290.734375 295.253906 288.808594 289.15625 283.917969 283.445312 C 278.539062 277.164062 272.152344 274.304688 267.742188 273.011719 L 267.570312 272.957031 L 267.394531 273.007812 C 262.878906 274.289062 256.320312 277.132812 250.707031 283.4375 C 245.65625 289.109375 243.523438 295.214844 242.625 299.339844 L 242.613281 299.402344 L 242.613281 344.53125 L 239.269531 344.53125 L 239.269531 299.046875 L 239.359375 298.632812 C 240.34375 294.113281 242.675781 287.425781 248.210938 281.210938 C 254.359375 274.308594 261.539062 271.191406 266.480469 269.792969 L 267.585938 269.480469 L 268.683594 269.800781 C 273.527344 271.222656 280.542969 274.367188 286.457031 281.269531 C 291.835938 287.550781 293.949219 294.246094 294.773438 298.757812 L 294.835938 299.265625 Z M 294.835938 344.53125 "/>
<path fill-rule="nonzero" fill="rgb(28.199768%, 40.79895%, 39.199829%)" fill-opacity="1" d="M 167.71875 407.394531 L 160.660156 407.394531 L 160.660156 372.808594 L 167.71875 372.808594 Z M 161.28125 391.40625 L 144.5625 391.40625 L 144.5625 386.492188 L 161.28125 386.492188 Z M 145.015625 407.394531 L 137.953125 407.394531 L 137.953125 372.808594 L 145.015625 372.808594 Z M 145.015625 407.394531 "/>
<path fill-rule="nonzero" fill="rgb(28.199768%, 40.79895%, 39.199829%)" fill-opacity="1" d="M 177.097656 386.992188 L 199.351562 386.992188 L 199.351562 391.605469 L 177.097656 391.605469 Z M 184.101562 372.707031 L 190.117188 372.707031 C 192.167969 372.707031 194.191406 372.742188 196.1875 372.808594 C 198.183594 372.875 200.066406 372.976562 201.835938 373.109375 L 201.5 377.769531 L 186.246094 377.769531 C 185.195312 377.769531 184.410156 378.003906 183.902344 378.472656 C 183.394531 378.941406 183.140625 379.675781 183.140625 380.679688 L 183.140625 399.523438 C 183.140625 400.527344 183.394531 401.261719 183.902344 401.730469 C 184.410156 402.199219 185.195312 402.433594 186.246094 402.433594 L 201.5 402.433594 L 201.835938 407.09375 C 200.066406 407.226562 198.183594 407.316406 196.1875 407.367188 C 194.191406 407.417969 192.167969 407.453125 190.117188 407.46875 C 188.0625 407.484375 186.058594 407.492188 184.101562 407.492188 C 181.691406 407.492188 179.761719 406.902344 178.3125 405.714844 C 176.863281 404.527344 176.117188 402.933594 176.082031 400.929688 L 176.082031 379.277344 C 176.117188 377.269531 176.863281 375.675781 178.3125 374.488281 C 179.761719 373.300781 181.691406 372.707031 184.101562 372.707031 "/>
<path fill-rule="nonzero" fill="rgb(28.199768%, 40.79895%, 39.199829%)" fill-opacity="1" d="M 215.675781 407.394531 L 208.617188 407.394531 L 208.617188 372.808594 L 215.675781 372.808594 Z M 215.675781 407.394531 "/>
<path fill-rule="nonzero" fill="rgb(28.199768%, 40.79895%, 39.199829%)" fill-opacity="1" d="M 262.953125 372.808594 C 264.722656 372.808594 265.628906 373.609375 265.664062 375.214844 L 267.191406 407.394531 L 260.46875 407.394531 L 259.113281 377.769531 L 258.039062 377.769531 L 250.753906 400.976562 C 250.414062 402.347656 249.453125 403.03125 247.871094 403.03125 L 242.902344 403.03125 C 241.28125 403.03125 240.285156 402.347656 239.90625 400.976562 L 232.621094 377.769531 L 231.546875 377.769531 L 230.304688 407.394531 L 223.582031 407.394531 L 225.109375 375.214844 C 225.183594 373.609375 226.085938 372.808594 227.820312 372.808594 L 234.882812 372.808594 C 236.386719 372.808594 237.328125 373.496094 237.707031 374.863281 L 243.691406 393.808594 C 243.957031 394.613281 244.171875 395.414062 244.34375 396.214844 C 244.511719 397.019531 244.710938 397.820312 244.9375 398.621094 L 245.78125 398.621094 C 246.007812 397.820312 246.214844 397.019531 246.402344 396.214844 C 246.59375 395.414062 246.800781 394.597656 247.023438 393.761719 L 253.015625 374.863281 C 253.351562 373.496094 254.3125 372.808594 255.894531 372.808594 Z M 262.953125 372.808594 "/>
<path fill-rule="nonzero" fill="rgb(28.199768%, 40.79895%, 39.199829%)" fill-opacity="1" d="M 282.214844 407.394531 L 275.15625 407.394531 L 275.15625 372.808594 L 282.214844 372.808594 Z M 289.839844 372.359375 C 292.777344 372.359375 295.273438 372.652344 297.324219 373.234375 C 299.375 373.820312 301.03125 374.789062 302.296875 376.140625 C 303.558594 377.496094 304.46875 379.316406 305.035156 381.605469 C 305.601562 383.894531 305.882812 386.726562 305.882812 390.101562 C 305.882812 393.476562 305.601562 396.308594 305.035156 398.597656 C 304.46875 400.886719 303.558594 402.707031 302.296875 404.058594 C 301.03125 405.414062 299.375 406.382812 297.324219 406.96875 C 295.273438 407.550781 292.777344 407.84375 289.839844 407.84375 C 287.015625 407.84375 284.398438 407.804688 281.988281 407.71875 C 279.578125 407.636719 277.300781 407.527344 275.15625 407.394531 L 278.089844 402.582031 C 279.597656 402.648438 281.332031 402.707031 283.289062 402.757812 C 285.246094 402.808594 287.429688 402.832031 289.839844 402.832031 C 292.023438 402.832031 293.746094 402.457031 295.007812 401.703125 C 296.269531 400.953125 297.164062 399.648438 297.691406 397.796875 C 298.21875 395.941406 298.484375 393.375 298.484375 390.101562 C 298.484375 386.828125 298.21875 384.261719 297.691406 382.40625 C 297.164062 380.554688 296.269531 379.242188 295.007812 378.472656 C 293.746094 377.703125 292.023438 377.320312 289.839844 377.320312 C 287.503906 377.320312 285.425781 377.335938 283.597656 377.371094 C 281.773438 377.40625 279.992188 377.421875 278.261719 377.421875 L 275.15625 372.808594 C 277.300781 372.675781 279.570312 372.566406 281.960938 372.484375 C 284.351562 372.402344 286.980469 372.359375 289.839844 372.359375 "/>
<path fill-rule="nonzero" fill="rgb(28.199768%, 40.79895%, 39.199829%)" fill-opacity="1" d="M 336.722656 397.519531 L 316.671875 397.519531 L 316.671875 392.609375 L 336.722656 392.609375 Z M 330.171875 372.808594 C 330.773438 372.808594 331.300781 372.960938 331.753906 373.261719 C 332.203125 373.5625 332.523438 373.960938 332.714844 374.460938 L 344.519531 407.394531 L 337.289062 407.394531 L 328.363281 380.730469 C 328.214844 380.195312 328.0625 379.660156 327.910156 379.125 C 327.761719 378.589844 327.628906 378.070312 327.515625 377.570312 L 325.933594 377.570312 C 325.820312 378.070312 325.6875 378.589844 325.539062 379.125 C 325.386719 379.660156 325.21875 380.195312 325.03125 380.730469 L 316.164062 407.394531 L 308.933594 407.394531 L 320.738281 374.460938 C 320.886719 373.960938 321.199219 373.5625 321.671875 373.261719 C 322.140625 372.960938 322.679688 372.808594 323.28125 372.808594 Z M 330.171875 372.808594 "/>
<path fill-rule="nonzero" fill="rgb(28.199768%, 40.79895%, 39.199829%)" fill-opacity="1" d="M 356.042969 372.808594 L 356.042969 399.375 C 356.042969 400.34375 356.332031 401.070312 356.917969 401.554688 C 357.5 402.039062 358.339844 402.28125 359.429688 402.28125 L 373.214844 402.28125 L 373.550781 407.042969 C 370.988281 407.242188 368.328125 407.367188 365.558594 407.417969 C 362.792969 407.46875 360.050781 407.492188 357.339844 407.492188 C 354.480469 407.492188 352.378906 406.84375 351.042969 405.539062 C 349.707031 404.234375 349.035156 402.582031 349.035156 400.578125 L 349.035156 372.808594 Z M 356.042969 372.808594 "/>
<path fill-rule="nonzero" fill="rgb(28.199768%, 40.79895%, 39.199829%)" fill-opacity="1" d="M 385.753906 372.808594 L 385.753906 399.375 C 385.753906 400.34375 386.042969 401.070312 386.628906 401.554688 C 387.210938 402.039062 388.050781 402.28125 389.140625 402.28125 L 402.925781 402.28125 L 403.261719 407.042969 C 400.703125 407.242188 398.039062 407.367188 395.269531 407.417969 C 392.503906 407.46875 389.765625 407.492188 387.050781 407.492188 C 384.191406 407.492188 382.089844 406.84375 380.753906 405.539062 C 379.417969 404.234375 378.75 402.582031 378.75 400.578125 L 378.75 372.808594 Z M 385.753906 372.808594 "/>
<path fill-rule="nonzero" fill="rgb(28.199768%, 40.79895%, 39.199829%)" fill-opacity="1" d="M 415.519531 407.394531 L 408.570312 407.394531 L 408.570312 372.808594 L 415.519531 372.808594 Z M 422.917969 372.359375 C 426.15625 372.359375 428.785156 372.660156 430.800781 373.261719 C 432.8125 373.863281 434.28125 374.890625 435.203125 376.34375 C 436.128906 377.796875 436.589844 379.84375 436.589844 382.484375 C 436.589844 384.222656 436.351562 385.699219 435.882812 386.917969 C 435.410156 388.140625 434.640625 389.109375 433.566406 389.824219 C 432.492188 390.546875 431.054688 391.003906 429.246094 391.203125 L 429.246094 391.453125 C 429.886719 391.589844 430.554688 391.847656 431.25 392.230469 C 431.949219 392.617188 432.585938 393.160156 433.171875 393.859375 C 433.753906 394.5625 434.199219 395.464844 434.5 396.566406 L 438.058594 407.394531 L 430.601562 407.394531 L 427.382812 396.71875 C 426.96875 395.515625 426.402344 394.671875 425.6875 394.1875 C 424.972656 393.703125 423.992188 393.460938 422.75 393.460938 C 420.300781 393.460938 418.210938 393.453125 416.480469 393.433594 C 414.746094 393.417969 413.308594 393.394531 412.160156 393.359375 C 411.007812 393.328125 410.003906 393.308594 409.136719 393.308594 L 409.304688 388.546875 L 422.75 388.546875 C 424.445312 388.515625 425.78125 388.339844 426.761719 388.019531 C 427.738281 387.703125 428.433594 387.136719 428.851562 386.316406 C 429.265625 385.5 429.46875 384.335938 429.46875 382.832031 C 429.46875 381.363281 429.265625 380.226562 428.851562 379.425781 C 428.433594 378.621094 427.738281 378.0625 426.761719 377.746094 C 425.78125 377.429688 424.445312 377.269531 422.75 377.269531 C 419.433594 377.269531 416.59375 377.285156 414.222656 377.320312 C 411.847656 377.355469 410.226562 377.386719 409.363281 377.421875 L 408.570312 372.808594 C 410.078125 372.675781 411.5 372.574219 412.835938 372.507812 C 414.171875 372.441406 415.632812 372.402344 417.214844 372.382812 C 418.796875 372.367188 420.695312 372.359375 422.917969 372.359375 "/>
</svg>
