<?xml version="1.0" encoding="UTF-8"?>
<svg xmlns="http://www.w3.org/2000/svg" xmlns:xlink="http://www.w3.org/1999/xlink" width="566.929pt" height="708.661pt" viewBox="0 0 566.929 708.661">
<path fill-rule="nonzero" fill="rgb(0%, 0%, 0%)" fill-opacity="1" d="M 165.054688 378.503906 L 161.710938 378.503906 L 161.710938 333.390625 L 161.699219 333.335938 C 160.949219 329.226562 159.027344 323.128906 154.136719 317.417969 C 148.753906 311.136719 142.371094 308.277344 137.960938 306.984375 L 137.785156 306.929688 L 137.609375 306.980469 C 133.097656 308.261719 126.539062 311.105469 120.925781 317.410156 C 115.871094 323.082031 113.742188 329.1875 112.84375 333.3125 L 112.828125 333.375 L 112.828125 378.503906 L 109.484375 378.503906 L 109.484375 333.019531 L 109.578125 332.601562 C 110.558594 328.085938 112.894531 321.398438 118.429688 315.183594 C 124.578125 308.28125 131.757812 305.164062 136.699219 303.765625 L 137.800781 303.449219 L 138.902344 303.773438 C 143.746094 305.195312 150.761719 308.339844 156.675781 315.242188 C 162.054688 321.523438 164.164062 328.21875 164.988281 332.730469 L 165.054688 333.238281 Z M 165.054688 378.503906 "/>
<path fill-rule="nonzero" fill="rgb(0%, 0%, 0%)" fill-opacity="1" d="M 186.453125 397.894531 L 183.109375 397.894531 L 183.109375 352.78125 L 183.097656 352.726562 C 182.347656 348.617188 180.425781 342.523438 175.535156 336.808594 C 170.152344 330.53125 163.769531 327.667969 159.359375 326.375 L 159.183594 326.324219 L 159.007812 326.375 C 154.496094 327.652344 147.9375 330.5 142.324219 336.800781 C 137.269531 342.472656 135.140625 348.582031 134.242188 352.703125 L 134.226562 352.769531 L 134.226562 397.894531 L 130.886719 397.894531 L 130.886719 352.410156 L 130.976562 351.996094 C 131.957031 347.476562 134.292969 340.792969 139.828125 334.578125 C 145.976562 327.671875 153.15625 324.554688 158.097656 323.15625 L 159.199219 322.84375 L 160.300781 323.167969 C 165.144531 324.589844 172.160156 327.730469 178.074219 334.636719 C 183.453125 340.914062 185.5625 347.609375 186.386719 352.125 L 186.453125 352.628906 Z M 186.453125 397.894531 "/>
<path fill-rule="nonzero" fill="rgb(0%, 0%, 0%)" fill-opacity="1" d="M 144.992188 384.519531 L 141.648438 384.519531 L 141.648438 339.410156 L 141.640625 339.351562 C 140.886719 335.242188 138.964844 329.148438 134.074219 323.4375 C 128.691406 317.15625 122.308594 314.292969 117.898438 313 L 117.722656 312.949219 L 117.546875 313 C 113.035156 314.277344 106.476562 317.125 100.863281 323.425781 C 95.8125 329.101562 93.679688 335.207031 92.78125 339.328125 L 92.769531 339.394531 L 92.769531 384.519531 L 89.425781 384.519531 L 89.425781 339.039062 L 89.515625 338.621094 C 90.5 334.105469 92.832031 327.417969 98.367188 321.203125 C 104.515625 314.300781 111.695312 311.183594 116.636719 309.78125 L 117.742188 309.46875 L 118.839844 309.792969 C 123.683594 311.214844 130.699219 314.355469 136.613281 321.261719 C 141.992188 327.539062 144.105469 334.238281 144.929688 338.75 L 144.992188 339.253906 Z M 144.992188 384.519531 "/>
<path fill-rule="nonzero" fill="rgb(0%, 0%, 0%)" fill-opacity="1" d="M 231.941406 373.097656 L 225.507812 373.097656 L 225.507812 341.589844 L 231.941406 341.589844 Z M 226.074219 358.53125 L 210.839844 358.53125 L 210.839844 354.054688 L 226.074219 354.054688 Z M 211.253906 373.097656 L 204.820312 373.097656 L 204.820312 341.589844 L 211.253906 341.589844 Z M 211.253906 373.097656 "/>
<path fill-rule="nonzero" fill="rgb(0%, 0%, 0%)" fill-opacity="1" d="M 240.484375 354.515625 L 260.761719 354.515625 L 260.761719 358.714844 L 240.484375 358.714844 Z M 246.863281 341.5 L 252.34375 341.5 C 254.214844 341.5 256.058594 341.53125 257.878906 341.589844 C 259.695312 341.652344 261.410156 341.742188 263.023438 341.863281 L 262.714844 346.113281 L 248.820312 346.113281 C 247.859375 346.113281 247.148438 346.324219 246.683594 346.75 C 246.222656 347.175781 245.988281 347.847656 245.988281 348.761719 L 245.988281 365.929688 C 245.988281 366.84375 246.222656 367.515625 246.683594 367.941406 C 247.148438 368.367188 247.859375 368.578125 248.820312 368.578125 L 262.714844 368.578125 L 263.023438 372.824219 C 261.410156 372.949219 259.695312 373.03125 257.878906 373.078125 C 256.058594 373.121094 254.214844 373.152344 252.34375 373.167969 C 250.476562 373.183594 248.648438 373.191406 246.863281 373.191406 C 244.667969 373.191406 242.910156 372.652344 241.589844 371.570312 C 240.269531 370.488281 239.589844 369.035156 239.554688 367.210938 L 239.554688 347.480469 C 239.589844 345.65625 240.269531 344.203125 241.589844 343.121094 C 242.910156 342.039062 244.667969 341.5 246.863281 341.5 "/>
<path fill-rule="nonzero" fill="rgb(0%, 0%, 0%)" fill-opacity="1" d="M 275.632812 373.097656 L 269.199219 373.097656 L 269.199219 341.589844 L 275.632812 341.589844 Z M 275.632812 373.097656 "/>
<path fill-rule="nonzero" fill="rgb(0%, 0%, 0%)" fill-opacity="1" d="M 318.707031 341.589844 C 320.316406 341.589844 321.140625 342.320312 321.175781 343.78125 L 322.566406 373.101562 L 316.441406 373.101562 L 315.207031 346.109375 L 314.230469 346.109375 L 307.589844 367.253906 C 307.28125 368.503906 306.40625 369.125 304.964844 369.125 L 300.4375 369.125 C 298.960938 369.125 298.050781 368.503906 297.710938 367.253906 L 291.070312 346.109375 L 290.09375 346.109375 L 288.960938 373.101562 L 282.835938 373.101562 L 284.226562 343.78125 C 284.292969 342.320312 285.117188 341.589844 286.695312 341.589844 L 293.128906 341.589844 C 294.5 341.589844 295.359375 342.214844 295.703125 343.464844 L 301.15625 360.722656 C 301.398438 361.457031 301.59375 362.1875 301.75 362.917969 C 301.902344 363.648438 302.082031 364.375 302.289062 365.109375 L 303.0625 365.109375 C 303.265625 364.375 303.453125 363.648438 303.628906 362.917969 C 303.796875 362.1875 303.988281 361.441406 304.195312 360.679688 L 309.648438 343.464844 C 309.957031 342.214844 310.832031 341.589844 312.273438 341.589844 Z M 318.707031 341.589844 "/>
<path fill-rule="nonzero" fill="rgb(0%, 0%, 0%)" fill-opacity="1" d="M 336.253906 373.097656 L 329.820312 373.097656 L 329.820312 341.589844 L 336.253906 341.589844 Z M 343.199219 341.179688 C 345.878906 341.179688 348.148438 341.445312 350.019531 341.976562 C 351.890625 342.511719 353.398438 343.394531 354.546875 344.628906 C 355.699219 345.859375 356.53125 347.519531 357.046875 349.605469 C 357.558594 351.691406 357.816406 354.269531 357.816406 357.34375 C 357.816406 360.421875 357.558594 363 357.046875 365.085938 C 356.53125 367.171875 355.699219 368.832031 354.546875 370.0625 C 353.398438 371.296875 351.890625 372.179688 350.019531 372.710938 C 348.148438 373.242188 345.878906 373.511719 343.199219 373.511719 C 340.628906 373.511719 338.242188 373.472656 336.046875 373.394531 C 333.851562 373.320312 331.777344 373.222656 329.820312 373.097656 L 332.496094 368.714844 C 333.871094 368.777344 335.449219 368.832031 337.230469 368.875 C 339.015625 368.921875 341.003906 368.945312 343.199219 368.945312 C 345.191406 368.945312 346.761719 368.601562 347.910156 367.917969 C 349.058594 367.230469 349.875 366.042969 350.355469 364.355469 C 350.835938 362.664062 351.074219 360.328125 351.074219 357.34375 C 351.074219 354.363281 350.835938 352.023438 350.355469 350.335938 C 349.875 348.644531 349.058594 347.453125 347.910156 346.75 C 346.761719 346.050781 345.191406 345.699219 343.199219 345.699219 C 341.074219 345.699219 339.179688 345.714844 337.515625 345.746094 C 335.851562 345.777344 334.230469 345.792969 332.652344 345.792969 L 329.820312 341.589844 C 331.777344 341.46875 333.84375 341.371094 336.023438 341.292969 C 338.203125 341.21875 340.59375 341.179688 343.199219 341.179688 "/>
<path fill-rule="nonzero" fill="rgb(0%, 0%, 0%)" fill-opacity="1" d="M 385.914062 364.105469 L 367.644531 364.105469 L 367.644531 359.628906 L 385.914062 359.628906 Z M 379.945312 341.589844 C 380.492188 341.589844 380.976562 341.726562 381.386719 342 C 381.796875 342.273438 382.089844 342.640625 382.261719 343.097656 L 393.015625 373.097656 L 386.429688 373.097656 L 378.296875 348.804688 C 378.160156 348.320312 378.023438 347.832031 377.886719 347.34375 C 377.75 346.859375 377.628906 346.386719 377.527344 345.929688 L 376.085938 345.929688 C 375.984375 346.386719 375.863281 346.859375 375.726562 347.34375 C 375.589844 347.832031 375.433594 348.320312 375.261719 348.804688 L 367.183594 373.097656 L 360.59375 373.097656 L 371.351562 343.097656 C 371.488281 342.640625 371.769531 342.273438 372.199219 342 C 372.628906 341.726562 373.117188 341.589844 373.667969 341.589844 Z M 379.945312 341.589844 "/>
<path fill-rule="nonzero" fill="rgb(0%, 0%, 0%)" fill-opacity="1" d="M 403.515625 341.589844 L 403.515625 365.792969 C 403.515625 366.675781 403.78125 367.339844 404.3125 367.78125 C 404.84375 368.222656 405.609375 368.441406 406.601562 368.441406 L 419.160156 368.441406 L 419.46875 372.78125 C 417.136719 372.960938 414.707031 373.078125 412.1875 373.121094 C 409.664062 373.167969 407.167969 373.191406 404.699219 373.191406 C 402.09375 373.191406 400.179688 372.597656 398.960938 371.410156 C 397.742188 370.222656 397.132812 368.714844 397.132812 366.890625 L 397.132812 341.589844 Z M 403.515625 341.589844 "/>
<path fill-rule="nonzero" fill="rgb(0%, 0%, 0%)" fill-opacity="1" d="M 430.585938 341.589844 L 430.585938 365.792969 C 430.585938 366.675781 430.851562 367.339844 431.382812 367.78125 C 431.914062 368.222656 432.679688 368.441406 433.671875 368.441406 L 446.230469 368.441406 L 446.539062 372.78125 C 444.203125 372.960938 441.777344 373.078125 439.257812 373.121094 C 436.734375 373.167969 434.238281 373.191406 431.769531 373.191406 C 429.160156 373.191406 427.246094 372.597656 426.03125 371.410156 C 424.8125 370.222656 424.203125 368.714844 424.203125 366.890625 L 424.203125 341.589844 Z M 430.585938 341.589844 "/>
<path fill-rule="nonzero" fill="rgb(0%, 0%, 0%)" fill-opacity="1" d="M 457.707031 373.097656 L 451.375 373.097656 L 451.375 341.589844 L 457.707031 341.589844 Z M 464.445312 341.179688 C 467.398438 341.179688 469.789062 341.453125 471.625 342 C 473.460938 342.550781 474.796875 343.484375 475.640625 344.808594 C 476.480469 346.132812 476.902344 348 476.902344 350.402344 C 476.902344 351.988281 476.6875 353.332031 476.257812 354.445312 C 475.828125 355.558594 475.125 356.441406 474.148438 357.09375 C 473.167969 357.75 471.855469 358.167969 470.210938 358.347656 L 470.210938 358.578125 C 470.792969 358.699219 471.402344 358.9375 472.039062 359.285156 C 472.671875 359.636719 473.253906 360.128906 473.789062 360.769531 C 474.320312 361.410156 474.722656 362.230469 474.996094 363.234375 L 478.238281 373.097656 L 471.445312 373.097656 L 468.511719 363.375 C 468.132812 362.277344 467.621094 361.507812 466.96875 361.066406 C 466.316406 360.625 465.425781 360.40625 464.292969 360.40625 C 462.0625 360.40625 460.15625 360.398438 458.578125 360.382812 C 457 360.367188 455.6875 360.34375 454.644531 360.3125 C 453.59375 360.285156 452.679688 360.269531 451.890625 360.269531 L 452.042969 355.929688 L 464.292969 355.929688 C 465.835938 355.898438 467.054688 355.738281 467.945312 355.449219 C 468.835938 355.160156 469.472656 354.644531 469.851562 353.898438 C 470.226562 353.152344 470.417969 352.09375 470.417969 350.722656 C 470.417969 349.386719 470.226562 348.347656 469.851562 347.617188 C 469.472656 346.886719 468.835938 346.378906 467.945312 346.089844 C 467.054688 345.800781 465.835938 345.65625 464.292969 345.65625 C 461.273438 345.65625 458.683594 345.667969 456.523438 345.699219 C 454.359375 345.730469 452.882812 345.761719 452.097656 345.792969 L 451.375 341.589844 C 452.746094 341.46875 454.042969 341.378906 455.261719 341.316406 C 456.476562 341.253906 457.808594 341.21875 459.25 341.203125 C 460.691406 341.1875 462.421875 341.179688 464.445312 341.179688 "/>
</svg>
