<?xml version="1.0" encoding="UTF-8"?>
<svg xmlns="http://www.w3.org/2000/svg" xmlns:xlink="http://www.w3.org/1999/xlink" width="566.929pt" height="708.661pt" viewBox="0 0 566.929 708.661">
<path fill-rule="nonzero" fill="rgb(28.199768%, 40.79895%, 39.199829%)" fill-opacity="1" d="M 174.484375 372.503906 L 171.140625 372.503906 L 171.140625 327.394531 L 171.128906 327.335938 C 170.378906 323.226562 168.457031 317.132812 163.5625 311.421875 C 158.183594 305.140625 151.796875 302.277344 147.386719 300.984375 L 147.214844 300.933594 L 147.039062 300.984375 C 142.527344 302.261719 135.96875 305.109375 130.355469 311.410156 C 125.300781 317.085938 123.167969 323.191406 122.273438 327.3125 L 122.257812 327.378906 L 122.257812 372.503906 L 118.914062 372.503906 L 118.914062 327.023438 L 119.003906 326.605469 C 119.988281 322.089844 122.324219 315.402344 127.859375 309.1875 C 134.007812 302.285156 141.1875 299.167969 146.125 297.765625 L 147.230469 297.453125 L 148.332031 297.777344 C 153.171875 299.199219 160.1875 302.339844 166.101562 309.246094 C 171.480469 315.523438 173.59375 322.222656 174.417969 326.734375 L 174.484375 327.238281 Z M 174.484375 372.503906 "/>
<path fill-rule="nonzero" fill="rgb(28.199768%, 40.79895%, 39.199829%)" fill-opacity="1" d="M 195.882812 391.898438 L 192.539062 391.898438 L 192.539062 346.785156 L 192.527344 346.730469 C 191.777344 342.621094 189.855469 336.523438 184.960938 330.8125 C 179.582031 324.53125 173.195312 321.671875 168.785156 320.378906 L 168.613281 320.324219 L 168.4375 320.375 C 163.925781 321.65625 157.367188 324.503906 151.753906 330.804688 C 146.699219 336.476562 144.570312 342.582031 143.671875 346.707031 L 143.65625 346.769531 L 143.65625 391.898438 L 140.3125 391.898438 L 140.3125 346.414062 L 140.402344 346 C 141.386719 341.480469 143.722656 334.796875 149.257812 328.582031 C 155.40625 321.675781 162.585938 318.558594 167.527344 317.160156 L 168.628906 316.847656 L 169.730469 317.167969 C 174.574219 318.589844 181.589844 321.734375 187.503906 328.636719 C 192.878906 334.917969 194.992188 341.613281 195.816406 346.125 L 195.882812 346.632812 Z M 195.882812 391.898438 "/>
<path fill-rule="nonzero" fill="rgb(28.199768%, 40.79895%, 39.199829%)" fill-opacity="1" d="M 154.421875 378.523438 L 151.078125 378.523438 L 151.078125 333.410156 L 151.066406 333.355469 C 150.316406 329.246094 148.394531 323.152344 143.503906 317.441406 C 138.121094 311.160156 131.738281 308.296875 127.328125 307.003906 L 127.152344 306.953125 L 126.976562 307 C 122.464844 308.28125 115.90625 311.128906 110.292969 317.429688 C 105.238281 323.101562 103.109375 329.210938 102.210938 333.332031 L 102.195312 333.398438 L 102.195312 378.523438 L 98.851562 378.523438 L 98.851562 333.039062 L 98.945312 332.625 C 99.925781 328.105469 102.261719 321.421875 107.796875 315.207031 C 113.945312 308.300781 121.125 305.183594 126.066406 303.785156 L 127.167969 303.472656 L 128.269531 303.796875 C 133.113281 305.214844 140.128906 308.359375 146.042969 315.265625 C 151.421875 321.542969 153.53125 328.238281 154.355469 332.753906 L 154.421875 333.257812 Z M 154.421875 378.523438 "/>
<path fill-rule="nonzero" fill="rgb(28.199768%, 40.79895%, 39.199829%)" fill-opacity="1" d="M 241.367188 367.101562 L 234.9375 367.101562 L 234.9375 335.59375 L 241.367188 335.59375 Z M 235.503906 352.535156 L 220.269531 352.535156 L 220.269531 348.058594 L 235.503906 348.058594 Z M 220.679688 367.101562 L 214.246094 367.101562 L 214.246094 335.59375 L 220.679688 335.59375 Z M 220.679688 367.101562 "/>
<path fill-rule="nonzero" fill="rgb(28.199768%, 40.79895%, 39.199829%)" fill-opacity="1" d="M 249.910156 348.515625 L 270.1875 348.515625 L 270.1875 352.71875 L 249.910156 352.71875 Z M 256.292969 335.503906 L 261.773438 335.503906 C 263.644531 335.503906 265.488281 335.53125 267.304688 335.59375 C 269.125 335.65625 270.839844 335.746094 272.453125 335.867188 L 272.144531 340.113281 L 258.25 340.113281 C 257.289062 340.113281 256.574219 340.328125 256.113281 340.753906 C 255.648438 341.179688 255.417969 341.847656 255.417969 342.761719 L 255.417969 359.933594 C 255.417969 360.847656 255.648438 361.515625 256.113281 361.941406 C 256.574219 362.367188 257.289062 362.582031 258.25 362.582031 L 272.144531 362.582031 L 272.453125 366.828125 C 270.839844 366.949219 269.125 367.035156 267.304688 367.082031 C 265.488281 367.125 263.644531 367.15625 261.773438 367.171875 C 259.902344 367.1875 258.078125 367.195312 256.292969 367.195312 C 254.097656 367.195312 252.339844 366.65625 251.019531 365.574219 C 249.695312 364.492188 249.019531 363.039062 248.984375 361.210938 L 248.984375 341.484375 C 249.019531 339.65625 249.695312 338.203125 251.019531 337.125 C 252.339844 336.042969 254.097656 335.503906 256.292969 335.503906 "/>
<path fill-rule="nonzero" fill="rgb(28.199768%, 40.79895%, 39.199829%)" fill-opacity="1" d="M 285.0625 367.101562 L 278.628906 367.101562 L 278.628906 335.59375 L 285.0625 335.59375 Z M 285.0625 367.101562 "/>
<path fill-rule="nonzero" fill="rgb(28.199768%, 40.79895%, 39.199829%)" fill-opacity="1" d="M 328.132812 335.59375 C 329.746094 335.59375 330.570312 336.324219 330.605469 337.785156 L 331.996094 367.101562 L 325.871094 367.101562 L 324.636719 340.113281 L 323.65625 340.113281 L 317.019531 361.257812 C 316.710938 362.507812 315.835938 363.128906 314.394531 363.128906 L 309.863281 363.128906 C 308.390625 363.128906 307.480469 362.507812 307.136719 361.257812 L 300.5 340.113281 L 299.519531 340.113281 L 298.386719 367.101562 L 292.265625 367.101562 L 293.65625 337.785156 C 293.722656 336.324219 294.546875 335.59375 296.125 335.59375 L 302.558594 335.59375 C 303.929688 335.59375 304.789062 336.21875 305.128906 337.464844 L 310.585938 354.726562 C 310.824219 355.457031 311.023438 356.1875 311.179688 356.917969 C 311.332031 357.648438 311.511719 358.378906 311.71875 359.113281 L 312.488281 359.113281 C 312.695312 358.378906 312.882812 357.648438 313.054688 356.917969 C 313.226562 356.1875 313.417969 355.441406 313.621094 354.679688 L 319.078125 337.464844 C 319.386719 336.21875 320.261719 335.59375 321.703125 335.59375 Z M 328.132812 335.59375 "/>
<path fill-rule="nonzero" fill="rgb(28.199768%, 40.79895%, 39.199829%)" fill-opacity="1" d="M 345.683594 367.101562 L 339.25 367.101562 L 339.25 335.59375 L 345.683594 335.59375 Z M 352.628906 335.183594 C 355.304688 335.183594 357.578125 335.449219 359.449219 335.980469 C 361.316406 336.515625 362.828125 337.398438 363.976562 338.628906 C 365.125 339.863281 365.960938 341.523438 366.472656 343.609375 C 366.988281 345.695312 367.246094 348.273438 367.246094 351.347656 C 367.246094 354.421875 366.988281 357.003906 366.472656 359.089844 C 365.960938 361.175781 365.125 362.832031 363.976562 364.066406 C 362.828125 365.300781 361.316406 366.183594 359.449219 366.714844 C 357.578125 367.246094 355.304688 367.511719 352.628906 367.511719 C 350.058594 367.511719 347.671875 367.476562 345.476562 367.398438 C 343.28125 367.324219 341.203125 367.222656 339.25 367.101562 L 341.925781 362.71875 C 343.296875 362.78125 344.875 362.832031 346.660156 362.878906 C 348.445312 362.925781 350.433594 362.945312 352.628906 362.945312 C 354.621094 362.945312 356.1875 362.605469 357.339844 361.917969 C 358.488281 361.234375 359.300781 360.046875 359.78125 358.359375 C 360.261719 356.667969 360.503906 354.332031 360.503906 351.347656 C 360.503906 348.367188 360.261719 346.027344 359.78125 344.339844 C 359.300781 342.648438 358.488281 341.453125 357.339844 340.753906 C 356.1875 340.054688 354.621094 339.703125 352.628906 339.703125 C 350.5 339.703125 348.605469 339.71875 346.941406 339.75 C 345.277344 339.78125 343.65625 339.792969 342.082031 339.792969 L 339.25 335.59375 C 341.203125 335.472656 343.273438 335.375 345.449219 335.296875 C 347.628906 335.21875 350.023438 335.183594 352.628906 335.183594 "/>
<path fill-rule="nonzero" fill="rgb(28.199768%, 40.79895%, 39.199829%)" fill-opacity="1" d="M 395.34375 358.105469 L 377.074219 358.105469 L 377.074219 353.632812 L 395.34375 353.632812 Z M 389.375 335.59375 C 389.921875 335.59375 390.402344 335.730469 390.816406 336.003906 C 391.226562 336.277344 391.519531 336.644531 391.691406 337.101562 L 402.445312 367.101562 L 395.859375 367.101562 L 387.726562 342.808594 C 387.589844 342.320312 387.453125 341.835938 387.316406 341.347656 C 387.179688 340.859375 387.058594 340.386719 386.953125 339.929688 L 385.515625 339.929688 C 385.410156 340.386719 385.289062 340.859375 385.152344 341.347656 C 385.015625 341.835938 384.863281 342.320312 384.691406 342.808594 L 376.613281 367.101562 L 370.023438 367.101562 L 380.78125 337.101562 C 380.917969 336.644531 381.199219 336.277344 381.628906 336.003906 C 382.058594 335.730469 382.546875 335.59375 383.097656 335.59375 Z M 389.375 335.59375 "/>
<path fill-rule="nonzero" fill="rgb(28.199768%, 40.79895%, 39.199829%)" fill-opacity="1" d="M 412.945312 335.59375 L 412.945312 359.796875 C 412.945312 360.679688 413.207031 361.339844 413.742188 361.78125 C 414.273438 362.226562 415.035156 362.445312 416.03125 362.445312 L 428.589844 362.445312 L 428.898438 366.78125 C 426.5625 366.964844 424.136719 367.082031 421.617188 367.125 C 419.09375 367.171875 416.597656 367.195312 414.128906 367.195312 C 411.519531 367.195312 409.605469 366.601562 408.390625 365.414062 C 407.171875 364.226562 406.5625 362.71875 406.5625 360.890625 L 406.5625 335.59375 Z M 412.945312 335.59375 "/>
<path fill-rule="nonzero" fill="rgb(28.199768%, 40.79895%, 39.199829%)" fill-opacity="1" d="M 440.011719 335.59375 L 440.011719 359.796875 C 440.011719 360.679688 440.277344 361.339844 440.8125 361.78125 C 441.34375 362.226562 442.105469 362.445312 443.101562 362.445312 L 455.65625 362.445312 L 455.96875 366.78125 C 453.632812 366.964844 451.207031 367.082031 448.683594 367.125 C 446.164062 367.171875 443.667969 367.195312 441.195312 367.195312 C 438.589844 367.195312 436.675781 366.601562 435.460938 365.414062 C 434.242188 364.226562 433.632812 362.71875 433.632812 360.890625 L 433.632812 335.59375 Z M 440.011719 335.59375 "/>
<path fill-rule="nonzero" fill="rgb(28.199768%, 40.79895%, 39.199829%)" fill-opacity="1" d="M 467.132812 367.101562 L 460.804688 367.101562 L 460.804688 335.59375 L 467.132812 335.59375 Z M 473.875 335.183594 C 476.824219 335.183594 479.21875 335.457031 481.054688 336.003906 C 482.890625 336.550781 484.226562 337.488281 485.066406 338.8125 C 485.910156 340.136719 486.328125 342.003906 486.328125 344.40625 C 486.328125 345.992188 486.113281 347.335938 485.6875 348.449219 C 485.257812 349.558594 484.554688 350.441406 483.574219 351.097656 C 482.597656 351.753906 481.285156 352.171875 479.636719 352.351562 L 479.636719 352.582031 C 480.222656 352.703125 480.832031 352.9375 481.464844 353.289062 C 482.101562 353.640625 482.683594 354.132812 483.214844 354.773438 C 483.746094 355.414062 484.152344 356.234375 484.425781 357.238281 L 487.667969 367.101562 L 480.875 367.101562 L 477.941406 357.375 C 477.5625 356.28125 477.050781 355.511719 476.394531 355.070312 C 475.746094 354.628906 474.851562 354.40625 473.71875 354.40625 C 471.492188 354.40625 469.585938 354.402344 468.007812 354.382812 C 466.429688 354.371094 465.117188 354.347656 464.070312 354.316406 C 463.023438 354.285156 462.105469 354.269531 461.320312 354.269531 L 461.472656 349.933594 L 473.71875 349.933594 C 475.265625 349.902344 476.480469 349.742188 477.375 349.453125 C 478.265625 349.164062 478.902344 348.648438 479.277344 347.902344 C 479.65625 347.15625 479.84375 346.097656 479.84375 344.726562 C 479.84375 343.386719 479.65625 342.351562 479.277344 341.621094 C 478.902344 340.890625 478.265625 340.382812 477.375 340.089844 C 476.480469 339.800781 475.265625 339.65625 473.71875 339.65625 C 470.703125 339.65625 468.109375 339.671875 465.949219 339.703125 C 463.789062 339.734375 462.3125 339.765625 461.523438 339.792969 L 460.804688 335.59375 C 462.175781 335.472656 463.46875 335.382812 464.6875 335.320312 C 465.90625 335.257812 467.238281 335.21875 468.679688 335.203125 C 470.117188 335.191406 471.851562 335.183594 473.875 335.183594 "/>
</svg>
